<svg id="visual" viewBox="0 0 1920 1080" width="1920" height="1080" xmlns="http://www.w3.org/2000/svg" xmlns:xlink="http://www.w3.org/1999/xlink" version="1.1"><rect x="0" y="0" width="1920" height="1080" fill="#0d0e0f"></rect><defs><linearGradient id="grad1_0" x1="43.8%" y1="0%" x2="100%" y2="100%"><stop offset="14.444444444444446%" stop-color="#60fa3c" stop-opacity="1"></stop><stop offset="85.55555555555554%" stop-color="#60fa3c" stop-opacity="1"></stop></linearGradient></defs><defs><linearGradient id="grad1_1" x1="43.8%" y1="0%" x2="100%" y2="100%"><stop offset="14.444444444444446%" stop-color="#60fa3c" stop-opacity="1"></stop><stop offset="85.55555555555554%" stop-color="#00cc74" stop-opacity="1"></stop></linearGradient></defs><defs><linearGradient id="grad1_2" x1="43.8%" y1="0%" x2="100%" y2="100%"><stop offset="14.444444444444446%" stop-color="#009a86" stop-opacity="1"></stop><stop offset="85.55555555555554%" stop-color="#00cc74" stop-opacity="1"></stop></linearGradient></defs><defs><linearGradient id="grad1_3" x1="43.8%" y1="0%" x2="100%" y2="100%"><stop offset="14.444444444444446%" stop-color="#009a86" stop-opacity="1"></stop><stop offset="85.55555555555554%" stop-color="#006876" stop-opacity="1"></stop></linearGradient></defs><defs><linearGradient id="grad1_4" x1="43.8%" y1="0%" x2="100%" y2="100%"><stop offset="14.444444444444446%" stop-color="#00384a" stop-opacity="1"></stop><stop offset="85.55555555555554%" stop-color="#006876" stop-opacity="1"></stop></linearGradient></defs><defs><linearGradient id="grad1_5" x1="43.8%" y1="0%" x2="100%" y2="100%"><stop offset="14.444444444444446%" stop-color="#00384a" stop-opacity="1"></stop><stop offset="85.55555555555554%" stop-color="#0d0e0f" stop-opacity="1"></stop></linearGradient></defs><defs><linearGradient id="grad2_0" x1="0%" y1="0%" x2="56.3%" y2="100%"><stop offset="14.444444444444446%" stop-color="#60fa3c" stop-opacity="1"></stop><stop offset="85.55555555555554%" stop-color="#60fa3c" stop-opacity="1"></stop></linearGradient></defs><defs><linearGradient id="grad2_1" x1="0%" y1="0%" x2="56.3%" y2="100%"><stop offset="14.444444444444446%" stop-color="#00cc74" stop-opacity="1"></stop><stop offset="85.55555555555554%" stop-color="#60fa3c" stop-opacity="1"></stop></linearGradient></defs><defs><linearGradient id="grad2_2" x1="0%" y1="0%" x2="56.3%" y2="100%"><stop offset="14.444444444444446%" stop-color="#00cc74" stop-opacity="1"></stop><stop offset="85.55555555555554%" stop-color="#009a86" stop-opacity="1"></stop></linearGradient></defs><defs><linearGradient id="grad2_3" x1="0%" y1="0%" x2="56.3%" y2="100%"><stop offset="14.444444444444446%" stop-color="#006876" stop-opacity="1"></stop><stop offset="85.55555555555554%" stop-color="#009a86" stop-opacity="1"></stop></linearGradient></defs><defs><linearGradient id="grad2_4" x1="0%" y1="0%" x2="56.3%" y2="100%"><stop offset="14.444444444444446%" stop-color="#006876" stop-opacity="1"></stop><stop offset="85.55555555555554%" stop-color="#00384a" stop-opacity="1"></stop></linearGradient></defs><defs><linearGradient id="grad2_5" x1="0%" y1="0%" x2="56.3%" y2="100%"><stop offset="14.444444444444446%" stop-color="#0d0e0f" stop-opacity="1"></stop><stop offset="85.55555555555554%" stop-color="#00384a" stop-opacity="1"></stop></linearGradient></defs><g transform="translate(1920, 0)"><path d="M0 1026C-115.7 1027.8 -231.5 1029.6 -317.1 975.8C-402.7 922 -458.1 812.7 -534.3 735.4C-610.5 658.1 -707.3 612.8 -733.8 533.1C-760.2 453.4 -716.3 339.3 -753.2 244.7C-790.2 150.2 -908.1 75.1 -1026 0L0 0Z" fill="#0c232d"></path><path d="M0 855C-96.4 856.5 -192.9 858 -264.2 813.2C-335.5 768.3 -381.8 677.2 -445.2 612.8C-508.7 548.4 -589.4 510.7 -611.5 444.3C-633.5 377.9 -596.9 282.8 -627.7 204C-658.5 125.1 -756.8 62.6 -855 0L0 0Z" fill="#004f63"></path><path d="M0 684C-77.2 685.2 -154.3 686.4 -211.4 650.5C-268.4 614.7 -305.4 541.8 -356.2 490.3C-407 438.7 -471.6 408.5 -489.2 355.4C-506.8 302.3 -477.5 226.2 -502.2 163.2C-526.8 100.1 -605.4 50.1 -684 0L0 0Z" fill="#008182"></path><path d="M0 513C-57.9 513.9 -115.7 514.8 -158.5 487.9C-201.3 461 -229.1 406.3 -267.1 367.7C-305.2 329 -353.7 306.4 -366.9 266.6C-380.1 226.7 -358.1 169.7 -376.6 122.4C-395.1 75.1 -454.1 37.5 -513 0L0 0Z" fill="#00b382"></path><path d="M0 342C-38.6 342.6 -77.2 343.2 -105.7 325.3C-134.2 307.3 -152.7 270.9 -178.1 245.1C-203.5 219.4 -235.8 204.3 -244.6 177.7C-253.4 151.1 -238.8 113.1 -251.1 81.6C-263.4 50.1 -302.7 25 -342 0L0 0Z" fill="#00e45e"></path><path d="M0 171C-19.3 171.3 -38.6 171.6 -52.8 162.6C-67.1 153.7 -76.4 135.4 -89 122.6C-101.7 109.7 -117.9 102.1 -122.3 88.9C-126.7 75.6 -119.4 56.6 -125.5 40.8C-131.7 25 -151.4 12.5 -171 0L0 0Z" fill="#60fa3c"></path></g><g transform="translate(0, 1080)"><path d="M0 -1026C121.8 -1039.8 243.6 -1053.7 317.1 -975.8C390.5 -897.9 415.6 -728.3 453.8 -624.6C491.9 -520.9 543.1 -483.1 599.5 -435.5C655.9 -388 717.4 -330.7 789.4 -256.5C861.3 -182.3 943.7 -91.1 1026 0L0 0Z" fill="#0c232d"></path><path d="M0 -855C101.5 -866.5 203 -878.1 264.2 -813.2C325.4 -748.2 346.4 -606.9 378.1 -520.5C409.9 -434.1 452.6 -402.6 499.6 -363C546.5 -323.3 597.9 -275.6 657.8 -213.7C717.8 -151.9 786.4 -75.9 855 0L0 0Z" fill="#004f63"></path><path d="M0 -684C81.2 -693.2 162.4 -702.5 211.4 -650.5C260.3 -598.6 277.1 -485.5 302.5 -416.4C327.9 -347.2 362.1 -322.1 399.7 -290.4C437.2 -258.7 478.3 -220.5 526.3 -171C574.2 -121.5 629.1 -60.8 684 0L0 0Z" fill="#008182"></path><path d="M0 -513C60.9 -519.9 121.8 -526.8 158.5 -487.9C195.3 -448.9 207.8 -364.1 226.9 -312.3C246 -260.4 271.6 -241.5 299.7 -217.8C327.9 -194 358.7 -165.4 394.7 -128.2C430.7 -91.1 471.8 -45.6 513 0L0 0Z" fill="#00b382"></path><path d="M0 -342C40.6 -346.6 81.2 -351.2 105.7 -325.3C130.2 -299.3 138.5 -242.8 151.3 -208.2C164 -173.6 181 -161 199.8 -145.2C218.6 -129.3 239.1 -110.2 263.1 -85.5C287.1 -60.8 314.6 -30.4 342 0L0 0Z" fill="#00e45e"></path><path d="M0 -171C20.3 -173.3 40.6 -175.6 52.8 -162.6C65.1 -149.6 69.3 -121.4 75.6 -104.1C82 -86.8 90.5 -80.5 99.9 -72.6C109.3 -64.7 119.6 -55.1 131.6 -42.7C143.6 -30.4 157.3 -15.2 171 0L0 0Z" fill="#60fa3c"></path></g></svg>