<svg version="1.1" id="Layer_1" xmlns="http://www.w3.org/2000/svg" xmlns:xlink="http://www.w3.org/1999/xlink" x="0px" y="0px"
	 width="100%" viewBox="0 0 500 500" enable-background="new 0 0 500 500" xml:space="preserve">
<path fill="#000000" opacity="1.000000" stroke="none" 
	d="
M236.000000,501.000000 
	C157.333359,501.000000 79.166702,501.000000 1.000042,501.000000 
	C1.000028,334.333405 1.000028,167.666779 1.000014,1.000131 
	C167.666565,1.000088 334.333130,1.000088 500.999756,1.000044 
	C500.999847,167.666519 500.999847,334.333038 500.999939,500.999786 
	C412.833344,501.000000 324.666656,501.000000 236.000000,501.000000 
M342.097839,206.323029 
	C339.540771,205.722214 336.983704,205.121414 334.161560,204.458313 
	C334.161560,209.627823 334.161560,213.702957 334.161560,218.649048 
	C337.190369,218.344543 339.928558,218.069275 343.020233,217.292603 
	C341.316071,214.425308 335.955109,213.484573 338.440613,208.537567 
	C339.789337,208.065140 341.180023,207.578003 342.097839,206.323029 
M204.121429,161.363449 
	C204.157425,171.141754 204.193436,180.920059 204.882950,191.320984 
	C207.798462,191.320984 210.713989,191.320984 213.147324,191.320984 
	C213.147324,181.800842 212.605545,173.184235 213.387833,164.689560 
	C213.750504,160.751343 212.277100,160.981506 209.849457,161.027145 
	C208.166122,161.058807 206.485779,161.248123 204.121429,161.363449 
M198.971664,182.227570 
	C198.638000,177.829575 198.976639,173.245834 197.824081,169.074081 
	C195.732208,161.502304 185.545990,154.245575 177.966797,155.087738 
	C169.485535,156.030136 161.270966,158.332489 154.449112,164.997284 
	C153.433182,164.617035 152.338638,164.371826 151.414444,163.833923 
	C146.511887,160.980667 141.652115,158.053894 136.184433,154.672668 
	C116.821854,147.474075 99.738159,154.208389 91.087364,169.075806 
	C82.042900,184.619812 84.262764,204.709427 100.207726,217.662552 
	C102.594276,219.014008 104.938614,220.447418 107.374939,221.702240 
	C116.309456,226.303955 136.462952,224.132416 143.898941,215.834824 
	C149.834717,209.211304 154.166199,201.906586 157.688095,193.118408 
	C158.275940,192.040085 158.863770,190.961761 159.361542,190.048660 
	C162.956940,191.762543 166.247940,193.331345 169.782623,195.571747 
	C169.231857,196.263840 168.681107,196.955933 168.010651,197.798431 
	C169.044601,198.026703 169.687714,198.168686 170.837326,198.737503 
	C172.303864,199.321533 173.756958,200.363586 175.239349,200.407043 
	C180.505920,200.561447 186.194550,202.677917 191.223328,197.222351 
	C192.828934,195.507309 194.962112,194.040421 195.913620,192.017700 
	C197.262131,189.151062 197.739594,185.874664 198.971664,182.227570 
M250.978470,180.823776 
	C250.991959,183.651886 250.759155,186.507950 251.076157,189.301620 
	C251.562500,193.587875 255.152420,191.973145 257.364563,191.785355 
	C258.664124,191.675003 260.959778,189.438705 260.821960,188.429886 
	C259.621307,179.640717 257.971283,170.912918 256.453400,162.159180 
	C253.339523,162.159180 250.378403,162.159180 247.776672,162.159180 
	C246.068665,166.805664 244.453247,171.200256 242.570145,176.323090 
	C240.832413,172.038452 239.647400,168.505722 237.955032,165.235550 
	C237.248779,163.870804 235.610352,162.572678 234.130951,162.130737 
	C232.344376,161.597031 230.276688,162.004303 228.689346,162.004303 
	C226.997177,171.164673 225.352982,179.773010 223.879288,188.410431 
	C223.693466,189.499512 224.404022,190.741547 224.699265,191.912720 
	C225.590347,190.123993 228.776169,193.220337 229.092010,189.599091 
	C229.590698,183.881882 230.614105,178.210464 231.621979,171.052536 
	C233.909821,176.499222 235.556488,180.797150 237.547043,184.929428 
	C238.147995,186.176971 239.852432,187.885590 240.783722,187.734406 
	C241.994019,187.537888 243.315018,185.867889 243.925476,184.529678 
	C245.884903,180.234436 247.539108,175.799973 249.468338,171.030441 
	C250.033768,174.441330 250.487030,177.175568 250.978470,180.823776 
M288.264709,161.003387 
	C287.435150,161.003220 286.599060,161.071167 285.777100,160.992096 
	C279.473206,160.385620 274.318481,163.015747 271.514099,168.244431 
	C268.646942,173.590195 268.621582,179.754013 272.038269,185.186783 
	C277.189209,193.377167 292.697449,194.512451 299.107544,188.250748 
	C301.203674,186.203171 303.333832,183.399033 303.834015,180.647415 
	C305.900513,169.279282 300.926300,162.944244 288.264709,161.003387 
M339.365997,162.004532 
	C337.044495,161.866486 335.640137,162.199295 334.783447,165.109756 
	C333.084442,170.881790 330.487274,176.389450 327.788635,183.199066 
	C326.258026,179.184967 325.049835,176.276993 324.033020,173.303589 
	C320.091400,161.777435 320.114075,161.769684 310.513763,162.130463 
	C314.025665,170.815262 317.379242,179.533279 321.149200,188.067398 
	C321.888885,189.741760 324.052948,191.232956 325.887421,191.878540 
	C329.053009,192.992645 330.007263,190.248474 331.012573,187.959106 
	C334.573639,179.849518 338.175415,171.757568 341.651123,163.611725 
	C341.768646,163.336243 340.700104,162.554672 339.365997,162.004532 
M380.584290,178.013138 
	C383.068359,177.944870 386.435272,178.737000 384.420837,174.190125 
	C382.247131,174.028381 380.178802,173.874481 378.202209,173.727417 
	C378.202209,171.006699 378.202209,168.730637 378.202209,166.492020 
	C386.317749,165.421432 386.317749,165.421432 386.609955,162.399124 
	C380.783508,162.399124 374.959351,162.399124 369.558716,162.399124 
	C369.558716,172.246948 369.558716,181.711502 369.558716,191.509903 
	C375.475525,191.509903 381.175415,191.509903 387.086426,191.509903 
	C386.942810,189.903534 386.815826,188.482803 386.662781,186.770798 
	C384.061035,187.105194 381.827393,187.392288 378.216461,187.856384 
	C378.720062,184.461258 379.197357,181.243515 380.584290,178.013138 
M356.242798,191.989197 
	C357.160339,190.724091 358.834076,189.481323 358.872192,188.190262 
	C359.112396,180.053741 359.008057,171.906403 358.954803,163.763046 
	C358.950012,163.028290 358.500824,162.296432 358.277191,161.621078 
	C355.483978,161.831589 352.968781,162.021149 350.002411,162.244705 
	C350.002411,170.233032 350.986511,178.327194 349.691650,186.038666 
	C348.652161,192.229141 350.924591,192.437698 356.242798,191.989197 
M165.957535,204.959656 
	C163.696579,204.959656 161.435608,204.959656 158.940338,204.959656 
	C158.940338,208.351212 158.713013,211.185364 159.023712,213.959259 
	C159.216919,215.684341 160.224625,217.318207 160.866791,218.992996 
	C161.855347,217.599884 162.843887,216.206772 163.808746,214.847046 
	C165.450043,215.999252 167.503769,217.440979 169.557510,218.882706 
	C169.728912,218.643173 169.900314,218.403641 170.071716,218.164093 
	C169.392334,216.720932 168.712936,215.277771 168.051498,213.872757 
	C172.247467,208.946671 172.232727,208.846527 165.957535,204.959656 
M188.719147,206.833878 
	C187.648300,206.156128 186.621231,205.393311 185.498840,204.815735 
	C181.227066,202.617538 179.803696,204.483093 179.942200,208.711426 
	C180.039200,211.672318 179.960907,214.638947 179.960907,217.896500 
	C183.018494,218.379349 185.794434,218.817734 189.771515,219.445801 
	C188.935303,215.023392 188.290924,211.615540 187.557861,207.738693 
	C187.070984,208.057617 187.605133,207.707718 188.719147,206.833878 
M247.048660,214.060379 
	C247.048660,213.269257 247.048660,212.478149 247.048660,211.687027 
	C249.984634,216.395660 252.866180,215.991058 255.864670,211.366608 
	C256.005371,217.379974 256.005371,217.379974 259.048615,217.569183 
	C258.351776,213.373474 260.558228,208.874634 257.089630,204.230194 
	C254.997589,206.739899 253.278381,208.802292 251.547562,210.878632 
	C249.624985,208.749954 247.775452,206.702179 245.254623,203.911133 
	C245.254623,209.811081 245.254623,214.394791 245.254623,218.978500 
	C245.753815,218.987885 246.253006,218.997253 246.752197,219.006638 
	C246.850983,217.633286 246.949768,216.259918 247.048660,214.060379 
M272.921875,207.309128 
	C271.920685,206.405212 270.919464,205.501297 269.918274,204.597397 
	C269.583954,209.735901 267.742767,214.439407 271.351135,218.782059 
	C271.697662,216.367340 272.044189,213.952621 272.512482,210.689453 
	C275.140411,217.469391 277.982239,214.562408 280.791931,211.078522 
	C280.952332,213.791077 281.077484,215.907364 281.202606,218.023651 
	C281.658142,217.988831 282.113678,217.954025 282.569214,217.919205 
	C282.569214,213.671341 282.569214,209.423477 282.569214,205.175613 
	C282.251984,204.925247 281.934753,204.674866 281.617493,204.424500 
	C279.839050,206.572983 278.060608,208.721481 275.907776,211.322250 
	C275.029816,210.102325 274.236786,209.000397 272.921875,207.309128 
M221.000259,208.895325 
	C220.896713,214.836761 223.161850,218.668823 227.070450,219.026276 
	C230.674393,219.355896 233.823547,218.298309 234.726196,214.527298 
	C235.528015,211.177597 235.735748,207.516113 231.468521,205.854691 
	C227.604309,204.350189 223.917358,203.806900 221.000259,208.895325 
M384.441589,216.946457 
	C384.355011,215.410873 383.729034,213.637695 384.281494,212.383636 
	C386.037689,208.397141 384.804352,205.588043 380.469879,205.011780 
	C378.747009,204.782730 376.968262,204.974136 375.418213,204.974136 
	C375.418213,209.680435 375.418213,213.809052 375.418213,219.437729 
	C376.942352,216.705856 377.718567,215.314590 378.122314,214.590897 
	C380.658234,215.734741 382.733246,216.670715 384.441589,216.946457 
M320.960754,209.956711 
	C320.884338,210.795486 320.807953,211.634262 320.655548,213.307541 
	C318.658020,210.406311 317.382477,208.152573 315.669769,206.303894 
	C315.136963,205.728790 313.420044,206.250702 312.245209,206.270401 
	C312.663910,210.209457 313.082611,214.148514 313.501312,218.087570 
	C313.986023,218.053909 314.470734,218.020233 314.955444,217.986572 
	C314.955444,215.519180 314.955444,213.051804 314.955444,210.271576 
	C318.718719,212.458679 318.551971,218.245056 323.671265,217.957321 
	C324.071503,214.922119 324.723816,212.339447 324.636017,209.782196 
	C324.580536,208.165863 323.420227,206.587479 322.755463,204.992065 
	C322.157257,206.374161 321.559052,207.756256 320.960754,209.956711 
M208.420410,209.016190 
	C209.545822,209.119934 210.671234,209.223679 211.796646,209.327408 
	C210.984100,207.499695 210.062607,206.460602 208.908020,205.969131 
	C205.653976,204.583939 202.174210,203.669724 199.556366,206.978088 
	C197.160233,210.006226 197.315399,213.309769 199.820709,216.358841 
	C202.607025,219.749863 206.130371,219.355759 209.482651,217.723648 
	C210.502518,217.227112 210.787064,215.220291 211.408417,213.905182 
	C210.236664,214.124954 209.072815,214.412964 207.891434,214.549438 
	C205.832138,214.787338 203.762070,214.931870 201.696518,215.115524 
	C201.662628,213.074005 200.848465,210.498383 201.789246,209.124023 
	C203.008743,207.342422 205.551773,205.620636 208.420410,209.016190 
M298.650024,208.073578 
	C300.177826,207.589539 301.705658,207.105515 303.233459,206.621490 
	C303.093842,206.167328 302.954254,205.713181 302.814636,205.259018 
	C299.952515,205.259018 297.090424,205.259018 294.097900,205.259018 
	C294.097900,209.500458 294.097900,213.444611 294.097900,217.786713 
	C297.116760,217.786713 300.061829,217.786713 303.006927,217.786713 
	C303.002106,217.438660 302.997253,217.090622 302.992401,216.742569 
	C301.288208,215.977356 299.583984,215.212143 296.904083,214.008835 
	C299.451324,213.157135 300.772827,212.715271 302.789764,212.040894 
	C297.481964,210.470520 297.481964,210.470520 298.650024,208.073578 
M357.562775,204.973801 
	C357.257996,209.372131 356.906250,213.768951 356.766602,218.172531 
	C356.758331,218.433136 358.495789,219.075073 359.349670,218.968613 
	C361.079712,218.752930 362.760925,218.145462 364.462250,217.699509 
	C364.413452,217.445404 364.364655,217.191299 364.315826,216.937195 
	C362.703918,216.937195 361.092010,216.937195 359.585602,216.937195 
	C356.947510,211.336807 363.417969,214.278366 364.122772,211.856216 
	C362.825989,209.918808 357.189728,212.697418 359.311157,207.627762 
	C361.244110,207.024673 362.981171,206.482712 364.718231,205.940750 
	C364.624573,205.614639 364.530914,205.288513 364.437256,204.962402 
	C362.451721,204.962402 360.466217,204.962402 357.562775,204.973801 
z"/>
<path fill="#531DEA" opacity="1.000000" stroke="none" 
	d="
M169.538956,194.900146 
	C166.247940,193.331345 162.956940,191.762543 159.361542,190.048660 
	C158.863770,190.961761 158.275940,192.040085 157.273285,193.595718 
	C155.130173,191.340286 153.401886,188.607529 151.443726,185.511322 
	C150.605972,187.052994 150.132446,188.304138 149.346130,189.310974 
	C143.403549,196.920151 138.839996,205.882202 129.307404,210.010513 
	C127.541779,210.775177 125.739395,211.454941 123.953979,212.173904 
	C124.058311,212.551437 124.162643,212.928986 124.266968,213.306519 
	C126.797379,213.306519 129.327774,213.306519 131.858185,213.306519 
	C127.275429,217.316803 122.024712,216.942505 117.042595,215.542633 
	C111.901535,214.098129 107.027779,211.702286 101.836388,209.643036 
	C101.123619,212.281403 100.480698,214.661240 99.837769,217.041061 
	C84.262764,204.709427 82.042900,184.619812 91.087364,169.075806 
	C99.738159,154.208389 116.821854,147.474075 136.306702,155.149460 
	C133.920731,159.283127 137.536697,160.623489 139.299393,162.110306 
	C145.784393,167.580246 152.824036,172.413193 159.117981,178.082031 
	C163.536514,182.061691 167.152893,186.953262 170.905914,191.615921 
	C171.261490,192.057693 170.032349,193.775024 169.538956,194.900146 
M143.250137,185.289047 
	C146.579453,181.697021 146.617920,179.246414 142.960403,176.436218 
	C139.874649,174.065292 136.506607,172.061752 132.730057,169.365646 
	C127.004677,168.587326 121.279289,167.809006 115.733109,166.324158 
	C114.420586,165.748688 112.406517,164.322052 111.907364,164.733444 
	C108.170494,167.813309 103.708664,170.689697 101.471230,174.734665 
	C98.905502,179.373077 98.947517,184.605621 102.219658,190.133286 
	C105.102722,195.003677 106.611870,200.471466 111.902237,203.680923 
	C118.179512,207.489105 129.112686,206.359436 133.677750,201.045395 
	C137.073105,197.019623 140.535202,193.046021 143.776566,188.899857 
	C144.167221,188.400131 143.363129,186.966385 143.250137,185.289047 
z"/>
<path fill="#E83AE7" opacity="1.000000" stroke="none" 
	d="
M169.660797,195.235947 
	C170.032349,193.775024 171.261490,192.057693 170.905914,191.615921 
	C167.152893,186.953262 163.536514,182.061691 159.117981,178.082031 
	C152.824036,172.413193 145.784393,167.580246 139.299393,162.110306 
	C137.536697,160.623489 133.920731,159.283127 136.603241,155.389420 
	C141.652115,158.053894 146.511887,160.980667 151.414444,163.833923 
	C152.338638,164.371826 153.433182,164.617035 154.880585,165.404129 
	C156.102829,167.292587 156.893570,168.774185 157.554749,170.013031 
	C162.163620,166.425308 166.047043,162.923798 170.422882,160.218842 
	C172.315567,159.048843 175.358780,158.915421 177.635010,159.417969 
	C180.001511,159.940475 182.012482,161.921860 184.287537,163.045364 
	C187.715286,164.738052 191.309143,166.163101 192.699921,170.067749 
	C188.947311,169.622986 185.638260,169.230789 181.841766,168.881317 
	C177.600937,168.978561 173.847549,169.033096 169.852280,168.804504 
	C164.775421,166.855347 163.091660,170.389633 160.633194,173.983826 
	C162.538239,175.243622 164.216721,176.353592 165.971527,177.843262 
	C170.229767,182.682419 176.378250,184.511749 181.003387,182.518051 
	C186.204132,180.276230 185.022949,175.732544 185.184540,171.585602 
	C192.844208,171.935822 195.816269,177.238739 198.589310,182.773392 
	C197.739594,185.874664 197.262131,189.151062 195.913620,192.017700 
	C194.962112,194.040421 192.828934,195.507309 190.559875,197.404724 
	C183.374542,197.828293 176.852692,198.069489 170.330826,198.310669 
	C169.687714,198.168686 169.044601,198.026703 168.010651,197.798431 
	C168.681107,196.955933 169.231857,196.263840 169.660797,195.235947 
z"/>
<path fill="#E83AE7" opacity="1.000000" stroke="none" 
	d="
M100.022751,217.351807 
	C100.480698,214.661240 101.123619,212.281403 101.836388,209.643036 
	C107.027779,211.702286 111.901535,214.098129 117.042595,215.542633 
	C122.024712,216.942505 127.275429,217.316803 131.858185,213.306519 
	C129.327774,213.306519 126.797379,213.306519 124.266968,213.306519 
	C124.162643,212.928986 124.058311,212.551437 123.953979,212.173904 
	C125.739395,211.454941 127.541779,210.775177 129.307404,210.010513 
	C138.839996,205.882202 143.403549,196.920151 149.346130,189.310974 
	C150.132446,188.304138 150.605972,187.052994 151.443726,185.511322 
	C153.401886,188.607529 155.130173,191.340286 157.207367,193.966507 
	C154.166199,201.906586 149.834717,209.211304 143.898941,215.834824 
	C136.462952,224.132416 116.309456,226.303955 107.374939,221.702240 
	C104.938614,220.447418 102.594276,219.014008 100.022751,217.351807 
z"/>
<path fill="#FBC02F" opacity="1.000000" stroke="none" 
	d="
M250.959381,180.366791 
	C250.487030,177.175568 250.033768,174.441330 249.468338,171.030441 
	C247.539108,175.799973 245.884903,180.234436 243.925476,184.529678 
	C243.315018,185.867889 241.994019,187.537888 240.783722,187.734406 
	C239.852432,187.885590 238.147995,186.176971 237.547043,184.929428 
	C235.556488,180.797150 233.909821,176.499222 231.621979,171.052536 
	C230.614105,178.210464 229.590698,183.881882 229.092010,189.599091 
	C228.776169,193.220337 225.590347,190.123993 224.699280,191.912720 
	C224.404022,190.741547 223.693466,189.499512 223.879288,188.410431 
	C225.352982,179.773010 226.997177,171.164673 228.689346,162.004303 
	C230.276688,162.004303 232.344376,161.597031 234.130951,162.130737 
	C235.610352,162.572678 237.248779,163.870804 237.955032,165.235550 
	C239.647400,168.505722 240.832413,172.038452 242.570145,176.323090 
	C244.453247,171.200256 246.068665,166.805664 247.776672,162.159180 
	C250.378403,162.159180 253.339523,162.159180 256.453400,162.159180 
	C257.971283,170.912918 259.621307,179.640717 260.821960,188.429886 
	C260.959778,189.438705 258.664124,191.675003 257.364563,191.785355 
	C255.152420,191.973145 251.562500,193.587875 251.076157,189.301620 
	C250.759155,186.507950 250.991959,183.651886 250.959381,180.366791 
z"/>
<path fill="#FBC02F" opacity="1.000000" stroke="none" 
	d="
M288.711700,161.002380 
	C300.926300,162.944244 305.900513,169.279282 303.834015,180.647415 
	C303.333832,183.399033 301.203674,186.203171 299.107544,188.250748 
	C292.697449,194.512451 277.189209,193.377167 272.038269,185.186783 
	C268.621582,179.754013 268.646942,173.590195 271.514099,168.244431 
	C274.318481,163.015747 279.473206,160.385620 285.777100,160.992096 
	C286.599060,161.071167 287.435150,161.003220 288.711700,161.002380 
M291.473877,185.997040 
	C295.041656,182.183838 296.333405,174.329742 294.162079,169.652237 
	C291.510284,163.939697 286.331055,162.949371 282.069885,167.517166 
	C278.069092,171.805862 278.476685,176.812500 279.936462,182.066879 
	C281.864716,189.007431 284.744232,190.287354 291.473877,185.997040 
z"/>
<path fill="#FBC02F" opacity="1.000000" stroke="none" 
	d="
M339.775208,162.006775 
	C340.700104,162.554672 341.768646,163.336243 341.651123,163.611725 
	C338.175415,171.757568 334.573639,179.849518 331.012573,187.959106 
	C330.007263,190.248474 329.053009,192.992645 325.887421,191.878540 
	C324.052948,191.232956 321.888885,189.741760 321.149200,188.067398 
	C317.379242,179.533279 314.025665,170.815262 310.513763,162.130463 
	C320.114075,161.769684 320.091400,161.777435 324.033020,173.303589 
	C325.049835,176.276993 326.258026,179.184967 327.788635,183.199066 
	C330.487274,176.389450 333.084442,170.881790 334.783447,165.109756 
	C335.640137,162.199295 337.044495,161.866486 339.775208,162.006775 
z"/>
<path fill="#FBC02F" opacity="1.000000" stroke="none" 
	d="
M380.129456,178.019440 
	C379.197357,181.243515 378.720062,184.461258 378.216461,187.856384 
	C381.827393,187.392288 384.061035,187.105194 386.662781,186.770798 
	C386.815826,188.482803 386.942810,189.903534 387.086426,191.509903 
	C381.175415,191.509903 375.475525,191.509903 369.558716,191.509903 
	C369.558716,181.711502 369.558716,172.246948 369.558716,162.399124 
	C374.959351,162.399124 380.783508,162.399124 386.609955,162.399124 
	C386.317749,165.421432 386.317749,165.421432 378.202209,166.492020 
	C378.202209,168.730637 378.202209,171.006699 378.202209,173.727417 
	C380.178802,173.874481 382.247131,174.028381 384.420837,174.190125 
	C386.435272,178.737000 383.068359,177.944870 380.129456,178.019440 
z"/>
<path fill="#531DEA" opacity="1.000000" stroke="none" 
	d="
M182.329208,168.838608 
	C185.638260,169.230789 188.947311,169.622986 192.699921,170.067749 
	C191.309143,166.163101 187.715286,164.738052 184.287537,163.045364 
	C182.012482,161.921860 180.001511,159.940475 177.635010,159.417969 
	C175.358780,158.915421 172.315567,159.048843 170.422882,160.218842 
	C166.047043,162.923798 162.163620,166.425308 157.554749,170.013031 
	C156.893570,168.774185 156.102829,167.292587 155.265411,165.471832 
	C161.270966,158.332489 169.485535,156.030136 177.966797,155.087738 
	C185.545990,154.245575 195.732208,161.502304 197.824081,169.074081 
	C198.976639,173.245834 198.638000,177.829575 198.780487,182.500488 
	C195.816269,177.238739 192.844208,171.935822 184.935120,171.523849 
	C183.626648,170.569260 182.977936,169.703934 182.329208,168.838608 
z"/>
<path fill="#FBC02F" opacity="1.000000" stroke="none" 
	d="
M355.804443,191.992249 
	C350.924591,192.437698 348.652161,192.229141 349.691650,186.038666 
	C350.986511,178.327194 350.002411,170.233032 350.002411,162.244705 
	C352.968781,162.021149 355.483978,161.831589 358.277191,161.621078 
	C358.500824,162.296432 358.950012,163.028290 358.954803,163.763046 
	C359.008057,171.906403 359.112396,180.053741 358.872192,188.190262 
	C358.834076,189.481323 357.160339,190.724091 355.804443,191.992249 
z"/>
<path fill="#FBC02F" opacity="1.000000" stroke="none" 
	d="
M204.804092,161.367004 
	C206.485779,161.248123 208.166122,161.058807 209.849457,161.027145 
	C212.277100,160.981506 213.750504,160.751343 213.387833,164.689560 
	C212.605545,173.184235 213.147324,181.800842 213.147324,191.320984 
	C210.713989,191.320984 207.798462,191.320984 204.619690,190.575470 
	C204.505646,180.342300 204.654861,170.854660 204.804092,161.367004 
z"/>
<path fill="#FBC02F" opacity="1.000000" stroke="none" 
	d="
M166.386322,204.964172 
	C172.232727,208.846527 172.247467,208.946671 168.051498,213.872757 
	C168.712936,215.277771 169.392334,216.720932 170.071716,218.164093 
	C169.900314,218.403641 169.728912,218.643173 169.557510,218.882706 
	C167.503769,217.440979 165.450043,215.999252 163.808746,214.847046 
	C162.843887,216.206772 161.855347,217.599884 160.866791,218.992996 
	C160.224625,217.318207 159.216919,215.684341 159.023712,213.959259 
	C158.713013,211.185364 158.940338,208.351212 158.940338,204.959656 
	C161.435608,204.959656 163.696579,204.959656 166.386322,204.964172 
z"/>
<path fill="#FBC02F" opacity="1.000000" stroke="none" 
	d="
M188.429214,207.095856 
	C187.605133,207.707718 187.070984,208.057617 187.557861,207.738693 
	C188.290924,211.615540 188.935303,215.023392 189.771515,219.445801 
	C185.794434,218.817734 183.018494,218.379349 179.960907,217.896500 
	C179.960907,214.638947 180.039200,211.672318 179.942200,208.711426 
	C179.803696,204.483093 181.227066,202.617538 185.498840,204.815735 
	C186.621231,205.393311 187.648300,206.156128 188.429214,207.095856 
z"/>
<path fill="#FBC02F" opacity="1.000000" stroke="none" 
	d="
M247.048615,214.473480 
	C246.949768,216.259918 246.850983,217.633286 246.752197,219.006638 
	C246.253006,218.997253 245.753815,218.987885 245.254623,218.978500 
	C245.254623,214.394791 245.254623,209.811081 245.254623,203.911133 
	C247.775452,206.702179 249.624985,208.749954 251.547562,210.878632 
	C253.278381,208.802292 254.997589,206.739899 257.089630,204.230194 
	C260.558228,208.874634 258.351776,213.373474 259.048615,217.569183 
	C256.005371,217.379974 256.005371,217.379974 255.864670,211.366608 
	C252.866180,215.991058 249.984634,216.395660 247.048660,211.687027 
	C247.048660,212.478149 247.048660,213.269257 247.048615,214.473480 
z"/>
<path fill="#FBC02F" opacity="1.000000" stroke="none" 
	d="
M273.182800,207.603790 
	C274.236786,209.000397 275.029816,210.102325 275.907776,211.322250 
	C278.060608,208.721481 279.839050,206.572983 281.617493,204.424500 
	C281.934753,204.674866 282.251984,204.925247 282.569214,205.175613 
	C282.569214,209.423477 282.569214,213.671341 282.569214,217.919205 
	C282.113678,217.954025 281.658142,217.988831 281.202606,218.023651 
	C281.077484,215.907364 280.952332,213.791077 280.791931,211.078522 
	C277.982239,214.562408 275.140411,217.469391 272.512482,210.689453 
	C272.044189,213.952621 271.697662,216.367340 271.351135,218.782059 
	C267.742767,214.439407 269.583954,209.735901 269.918274,204.597397 
	C270.919464,205.501297 271.920685,206.405212 273.182800,207.603790 
z"/>
<path fill="#FBC02F" opacity="1.000000" stroke="none" 
	d="
M221.161560,208.499786 
	C223.917358,203.806900 227.604309,204.350189 231.468521,205.854691 
	C235.735748,207.516113 235.528015,211.177597 234.726196,214.527298 
	C233.823547,218.298309 230.674393,219.355896 227.070450,219.026276 
	C223.161850,218.668823 220.896713,214.836761 221.161560,208.499786 
M228.953781,215.913803 
	C233.006836,212.663803 233.724731,210.072540 230.762054,208.538269 
	C229.319336,207.791122 226.639847,207.522446 225.623154,208.366211 
	C224.462433,209.329468 223.940979,211.892914 224.277344,213.527283 
	C224.488159,214.551712 226.790695,215.145676 228.953781,215.913803 
z"/>
<path fill="#FBC02F" opacity="1.000000" stroke="none" 
	d="
M384.624939,217.276566 
	C382.733246,216.670715 380.658234,215.734741 378.122314,214.590897 
	C377.718567,215.314590 376.942352,216.705856 375.418213,219.437729 
	C375.418213,213.809052 375.418213,209.680435 375.418213,204.974136 
	C376.968262,204.974136 378.747009,204.782730 380.469879,205.011780 
	C384.804352,205.588043 386.037689,208.397141 384.281494,212.383636 
	C383.729034,213.637695 384.355011,215.410873 384.624939,217.276566 
z"/>
<path fill="#FBC02F" opacity="1.000000" stroke="none" 
	d="
M320.960815,209.547546 
	C321.559052,207.756256 322.157257,206.374161 322.755463,204.992065 
	C323.420227,206.587479 324.580536,208.165863 324.636017,209.782196 
	C324.723816,212.339447 324.071503,214.922119 323.671265,217.957321 
	C318.551971,218.245056 318.718719,212.458679 314.955444,210.271576 
	C314.955444,213.051804 314.955444,215.519180 314.955444,217.986572 
	C314.470734,218.020233 313.986023,218.053909 313.501312,218.087570 
	C313.082611,214.148514 312.663910,210.209457 312.245209,206.270401 
	C313.420044,206.250702 315.136963,205.728790 315.669769,206.303894 
	C317.382477,208.152573 318.658020,210.406311 320.655548,213.307541 
	C320.807953,211.634262 320.884338,210.795486 320.960815,209.547546 
z"/>
<path fill="#FBC02F" opacity="1.000000" stroke="none" 
	d="
M208.163910,208.740784 
	C205.551773,205.620636 203.008743,207.342422 201.789246,209.124023 
	C200.848465,210.498383 201.662628,213.074005 201.696518,215.115540 
	C203.762070,214.931870 205.832138,214.787338 207.891434,214.549438 
	C209.072815,214.412964 210.236664,214.124954 211.408417,213.905182 
	C210.787064,215.220291 210.502518,217.227112 209.482651,217.723648 
	C206.130371,219.355759 202.607025,219.749863 199.820709,216.358841 
	C197.315399,213.309769 197.160233,210.006226 199.556366,206.978088 
	C202.174210,203.669724 205.653976,204.583939 208.908020,205.969131 
	C210.062607,206.460602 210.984100,207.499695 211.796646,209.327408 
	C210.671234,209.223679 209.545822,209.119934 208.163910,208.740784 
z"/>
<path fill="#FBC02F" opacity="1.000000" stroke="none" 
	d="
M298.226624,208.104294 
	C297.481964,210.470520 297.481964,210.470520 302.789764,212.040894 
	C300.772827,212.715271 299.451324,213.157135 296.904083,214.008835 
	C299.583984,215.212143 301.288208,215.977356 302.992401,216.742569 
	C302.997253,217.090622 303.002106,217.438660 303.006927,217.786713 
	C300.061829,217.786713 297.116760,217.786713 294.097900,217.786713 
	C294.097900,213.444611 294.097900,209.500458 294.097900,205.259018 
	C297.090424,205.259018 299.952515,205.259018 302.814636,205.259018 
	C302.954254,205.713181 303.093842,206.167328 303.233459,206.621490 
	C301.705658,207.105515 300.177826,207.589539 298.226624,208.104294 
z"/>
<path fill="#FBC02F" opacity="1.000000" stroke="none" 
	d="
M358.021729,204.968109 
	C360.466217,204.962402 362.451721,204.962402 364.437256,204.962402 
	C364.530914,205.288513 364.624573,205.614639 364.718231,205.940750 
	C362.981171,206.482712 361.244110,207.024673 359.311157,207.627762 
	C357.189728,212.697418 362.825989,209.918808 364.122772,211.856216 
	C363.417969,214.278366 356.947510,211.336807 359.585602,216.937195 
	C361.092010,216.937195 362.703918,216.937195 364.315826,216.937195 
	C364.364655,217.191299 364.413452,217.445404 364.462250,217.699509 
	C362.760925,218.145462 361.079712,218.752930 359.349670,218.968613 
	C358.495789,219.075073 356.758331,218.433136 356.766602,218.172531 
	C356.906250,213.768951 357.257996,209.372131 358.021729,204.968109 
z"/>
<path fill="#FBC02F" opacity="1.000000" stroke="none" 
	d="
M342.666779,217.794006 
	C339.928558,218.069275 337.190369,218.344543 334.161560,218.649048 
	C334.161560,213.702957 334.161560,209.627823 334.161560,204.458313 
	C336.983704,205.121414 339.540771,205.722214 341.882629,206.783722 
	C340.124268,207.332275 338.581055,207.420151 336.913757,207.515076 
	C336.913757,210.433441 336.913757,212.820541 336.913757,214.646576 
	C339.125946,215.856827 340.896362,216.825424 342.666779,217.794006 
z"/>
<path fill="#531DEA" opacity="1.000000" stroke="none" 
	d="
M170.584076,198.524078 
	C176.852692,198.069489 183.374542,197.828293 190.245209,197.664154 
	C186.194550,202.677917 180.505920,200.561447 175.239349,200.407043 
	C173.756958,200.363586 172.303864,199.321533 170.584076,198.524078 
z"/>
<path fill="#E83AE7" opacity="1.000000" stroke="none" 
	d="
M342.843506,217.543304 
	C340.896362,216.825424 339.125946,215.856827 336.913757,214.646576 
	C336.913757,212.820541 336.913757,210.433441 336.913757,207.515076 
	C338.581055,207.420151 340.124268,207.332275 342.119080,207.167633 
	C341.180023,207.578003 339.789337,208.065140 338.440613,208.537567 
	C335.955109,213.484573 341.316071,214.425308 342.843506,217.543304 
z"/>
<path fill="#E83AE7" opacity="1.000000" stroke="none" 
	d="
M204.462769,161.365234 
	C204.654861,170.854660 204.505646,180.342300 204.292923,190.264160 
	C204.193436,180.920059 204.157425,171.141754 204.462769,161.365234 
z"/>
<path fill="#000000" opacity="1.000000" stroke="none" 
	d="
M132.971375,201.187042 
	C129.112686,206.359436 118.179512,207.489105 111.902237,203.680923 
	C106.611870,200.471466 105.102722,195.003677 102.219658,190.133286 
	C98.947517,184.605621 98.905502,179.373077 101.471230,174.734665 
	C103.708664,170.689697 108.170494,167.813309 111.907364,164.733444 
	C112.406517,164.322052 114.420586,165.748688 115.372360,166.811432 
	C108.967522,169.655624 104.694969,173.614136 103.343513,181.112701 
	C111.358437,170.054504 121.122604,167.850113 132.779831,174.275757 
	C132.976746,172.492599 133.120132,171.194107 133.263519,169.895599 
	C136.506607,172.061752 139.874649,174.065292 142.960403,176.436218 
	C146.617920,179.246414 146.579453,181.697021 143.014069,185.948792 
	C142.199219,186.870117 141.414886,186.973816 141.073837,187.417953 
	C138.055344,191.348801 135.086166,195.319168 132.214722,199.357712 
	C132.011444,199.643616 132.698380,200.562500 132.971375,201.187042 
z"/>
<path fill="#E83AE7" opacity="1.000000" stroke="none" 
	d="
M132.996796,169.630615 
	C133.120132,171.194107 132.976746,172.492599 132.779831,174.275757 
	C121.122604,167.850113 111.358437,170.054504 103.343513,181.112701 
	C104.694969,173.614136 108.967522,169.655624 115.282761,167.164703 
	C121.279289,167.809006 127.004677,168.587326 132.996796,169.630615 
z"/>
<path fill="#E83AE7" opacity="1.000000" stroke="none" 
	d="
M133.324554,201.116211 
	C132.698380,200.562500 132.011444,199.643616 132.214722,199.357712 
	C135.086166,195.319168 138.055344,191.348801 141.073837,187.417953 
	C141.414886,186.973816 142.199219,186.870117 142.945404,186.287048 
	C143.363129,186.966385 144.167221,188.400131 143.776566,188.899857 
	C140.535202,193.046021 137.073105,197.019623 133.324554,201.116211 
z"/>
<path fill="#000000" opacity="1.000000" stroke="none" 
	d="
M181.841766,168.881317 
	C182.977936,169.703934 183.626648,170.569260 184.524780,171.496338 
	C185.022949,175.732544 186.204132,180.276230 181.003387,182.518051 
	C176.378250,184.511749 170.229767,182.682419 166.243988,177.648834 
	C167.658142,174.412369 168.876144,171.750000 170.094147,169.087646 
	C173.847549,169.033096 177.600937,168.978561 181.841766,168.881317 
z"/>
<path fill="#531DEA" opacity="1.000000" stroke="none" 
	d="
M169.852280,168.804504 
	C168.876144,171.750000 167.658142,174.412369 166.167664,177.269150 
	C164.216721,176.353592 162.538239,175.243622 160.633194,173.983826 
	C163.091660,170.389633 164.775421,166.855347 169.852280,168.804504 
z"/>
<path fill="#000000" opacity="1.000000" stroke="none" 
	d="
M291.209351,186.278656 
	C284.744232,190.287354 281.864716,189.007431 279.936462,182.066879 
	C278.476685,176.812500 278.069092,171.805862 282.069885,167.517166 
	C286.331055,162.949371 291.510284,163.939697 294.162079,169.652237 
	C296.333405,174.329742 295.041656,182.183838 291.209351,186.278656 
z"/>
<path fill="#000000" opacity="1.000000" stroke="none" 
	d="
M228.554260,215.923279 
	C226.790695,215.145676 224.488159,214.551712 224.277344,213.527283 
	C223.940979,211.892914 224.462433,209.329468 225.623154,208.366211 
	C226.639847,207.522446 229.319336,207.791122 230.762054,208.538269 
	C233.724731,210.072540 233.006836,212.663803 228.554260,215.923279 
z"/>
</svg>