<svg id="visual" viewBox="0 0 1920 1080" width="1920" height="1080" xmlns="http://www.w3.org/2000/svg" xmlns:xlink="http://www.w3.org/1999/xlink" version="1.1"><g stroke-width="1" stroke-linejoin="bevel"><path d="M968.5 538L927.5 450L876.5 572Z" fill="#273b4a" stroke="#273b4a"></path><path d="M927.5 450L797.6 523L876.5 572Z" fill="#405a6b" stroke="#405a6b"></path><path d="M744.6 687L892.5 639L876.5 572Z" fill="#84b0c4" stroke="#84b0c4"></path><path d="M876.5 572L892.5 639L968.5 538Z" fill="#688ca0" stroke="#688ca0"></path><path d="M927.5 450L804.6 432L797.6 523Z" fill="#4d6a7c" stroke="#4d6a7c"></path><path d="M804.6 432L721.6 507L797.6 523Z" fill="#334a5a" stroke="#334a5a"></path><path d="M797.6 523L744.6 687L876.5 572Z" fill="#769eb2" stroke="#769eb2"></path><path d="M892.5 639L1028.5 657L968.5 538Z" fill="#00101c" stroke="#00101c"></path><path d="M968.5 538L1049.5 387L927.5 450Z" fill="#1b2c3a" stroke="#1b2c3a"></path><path d="M1161.4 470L1049.5 387L968.5 538Z" fill="#405a6b" stroke="#405a6b"></path><path d="M927.5 450L861.5 289L804.6 432Z" fill="#4d6a7c" stroke="#4d6a7c"></path><path d="M1049.5 387L995.5 320L927.5 450Z" fill="#334a5a" stroke="#334a5a"></path><path d="M781.6 741L921.5 739L892.5 639Z" fill="#688ca0" stroke="#688ca0"></path><path d="M892.5 639L921.5 739L1028.5 657Z" fill="#405a6b" stroke="#405a6b"></path><path d="M995.5 320L861.5 289L927.5 450Z" fill="#5a7b8e" stroke="#5a7b8e"></path><path d="M804.6 432L651.6 406L721.6 507Z" fill="#4d6a7c" stroke="#4d6a7c"></path><path d="M921.5 739L1022.5 711L1028.5 657Z" fill="#405a6b" stroke="#405a6b"></path><path d="M721.6 507L694.6 603L797.6 523Z" fill="#273b4a" stroke="#273b4a"></path><path d="M694.6 603L744.6 687L797.6 523Z" fill="#769eb2" stroke="#769eb2"></path><path d="M1176.4 611L1150.4 586L1028.5 657Z" fill="#688ca0" stroke="#688ca0"></path><path d="M1028.5 657L1150.4 586L968.5 538Z" fill="#273b4a" stroke="#273b4a"></path><path d="M1150.4 586L1161.4 470L968.5 538Z" fill="#273b4a" stroke="#273b4a"></path><path d="M1049.5 387L1086.4 290L995.5 320Z" fill="#769eb2" stroke="#769eb2"></path><path d="M744.6 687L781.6 741L892.5 639Z" fill="#4d6a7c" stroke="#4d6a7c"></path><path d="M995.5 320L895.5 240L861.5 289Z" fill="#4d6a7c" stroke="#4d6a7c"></path><path d="M749.6 285L804.6 432L861.5 289Z" fill="#769eb2" stroke="#769eb2"></path><path d="M749.6 285L651.6 406L804.6 432Z" fill="#273b4a" stroke="#273b4a"></path><path d="M721.6 507L609.7 499L694.6 603Z" fill="#4d6a7c" stroke="#4d6a7c"></path><path d="M834.6 175L749.6 285L861.5 289Z" fill="#273b4a" stroke="#273b4a"></path><path d="M1235.4 418L1086.4 290L1049.5 387Z" fill="#334a5a" stroke="#334a5a"></path><path d="M995.5 320L1060.5 197L895.5 240Z" fill="#769eb2" stroke="#769eb2"></path><path d="M1146.4 762L1176.4 611L1028.5 657Z" fill="#0f1e2a" stroke="#0f1e2a"></path><path d="M1150.4 586L1216.4 546L1161.4 470Z" fill="#273b4a" stroke="#273b4a"></path><path d="M651.6 406L609.7 499L721.6 507Z" fill="#84b0c4" stroke="#84b0c4"></path><path d="M694.6 603L694.6 726L744.6 687Z" fill="#00101c" stroke="#00101c"></path><path d="M744.6 687L694.6 726L781.6 741Z" fill="#00101c" stroke="#00101c"></path><path d="M605.7 710L694.6 726L694.6 603Z" fill="#84b0c4" stroke="#84b0c4"></path><path d="M1176.4 611L1216.4 546L1150.4 586Z" fill="#00101c" stroke="#00101c"></path><path d="M1161.4 470L1235.4 418L1049.5 387Z" fill="#405a6b" stroke="#405a6b"></path><path d="M651.6 406L609.7 410L609.7 499Z" fill="#688ca0" stroke="#688ca0"></path><path d="M644.6 298L609.7 410L651.6 406Z" fill="#334a5a" stroke="#334a5a"></path><path d="M828.6 893L936.5 845L921.5 739Z" fill="#5a7b8e" stroke="#5a7b8e"></path><path d="M921.5 739L936.5 845L1022.5 711Z" fill="#405a6b" stroke="#405a6b"></path><path d="M1022.5 711L1146.4 762L1028.5 657Z" fill="#0f1e2a" stroke="#0f1e2a"></path><path d="M828.6 893L921.5 739L781.6 741Z" fill="#334a5a" stroke="#334a5a"></path><path d="M643.6 207L644.6 298L749.6 285Z" fill="#84b0c4" stroke="#84b0c4"></path><path d="M749.6 285L644.6 298L651.6 406Z" fill="#405a6b" stroke="#405a6b"></path><path d="M1216.4 546L1235.4 418L1161.4 470Z" fill="#688ca0" stroke="#688ca0"></path><path d="M1062.5 833L1146.4 762L1022.5 711Z" fill="#405a6b" stroke="#405a6b"></path><path d="M1176.4 611L1273.4 617L1216.4 546Z" fill="#4d6a7c" stroke="#4d6a7c"></path><path d="M856.5 84L834.6 175L895.5 240Z" fill="#84b0c4" stroke="#84b0c4"></path><path d="M895.5 240L834.6 175L861.5 289Z" fill="#00101c" stroke="#00101c"></path><path d="M1146.4 178L1060.5 197L1086.4 290Z" fill="#5a7b8e" stroke="#5a7b8e"></path><path d="M1086.4 290L1060.5 197L995.5 320Z" fill="#769eb2" stroke="#769eb2"></path><path d="M936.5 845L1062.5 833L1022.5 711Z" fill="#273b4a" stroke="#273b4a"></path><path d="M560.7 676L605.7 710L694.6 603Z" fill="#1b2c3a" stroke="#1b2c3a"></path><path d="M694.6 726L711.6 817L781.6 741Z" fill="#5a7b8e" stroke="#5a7b8e"></path><path d="M560.7 676L694.6 603L609.7 499Z" fill="#5a7b8e" stroke="#5a7b8e"></path><path d="M605.7 710L711.6 817L694.6 726Z" fill="#84b0c4" stroke="#84b0c4"></path><path d="M1146.4 762L1273.4 617L1176.4 611Z" fill="#334a5a" stroke="#334a5a"></path><path d="M1216.4 546L1348.3 453L1235.4 418Z" fill="#273b4a" stroke="#273b4a"></path><path d="M433.8 610L560.7 676L609.7 499Z" fill="#5a7b8e" stroke="#5a7b8e"></path><path d="M605.7 710L593.7 866L711.6 817Z" fill="#405a6b" stroke="#405a6b"></path><path d="M711.6 817L828.6 893L781.6 741Z" fill="#00101c" stroke="#00101c"></path><path d="M936.5 845L1096.4 904L1062.5 833Z" fill="#4d6a7c" stroke="#4d6a7c"></path><path d="M1348.3 453L1265.4 342L1235.4 418Z" fill="#769eb2" stroke="#769eb2"></path><path d="M1235.4 418L1265.4 342L1086.4 290Z" fill="#334a5a" stroke="#334a5a"></path><path d="M709.6 106L643.6 207L749.6 285Z" fill="#4d6a7c" stroke="#4d6a7c"></path><path d="M644.6 298L546.7 310L609.7 410Z" fill="#334a5a" stroke="#334a5a"></path><path d="M609.7 410L428.8 540L609.7 499Z" fill="#1b2c3a" stroke="#1b2c3a"></path><path d="M1263.4 249L1146.4 178L1086.4 290Z" fill="#84b0c4" stroke="#84b0c4"></path><path d="M1056.5 96L856.5 84L895.5 240Z" fill="#4d6a7c" stroke="#4d6a7c"></path><path d="M585.7 241L546.7 310L644.6 298Z" fill="#00101c" stroke="#00101c"></path><path d="M643.6 207L585.7 241L644.6 298Z" fill="#0f1e2a" stroke="#0f1e2a"></path><path d="M1056.5 96L895.5 240L1060.5 197Z" fill="#273b4a" stroke="#273b4a"></path><path d="M834.6 175L709.6 106L749.6 285Z" fill="#769eb2" stroke="#769eb2"></path><path d="M939.5 986L1096.4 904L936.5 845Z" fill="#5a7b8e" stroke="#5a7b8e"></path><path d="M1062.5 833L1096.4 904L1146.4 762Z" fill="#273b4a" stroke="#273b4a"></path><path d="M1146.4 762L1278.4 776L1273.4 617Z" fill="#00101c" stroke="#00101c"></path><path d="M856.5 84L776.6 98L834.6 175Z" fill="#5a7b8e" stroke="#5a7b8e"></path><path d="M643.6 207L558.7 145L585.7 241Z" fill="#84b0c4" stroke="#84b0c4"></path><path d="M1146.4 178L1056.5 96L1060.5 197Z" fill="#405a6b" stroke="#405a6b"></path><path d="M1265.4 342L1263.4 249L1086.4 290Z" fill="#0f1e2a" stroke="#0f1e2a"></path><path d="M1146.4 178L1161.4 147L1056.5 96Z" fill="#1b2c3a" stroke="#1b2c3a"></path><path d="M1323.3 316L1263.4 249L1265.4 342Z" fill="#00101c" stroke="#00101c"></path><path d="M1375.3 525L1348.3 453L1216.4 546Z" fill="#4d6a7c" stroke="#4d6a7c"></path><path d="M1263.4 249L1161.4 147L1146.4 178Z" fill="#0f1e2a" stroke="#0f1e2a"></path><path d="M759.6 0L709.6 106L776.6 98Z" fill="#4d6a7c" stroke="#4d6a7c"></path><path d="M776.6 98L709.6 106L834.6 175Z" fill="#00101c" stroke="#00101c"></path><path d="M1243.4 828L1278.4 776L1146.4 762Z" fill="#405a6b" stroke="#405a6b"></path><path d="M1273.4 617L1375.3 525L1216.4 546Z" fill="#0f1e2a" stroke="#0f1e2a"></path><path d="M1278.4 776L1339.3 670L1273.4 617Z" fill="#334a5a" stroke="#334a5a"></path><path d="M1348.3 453L1323.3 316L1265.4 342Z" fill="#769eb2" stroke="#769eb2"></path><path d="M1096.4 904L1243.4 828L1146.4 762Z" fill="#688ca0" stroke="#688ca0"></path><path d="M1339.3 670L1375.3 525L1273.4 617Z" fill="#5a7b8e" stroke="#5a7b8e"></path><path d="M1423.2 285L1339.3 197L1323.3 316Z" fill="#334a5a" stroke="#334a5a"></path><path d="M443.8 803L593.7 866L605.7 710Z" fill="#334a5a" stroke="#334a5a"></path><path d="M711.6 817L778.6 988L828.6 893Z" fill="#84b0c4" stroke="#84b0c4"></path><path d="M778.6 988L939.5 986L828.6 893Z" fill="#0f1e2a" stroke="#0f1e2a"></path><path d="M828.6 893L939.5 986L936.5 845Z" fill="#4d6a7c" stroke="#4d6a7c"></path><path d="M1096.4 904L1117.4 952L1243.4 828Z" fill="#688ca0" stroke="#688ca0"></path><path d="M408.8 390L428.8 540L609.7 410Z" fill="#769eb2" stroke="#769eb2"></path><path d="M560.7 676L443.8 803L605.7 710Z" fill="#00101c" stroke="#00101c"></path><path d="M428.8 540L433.8 610L609.7 499Z" fill="#405a6b" stroke="#405a6b"></path><path d="M996.5 1019L1117.4 952L1096.4 904Z" fill="#769eb2" stroke="#769eb2"></path><path d="M630.6 969L778.6 988L711.6 817Z" fill="#769eb2" stroke="#769eb2"></path><path d="M417.8 228L441.8 311L546.7 310Z" fill="#405a6b" stroke="#405a6b"></path><path d="M546.7 310L408.8 390L609.7 410Z" fill="#4d6a7c" stroke="#4d6a7c"></path><path d="M709.6 106L558.7 145L643.6 207Z" fill="#4d6a7c" stroke="#4d6a7c"></path><path d="M417.8 228L546.7 310L585.7 241Z" fill="#334a5a" stroke="#334a5a"></path><path d="M1323.3 945L1329.3 800L1243.4 828Z" fill="#0f1e2a" stroke="#0f1e2a"></path><path d="M1243.4 828L1329.3 800L1278.4 776Z" fill="#84b0c4" stroke="#84b0c4"></path><path d="M1278.4 776L1329.3 800L1339.3 670Z" fill="#5a7b8e" stroke="#5a7b8e"></path><path d="M1502.2 569L1462.2 430L1375.3 525Z" fill="#1b2c3a" stroke="#1b2c3a"></path><path d="M441.8 311L408.8 390L546.7 310Z" fill="#0f1e2a" stroke="#0f1e2a"></path><path d="M428.8 540L371.8 555L433.8 610Z" fill="#5a7b8e" stroke="#5a7b8e"></path><path d="M939.5 986L996.5 1019L1096.4 904Z" fill="#405a6b" stroke="#405a6b"></path><path d="M981.5 1080L996.5 1019L939.5 986Z" fill="#273b4a" stroke="#273b4a"></path><path d="M1029.5 0L871.5 0L856.5 84Z" fill="#273b4a" stroke="#273b4a"></path><path d="M856.5 84L759.6 0L776.6 98Z" fill="#688ca0" stroke="#688ca0"></path><path d="M709.6 106L633.6 0L558.7 145Z" fill="#4d6a7c" stroke="#4d6a7c"></path><path d="M1029.5 0L856.5 84L1056.5 96Z" fill="#5a7b8e" stroke="#5a7b8e"></path><path d="M1144.4 0L1056.5 96L1161.4 147Z" fill="#334a5a" stroke="#334a5a"></path><path d="M1144.4 0L1029.5 0L1056.5 96Z" fill="#405a6b" stroke="#405a6b"></path><path d="M593.7 866L630.6 969L711.6 817Z" fill="#769eb2" stroke="#769eb2"></path><path d="M778.6 988L885.5 1080L939.5 986Z" fill="#273b4a" stroke="#273b4a"></path><path d="M592.7 1000L630.6 969L593.7 866Z" fill="#769eb2" stroke="#769eb2"></path><path d="M871.5 0L759.6 0L856.5 84Z" fill="#0f1e2a" stroke="#0f1e2a"></path><path d="M1339.3 197L1268.4 120L1263.4 249Z" fill="#84b0c4" stroke="#84b0c4"></path><path d="M1263.4 249L1268.4 120L1161.4 147Z" fill="#405a6b" stroke="#405a6b"></path><path d="M1323.3 316L1339.3 197L1263.4 249Z" fill="#00101c" stroke="#00101c"></path><path d="M1462.2 430L1323.3 316L1348.3 453Z" fill="#769eb2" stroke="#769eb2"></path><path d="M339.8 416L371.8 555L428.8 540Z" fill="#405a6b" stroke="#405a6b"></path><path d="M433.8 610L443.8 803L560.7 676Z" fill="#5a7b8e" stroke="#5a7b8e"></path><path d="M356.8 747L443.8 803L433.8 610Z" fill="#0f1e2a" stroke="#0f1e2a"></path><path d="M1470.2 627L1375.3 525L1339.3 670Z" fill="#00101c" stroke="#00101c"></path><path d="M1375.3 525L1462.2 430L1348.3 453Z" fill="#0f1e2a" stroke="#0f1e2a"></path><path d="M1462.2 430L1423.2 285L1323.3 316Z" fill="#00101c" stroke="#00101c"></path><path d="M1339.3 197L1350.3 110L1268.4 120Z" fill="#334a5a" stroke="#334a5a"></path><path d="M1268.4 120L1144.4 0L1161.4 147Z" fill="#273b4a" stroke="#273b4a"></path><path d="M558.7 145L417.8 228L585.7 241Z" fill="#0f1e2a" stroke="#0f1e2a"></path><path d="M334.8 341L339.8 416L408.8 390Z" fill="#00101c" stroke="#00101c"></path><path d="M408.8 390L339.8 416L428.8 540Z" fill="#273b4a" stroke="#273b4a"></path><path d="M433.8 89L417.8 228L558.7 145Z" fill="#4d6a7c" stroke="#4d6a7c"></path><path d="M822.6 1080L885.5 1080L778.6 988Z" fill="#405a6b" stroke="#405a6b"></path><path d="M885.5 1080L981.5 1080L939.5 986Z" fill="#769eb2" stroke="#769eb2"></path><path d="M996.5 1019L1085.4 1080L1117.4 952Z" fill="#405a6b" stroke="#405a6b"></path><path d="M1117.4 952L1279.4 968L1243.4 828Z" fill="#405a6b" stroke="#405a6b"></path><path d="M713.6 1080L822.6 1080L778.6 988Z" fill="#405a6b" stroke="#405a6b"></path><path d="M1456.2 734L1470.2 627L1339.3 670Z" fill="#688ca0" stroke="#688ca0"></path><path d="M356.8 747L430.8 836L443.8 803Z" fill="#4d6a7c" stroke="#4d6a7c"></path><path d="M443.8 803L430.8 836L593.7 866Z" fill="#769eb2" stroke="#769eb2"></path><path d="M334.8 341L408.8 390L441.8 311Z" fill="#1b2c3a" stroke="#1b2c3a"></path><path d="M371.8 555L324.8 632L433.8 610Z" fill="#5a7b8e" stroke="#5a7b8e"></path><path d="M471.8 1006L592.7 1000L593.7 866Z" fill="#688ca0" stroke="#688ca0"></path><path d="M630.6 969L713.6 1080L778.6 988Z" fill="#0f1e2a" stroke="#0f1e2a"></path><path d="M759.6 0L633.6 0L709.6 106Z" fill="#688ca0" stroke="#688ca0"></path><path d="M1202.4 1080L1279.4 968L1117.4 952Z" fill="#1b2c3a" stroke="#1b2c3a"></path><path d="M1329.3 800L1456.2 734L1339.3 670Z" fill="#4d6a7c" stroke="#4d6a7c"></path><path d="M1440.2 841L1456.2 734L1329.3 800Z" fill="#273b4a" stroke="#273b4a"></path><path d="M256.9 554L324.8 632L371.8 555Z" fill="#273b4a" stroke="#273b4a"></path><path d="M981.5 1080L1085.4 1080L996.5 1019Z" fill="#688ca0" stroke="#688ca0"></path><path d="M377.8 95L364.8 262L417.8 228Z" fill="#84b0c4" stroke="#84b0c4"></path><path d="M417.8 228L364.8 262L441.8 311Z" fill="#4d6a7c" stroke="#4d6a7c"></path><path d="M364.8 262L334.8 341L441.8 311Z" fill="#4d6a7c" stroke="#4d6a7c"></path><path d="M254.9 468L256.9 554L371.8 555Z" fill="#1b2c3a" stroke="#1b2c3a"></path><path d="M324.8 632L356.8 747L433.8 610Z" fill="#273b4a" stroke="#273b4a"></path><path d="M1470.2 627L1502.2 569L1375.3 525Z" fill="#769eb2" stroke="#769eb2"></path><path d="M1462.2 430L1514.2 245L1423.2 285Z" fill="#405a6b" stroke="#405a6b"></path><path d="M1586.2 541L1502.2 569L1581.2 607Z" fill="#5a7b8e" stroke="#5a7b8e"></path><path d="M607.7 1080L713.6 1080L630.6 969Z" fill="#334a5a" stroke="#334a5a"></path><path d="M1461.2 87L1350.3 110L1339.3 197Z" fill="#405a6b" stroke="#405a6b"></path><path d="M1268.4 120L1272.4 0L1144.4 0Z" fill="#0f1e2a" stroke="#0f1e2a"></path><path d="M1322.3 1080L1323.3 945L1279.4 968Z" fill="#0f1e2a" stroke="#0f1e2a"></path><path d="M1279.4 968L1323.3 945L1243.4 828Z" fill="#405a6b" stroke="#405a6b"></path><path d="M1323.3 945L1384.3 907L1329.3 800Z" fill="#1b2c3a" stroke="#1b2c3a"></path><path d="M1384.3 907L1440.2 841L1329.3 800Z" fill="#1b2c3a" stroke="#1b2c3a"></path><path d="M1581.2 607L1502.2 569L1470.2 627Z" fill="#769eb2" stroke="#769eb2"></path><path d="M1350.3 110L1272.4 0L1268.4 120Z" fill="#4d6a7c" stroke="#4d6a7c"></path><path d="M633.6 0L537.7 0L558.7 145Z" fill="#688ca0" stroke="#688ca0"></path><path d="M537.7 0L433.8 89L558.7 145Z" fill="#334a5a" stroke="#334a5a"></path><path d="M1586.2 541L1542.2 462L1502.2 569Z" fill="#688ca0" stroke="#688ca0"></path><path d="M1502.2 569L1542.2 462L1462.2 430Z" fill="#4d6a7c" stroke="#4d6a7c"></path><path d="M1423.2 285L1514.2 245L1339.3 197Z" fill="#769eb2" stroke="#769eb2"></path><path d="M1323.3 945L1473.2 940L1384.3 907Z" fill="#769eb2" stroke="#769eb2"></path><path d="M1085.4 1080L1202.4 1080L1117.4 952Z" fill="#5a7b8e" stroke="#5a7b8e"></path><path d="M489.8 1080L607.7 1080L592.7 1000Z" fill="#769eb2" stroke="#769eb2"></path><path d="M592.7 1000L607.7 1080L630.6 969Z" fill="#688ca0" stroke="#688ca0"></path><path d="M471.8 1006L593.7 866L430.8 836Z" fill="#4d6a7c" stroke="#4d6a7c"></path><path d="M254.9 468L371.8 555L339.8 416Z" fill="#1b2c3a" stroke="#1b2c3a"></path><path d="M324.8 632L257.9 738L356.8 747Z" fill="#5a7b8e" stroke="#5a7b8e"></path><path d="M238.9 301L254.9 468L334.8 341Z" fill="#1b2c3a" stroke="#1b2c3a"></path><path d="M334.8 341L254.9 468L339.8 416Z" fill="#84b0c4" stroke="#84b0c4"></path><path d="M238.9 301L334.8 341L364.8 262Z" fill="#688ca0" stroke="#688ca0"></path><path d="M316.8 867L430.8 836L356.8 747Z" fill="#405a6b" stroke="#405a6b"></path><path d="M321.8 964L471.8 1006L430.8 836Z" fill="#5a7b8e" stroke="#5a7b8e"></path><path d="M1610.2 293L1514.2 245L1462.2 430Z" fill="#4d6a7c" stroke="#4d6a7c"></path><path d="M1350.3 110L1342.3 0L1272.4 0Z" fill="#84b0c4" stroke="#84b0c4"></path><path d="M126.9 639L251.9 645L256.9 554Z" fill="#4d6a7c" stroke="#4d6a7c"></path><path d="M256.9 554L251.9 645L324.8 632Z" fill="#0f1e2a" stroke="#0f1e2a"></path><path d="M1461.2 87L1342.3 0L1350.3 110Z" fill="#4d6a7c" stroke="#4d6a7c"></path><path d="M430.8 0L377.8 95L433.8 89Z" fill="#00101c" stroke="#00101c"></path><path d="M433.8 89L377.8 95L417.8 228Z" fill="#0f1e2a" stroke="#0f1e2a"></path><path d="M1581.2 607L1470.2 627L1549.2 778Z" fill="#688ca0" stroke="#688ca0"></path><path d="M1542.2 462L1610.2 293L1462.2 430Z" fill="#334a5a" stroke="#334a5a"></path><path d="M1549.2 778L1470.2 627L1456.2 734Z" fill="#334a5a" stroke="#334a5a"></path><path d="M251.9 645L257.9 738L324.8 632Z" fill="#334a5a" stroke="#334a5a"></path><path d="M257.9 738L316.8 867L356.8 747Z" fill="#273b4a" stroke="#273b4a"></path><path d="M1473.2 940L1549.2 778L1440.2 841Z" fill="#688ca0" stroke="#688ca0"></path><path d="M1440.2 841L1549.2 778L1456.2 734Z" fill="#1b2c3a" stroke="#1b2c3a"></path><path d="M1473.2 940L1440.2 841L1384.3 907Z" fill="#4d6a7c" stroke="#4d6a7c"></path><path d="M1514.2 245L1461.2 87L1339.3 197Z" fill="#1b2c3a" stroke="#1b2c3a"></path><path d="M537.7 0L430.8 0L433.8 89Z" fill="#4d6a7c" stroke="#4d6a7c"></path><path d="M219.9 236L238.9 301L364.8 262Z" fill="#688ca0" stroke="#688ca0"></path><path d="M254.9 468L140.9 493L256.9 554Z" fill="#1b2c3a" stroke="#1b2c3a"></path><path d="M219.9 236L364.8 262L245.9 88Z" fill="#5a7b8e" stroke="#5a7b8e"></path><path d="M1202.4 1080L1322.3 1080L1279.4 968Z" fill="#405a6b" stroke="#405a6b"></path><path d="M471.8 1006L489.8 1080L592.7 1000Z" fill="#84b0c4" stroke="#84b0c4"></path><path d="M361.8 1080L489.8 1080L471.8 1006Z" fill="#4d6a7c" stroke="#4d6a7c"></path><path d="M1475.2 1080L1473.2 940L1323.3 945Z" fill="#84b0c4" stroke="#84b0c4"></path><path d="M1692.1 322L1610.2 293L1713.1 431Z" fill="#769eb2" stroke="#769eb2"></path><path d="M1514.2 245L1590.2 132L1461.2 87Z" fill="#84b0c4" stroke="#84b0c4"></path><path d="M1713.1 431L1542.2 462L1586.2 541Z" fill="#84b0c4" stroke="#84b0c4"></path><path d="M190.9 929L321.8 964L316.8 867Z" fill="#405a6b" stroke="#405a6b"></path><path d="M316.8 867L321.8 964L430.8 836Z" fill="#405a6b" stroke="#405a6b"></path><path d="M245.9 88L364.8 262L377.8 95Z" fill="#688ca0" stroke="#688ca0"></path><path d="M129.9 415L140.9 493L254.9 468Z" fill="#688ca0" stroke="#688ca0"></path><path d="M66.9 709L203.9 828L257.9 738Z" fill="#334a5a" stroke="#334a5a"></path><path d="M1692.1 798L1660.1 643L1549.2 778Z" fill="#1b2c3a" stroke="#1b2c3a"></path><path d="M1549.2 778L1660.1 643L1581.2 607Z" fill="#273b4a" stroke="#273b4a"></path><path d="M1581.2 607L1672.1 552L1586.2 541Z" fill="#0f1e2a" stroke="#0f1e2a"></path><path d="M1692.1 322L1627.2 257L1610.2 293Z" fill="#84b0c4" stroke="#84b0c4"></path><path d="M1610.2 293L1627.2 257L1514.2 245Z" fill="#84b0c4" stroke="#84b0c4"></path><path d="M1660.1 643L1672.1 552L1581.2 607Z" fill="#334a5a" stroke="#334a5a"></path><path d="M129.9 415L254.9 468L238.9 301Z" fill="#273b4a" stroke="#273b4a"></path><path d="M257.9 738L203.9 828L316.8 867Z" fill="#0f1e2a" stroke="#0f1e2a"></path><path d="M1536.2 0L1476.2 0L1461.2 87Z" fill="#1b2c3a" stroke="#1b2c3a"></path><path d="M1461.2 87L1476.2 0L1342.3 0Z" fill="#769eb2" stroke="#769eb2"></path><path d="M126.9 639L257.9 738L251.9 645Z" fill="#688ca0" stroke="#688ca0"></path><path d="M1473.2 940L1617.2 825L1549.2 778Z" fill="#334a5a" stroke="#334a5a"></path><path d="M1618.2 940L1617.2 825L1473.2 940Z" fill="#1b2c3a" stroke="#1b2c3a"></path><path d="M1627.2 257L1590.2 132L1514.2 245Z" fill="#769eb2" stroke="#769eb2"></path><path d="M108.9 327L129.9 415L238.9 301Z" fill="#84b0c4" stroke="#84b0c4"></path><path d="M303.8 0L245.9 88L377.8 95Z" fill="#688ca0" stroke="#688ca0"></path><path d="M219.9 236L108.9 327L238.9 301Z" fill="#4d6a7c" stroke="#4d6a7c"></path><path d="M203.9 1080L361.8 1080L321.8 964Z" fill="#688ca0" stroke="#688ca0"></path><path d="M321.8 964L361.8 1080L471.8 1006Z" fill="#405a6b" stroke="#405a6b"></path><path d="M66.9 709L126.9 639L0 666Z" fill="#405a6b" stroke="#405a6b"></path><path d="M140.9 493L126.9 639L256.9 554Z" fill="#405a6b" stroke="#405a6b"></path><path d="M430.8 0L303.8 0L377.8 95Z" fill="#405a6b" stroke="#405a6b"></path><path d="M1322.3 1080L1475.2 1080L1323.3 945Z" fill="#405a6b" stroke="#405a6b"></path><path d="M1713.1 431L1610.2 293L1542.2 462Z" fill="#00101c" stroke="#00101c"></path><path d="M1627.2 257L1649.1 174L1590.2 132Z" fill="#688ca0" stroke="#688ca0"></path><path d="M1830.1 397L1713.1 431L1845.1 533Z" fill="#334a5a" stroke="#334a5a"></path><path d="M1672.1 552L1713.1 431L1586.2 541Z" fill="#4d6a7c" stroke="#4d6a7c"></path><path d="M1818.1 682L1672.1 552L1660.1 643Z" fill="#4d6a7c" stroke="#4d6a7c"></path><path d="M1590.2 132L1536.2 0L1461.2 87Z" fill="#84b0c4" stroke="#84b0c4"></path><path d="M1727.1 0L1536.2 0L1590.2 132Z" fill="#0f1e2a" stroke="#0f1e2a"></path><path d="M1692.1 322L1649.1 174L1627.2 257Z" fill="#5a7b8e" stroke="#5a7b8e"></path><path d="M90.9 185L108.9 327L219.9 236Z" fill="#688ca0" stroke="#688ca0"></path><path d="M0 578L126.9 639L140.9 493Z" fill="#405a6b" stroke="#405a6b"></path><path d="M125.9 926L190.9 929L203.9 828Z" fill="#00101c" stroke="#00101c"></path><path d="M203.9 828L190.9 929L316.8 867Z" fill="#334a5a" stroke="#334a5a"></path><path d="M1576.2 1080L1618.2 940L1473.2 940Z" fill="#0f1e2a" stroke="#0f1e2a"></path><path d="M1617.2 825L1692.1 798L1549.2 778Z" fill="#4d6a7c" stroke="#4d6a7c"></path><path d="M1716.1 841L1692.1 798L1617.2 825Z" fill="#688ca0" stroke="#688ca0"></path><path d="M0 578L140.9 493L0 404Z" fill="#0f1e2a" stroke="#0f1e2a"></path><path d="M126.9 639L66.9 709L257.9 738Z" fill="#5a7b8e" stroke="#5a7b8e"></path><path d="M1618.2 940L1716.1 841L1617.2 825Z" fill="#688ca0" stroke="#688ca0"></path><path d="M1692.1 798L1818.1 682L1660.1 643Z" fill="#5a7b8e" stroke="#5a7b8e"></path><path d="M1475.2 1080L1576.2 1080L1473.2 940Z" fill="#688ca0" stroke="#688ca0"></path><path d="M1618.2 940L1716.1 933L1716.1 841Z" fill="#273b4a" stroke="#273b4a"></path><path d="M94.9 105L90.9 185L245.9 88Z" fill="#405a6b" stroke="#405a6b"></path><path d="M245.9 88L90.9 185L219.9 236Z" fill="#405a6b" stroke="#405a6b"></path><path d="M0 404L140.9 493L129.9 415Z" fill="#405a6b" stroke="#405a6b"></path><path d="M95.9 890L125.9 926L203.9 828Z" fill="#00101c" stroke="#00101c"></path><path d="M190.9 929L203.9 1080L321.8 964Z" fill="#00101c" stroke="#00101c"></path><path d="M303.8 0L181.9 0L245.9 88Z" fill="#0f1e2a" stroke="#0f1e2a"></path><path d="M66.9 709L95.9 890L203.9 828Z" fill="#4d6a7c" stroke="#4d6a7c"></path><path d="M69.9 1080L203.9 1080L125.9 926Z" fill="#688ca0" stroke="#688ca0"></path><path d="M125.9 926L203.9 1080L190.9 929Z" fill="#334a5a" stroke="#334a5a"></path><path d="M181.9 0L94.9 105L245.9 88Z" fill="#1b2c3a" stroke="#1b2c3a"></path><path d="M0 404L129.9 415L108.9 327Z" fill="#00101c" stroke="#00101c"></path><path d="M66.9 709L0 787L95.9 890Z" fill="#273b4a" stroke="#273b4a"></path><path d="M0 404L108.9 327L0 329Z" fill="#84b0c4" stroke="#84b0c4"></path><path d="M1839.1 226L1649.1 174L1692.1 322Z" fill="#1b2c3a" stroke="#1b2c3a"></path><path d="M1839.1 226L1718.1 100L1649.1 174Z" fill="#405a6b" stroke="#405a6b"></path><path d="M1649.1 174L1718.1 100L1590.2 132Z" fill="#769eb2" stroke="#769eb2"></path><path d="M1818.1 326L1692.1 322L1713.1 431Z" fill="#5a7b8e" stroke="#5a7b8e"></path><path d="M1718.1 1080L1716.1 933L1618.2 940Z" fill="#0f1e2a" stroke="#0f1e2a"></path><path d="M1716.1 841L1781.1 820L1692.1 798Z" fill="#405a6b" stroke="#405a6b"></path><path d="M0 329L108.9 327L0 220Z" fill="#4d6a7c" stroke="#4d6a7c"></path><path d="M0 578L0 666L126.9 639Z" fill="#334a5a" stroke="#334a5a"></path><path d="M0 220L108.9 327L90.9 185Z" fill="#769eb2" stroke="#769eb2"></path><path d="M1716.1 933L1781.1 820L1716.1 841Z" fill="#84b0c4" stroke="#84b0c4"></path><path d="M1807.1 793L1818.1 682L1692.1 798Z" fill="#4d6a7c" stroke="#4d6a7c"></path><path d="M1830.1 397L1818.1 326L1713.1 431Z" fill="#1b2c3a" stroke="#1b2c3a"></path><path d="M1845.1 533L1713.1 431L1672.1 552Z" fill="#688ca0" stroke="#688ca0"></path><path d="M1818.1 682L1845.1 533L1672.1 552Z" fill="#405a6b" stroke="#405a6b"></path><path d="M1781.1 820L1807.1 793L1692.1 798Z" fill="#688ca0" stroke="#688ca0"></path><path d="M1920 640L1920 557L1845.1 533Z" fill="#5a7b8e" stroke="#5a7b8e"></path><path d="M1920 795L1807.1 793L1920 850Z" fill="#4d6a7c" stroke="#4d6a7c"></path><path d="M0 666L0 787L66.9 709Z" fill="#688ca0" stroke="#688ca0"></path><path d="M95.9 890L0 998L125.9 926Z" fill="#334a5a" stroke="#334a5a"></path><path d="M0 94L0 220L90.9 185Z" fill="#273b4a" stroke="#273b4a"></path><path d="M1783.1 60L1727.1 0L1718.1 100Z" fill="#0f1e2a" stroke="#0f1e2a"></path><path d="M1718.1 100L1727.1 0L1590.2 132Z" fill="#688ca0" stroke="#688ca0"></path><path d="M0 787L0 870L95.9 890Z" fill="#1b2c3a" stroke="#1b2c3a"></path><path d="M1920 282L1839.1 226L1818.1 326Z" fill="#00101c" stroke="#00101c"></path><path d="M1818.1 326L1839.1 226L1692.1 322Z" fill="#0f1e2a" stroke="#0f1e2a"></path><path d="M1920 417L1818.1 326L1830.1 397Z" fill="#334a5a" stroke="#334a5a"></path><path d="M181.9 0L72.9 0L94.9 105Z" fill="#273b4a" stroke="#273b4a"></path><path d="M94.9 105L0 94L90.9 185Z" fill="#5a7b8e" stroke="#5a7b8e"></path><path d="M1839.1 226L1783.1 60L1718.1 100Z" fill="#769eb2" stroke="#769eb2"></path><path d="M1576.2 1080L1718.1 1080L1618.2 940Z" fill="#1b2c3a" stroke="#1b2c3a"></path><path d="M1716.1 933L1815.1 986L1781.1 820Z" fill="#0f1e2a" stroke="#0f1e2a"></path><path d="M72.9 0L0 94L94.9 105Z" fill="#0f1e2a" stroke="#0f1e2a"></path><path d="M0 998L69.9 1080L125.9 926Z" fill="#4d6a7c" stroke="#4d6a7c"></path><path d="M1920 640L1845.1 533L1818.1 682Z" fill="#00101c" stroke="#00101c"></path><path d="M1845.1 533L1920 417L1830.1 397Z" fill="#688ca0" stroke="#688ca0"></path><path d="M1920 640L1818.1 682L1920 795Z" fill="#1b2c3a" stroke="#1b2c3a"></path><path d="M1920 557L1920 417L1845.1 533Z" fill="#84b0c4" stroke="#84b0c4"></path><path d="M1920 104L1809.1 0L1783.1 60Z" fill="#334a5a" stroke="#334a5a"></path><path d="M1920 795L1818.1 682L1807.1 793Z" fill="#4d6a7c" stroke="#4d6a7c"></path><path d="M1718.1 1080L1815.1 986L1716.1 933Z" fill="#0f1e2a" stroke="#0f1e2a"></path><path d="M0 870L0 998L95.9 890Z" fill="#334a5a" stroke="#334a5a"></path><path d="M1920 104L1783.1 60L1839.1 226Z" fill="#4d6a7c" stroke="#4d6a7c"></path><path d="M1783.1 60L1809.1 0L1727.1 0Z" fill="#00101c" stroke="#00101c"></path><path d="M1920 417L1920 282L1818.1 326Z" fill="#769eb2" stroke="#769eb2"></path><path d="M72.9 0L0 0L0 94Z" fill="#688ca0" stroke="#688ca0"></path><path d="M1920 850L1807.1 793L1781.1 820Z" fill="#4d6a7c" stroke="#4d6a7c"></path><path d="M1920 282L1920 203L1839.1 226Z" fill="#1b2c3a" stroke="#1b2c3a"></path><path d="M1815.1 986L1920 850L1781.1 820Z" fill="#0f1e2a" stroke="#0f1e2a"></path><path d="M0 998L0 1080L69.9 1080Z" fill="#334a5a" stroke="#334a5a"></path><path d="M1920 203L1920 104L1839.1 226Z" fill="#334a5a" stroke="#334a5a"></path><path d="M1718.1 1080L1847.1 1080L1815.1 986Z" fill="#00101c" stroke="#00101c"></path><path d="M1815.1 986L1920 992L1920 850Z" fill="#1b2c3a" stroke="#1b2c3a"></path><path d="M1847.1 1080L1920 992L1815.1 986Z" fill="#84b0c4" stroke="#84b0c4"></path><path d="M1920 104L1920 0L1809.1 0Z" fill="#4d6a7c" stroke="#4d6a7c"></path><path d="M1847.1 1080L1920 1080L1920 992Z" fill="#5a7b8e" stroke="#5a7b8e"></path></g></svg>