<svg id="visual" viewBox="0 0 1920 1080" width="1920" height="1080" xmlns="http://www.w3.org/2000/svg" xmlns:xlink="http://www.w3.org/1999/xlink" version="1.1"><rect width="1920" height="1080" fill="#ebebeb"></rect><g><g transform="translate(1719 499)"><path d="M0 -25.7L22.2 -12.8L22.2 12.8L0 25.7L-22.2 12.8L-22.2 -12.8Z" fill="none" stroke="#7aa629" stroke-width="2"></path></g><g transform="translate(1703 448)"><path d="M0 -18L15.6 -9L15.6 9L0 18L-15.6 9L-15.6 -9Z" fill="none" stroke="#7aa629" stroke-width="2"></path></g><g transform="translate(1844 362)"><path d="M0 -20L17.3 -10L17.3 10L0 20L-17.3 10L-17.3 -10Z" fill="none" stroke="#7aa629" stroke-width="2"></path></g><g transform="translate(1271 741)"><path d="M0 -6L5.2 -3L5.2 3L0 6L-5.2 3L-5.2 -3Z" fill="none" stroke="#7aa629" stroke-width="2"></path></g><g transform="translate(1393 24)"><path d="M0 -11L9.5 -5.5L9.5 5.5L0 11L-9.5 5.5L-9.5 -5.5Z" fill="none" stroke="#7aa629" stroke-width="2"></path></g><g transform="translate(1646 5)"><path d="M0 -12L10.4 -6L10.4 6L0 12L-10.4 6L-10.4 -6Z" fill="none" stroke="#7aa629" stroke-width="2"></path></g><g transform="translate(1319 583)"><path d="M0 -8L6.9 -4L6.9 4L0 8L-6.9 4L-6.9 -4Z" fill="none" stroke="#7aa629" stroke-width="2"></path></g><g transform="translate(263 745)"><path d="M0 -10L8.7 -5L8.7 5L0 10L-8.7 5L-8.7 -5Z" fill="none" stroke="#7aa629" stroke-width="2"></path></g><g transform="translate(1573 820)"><path d="M0 -15L13 -7.5L13 7.5L0 15L-13 7.5L-13 -7.5Z" fill="none" stroke="#7aa629" stroke-width="2"></path></g><g transform="translate(381 642)"><path d="M0 -23L19.9 -11.5L19.9 11.5L0 23L-19.9 11.5L-19.9 -11.5Z" fill="none" stroke="#7aa629" stroke-width="2"></path></g><g transform="translate(514 1031)"><path d="M0 -12L10.4 -6L10.4 6L0 12L-10.4 6L-10.4 -6Z" fill="none" stroke="#7aa629" stroke-width="2"></path></g><g transform="translate(1818 582)"><path d="M0 -21L18.2 -10.5L18.2 10.5L0 21L-18.2 10.5L-18.2 -10.5Z" fill="none" stroke="#7aa629" stroke-width="2"></path></g><g transform="translate(1100 395)"><path d="M0 -24L20.8 -12L20.8 12L0 24L-20.8 12L-20.8 -12Z" fill="none" stroke="#7aa629" stroke-width="2"></path></g><g transform="translate(642 841)"><path d="M0 -15L13 -7.5L13 7.5L0 15L-13 7.5L-13 -7.5Z" fill="none" stroke="#7aa629" stroke-width="2"></path></g><g transform="translate(1752 152)"><path d="M0 -23L19.9 -11.5L19.9 11.5L0 23L-19.9 11.5L-19.9 -11.5Z" fill="none" stroke="#7aa629" stroke-width="2"></path></g><g transform="translate(1153 993)"><path d="M0 -24L20.8 -12L20.8 12L0 24L-20.8 12L-20.8 -12Z" fill="none" stroke="#7aa629" stroke-width="2"></path></g><g transform="translate(293 538)"><path d="M0 -18L15.6 -9L15.6 9L0 18L-15.6 9L-15.6 -9Z" fill="none" stroke="#7aa629" stroke-width="2"></path></g><g transform="translate(1002 639)"><path d="M0 -7L6.1 -3.5L6.1 3.5L0 7L-6.1 3.5L-6.1 -3.5Z" fill="none" stroke="#7aa629" stroke-width="2"></path></g><g transform="translate(86 46)"><path d="M0 -12L10.4 -6L10.4 6L0 12L-10.4 6L-10.4 -6Z" fill="none" stroke="#7aa629" stroke-width="2"></path></g><g transform="translate(560 396)"><path d="M0 -21L18.2 -10.5L18.2 10.5L0 21L-18.2 10.5L-18.2 -10.5Z" fill="none" stroke="#7aa629" stroke-width="2"></path></g><g transform="translate(687 621)"><path d="M0 -14L12.1 -7L12.1 7L0 14L-12.1 7L-12.1 -7Z" fill="none" stroke="#7aa629" stroke-width="2"></path></g><g transform="translate(1884 40)"><path d="M0 -8L6.9 -4L6.9 4L0 8L-6.9 4L-6.9 -4Z" fill="none" stroke="#7aa629" stroke-width="2"></path></g><g transform="translate(926 178)"><path d="M0 -7L6.1 -3.5L6.1 3.5L0 7L-6.1 3.5L-6.1 -3.5Z" fill="none" stroke="#7aa629" stroke-width="2"></path></g><g transform="translate(574 869)"><path d="M0 -18L15.6 -9L15.6 9L0 18L-15.6 9L-15.6 -9Z" fill="none" stroke="#7aa629" stroke-width="2"></path></g><g transform="translate(1134 819)"><path d="M0 -22L19.1 -11L19.1 11L0 22L-19.1 11L-19.1 -11Z" fill="none" stroke="#7aa629" stroke-width="2"></path></g><g transform="translate(786 51)"><path d="M0 -20L17.3 -10L17.3 10L0 20L-17.3 10L-17.3 -10Z" fill="none" stroke="#7aa629" stroke-width="2"></path></g><g transform="translate(751 1029)"><path d="M0 -13L11.3 -6.5L11.3 6.5L0 13L-11.3 6.5L-11.3 -6.5Z" fill="none" stroke="#7aa629" stroke-width="2"></path></g><g transform="translate(1488 244)"><path d="M0 -13L11.3 -6.5L11.3 6.5L0 13L-11.3 6.5L-11.3 -6.5Z" fill="none" stroke="#7aa629" stroke-width="2"></path></g><g transform="translate(296 267)"><path d="M0 -13L11.3 -6.5L11.3 6.5L0 13L-11.3 6.5L-11.3 -6.5Z" fill="none" stroke="#7aa629" stroke-width="2"></path></g><g transform="translate(1245 482)"><path d="M0 -22L19.1 -11L19.1 11L0 22L-19.1 11L-19.1 -11Z" fill="none" stroke="#7aa629" stroke-width="2"></path></g><g transform="translate(127 486)"><path d="M0 -16L13.9 -8L13.9 8L0 16L-13.9 8L-13.9 -8Z" fill="none" stroke="#7aa629" stroke-width="2"></path></g><g transform="translate(793 567)"><path d="M0 -10L8.7 -5L8.7 5L0 10L-8.7 5L-8.7 -5Z" fill="none" stroke="#7aa629" stroke-width="2"></path></g><g transform="translate(384 339)"><path d="M0 -17L14.7 -8.5L14.7 8.5L0 17L-14.7 8.5L-14.7 -8.5Z" fill="none" stroke="#7aa629" stroke-width="2"></path></g><g transform="translate(1825 98)"><path d="M0 -17L14.7 -8.5L14.7 8.5L0 17L-14.7 8.5L-14.7 -8.5Z" fill="none" stroke="#7aa629" stroke-width="2"></path></g><g transform="translate(1235 984)"><path d="M0 -12L10.4 -6L10.4 6L0 12L-10.4 6L-10.4 -6Z" fill="none" stroke="#7aa629" stroke-width="2"></path></g><g transform="translate(646 103)"><path d="M0 -12L10.4 -6L10.4 6L0 12L-10.4 6L-10.4 -6Z" fill="none" stroke="#7aa629" stroke-width="2"></path></g><g transform="translate(1721 881)"><path d="M0 -16L13.9 -8L13.9 8L0 16L-13.9 8L-13.9 -8Z" fill="none" stroke="#7aa629" stroke-width="2"></path></g><g transform="translate(183 888)"><path d="M0 -8L6.9 -4L6.9 4L0 8L-6.9 4L-6.9 -4Z" fill="none" stroke="#7aa629" stroke-width="2"></path></g><g transform="translate(341 861)"><path d="M0 -18L15.6 -9L15.6 9L0 18L-15.6 9L-15.6 -9Z" fill="none" stroke="#7aa629" stroke-width="2"></path></g><g transform="translate(697 1071)"><path d="M0 -21L18.2 -10.5L18.2 10.5L0 21L-18.2 10.5L-18.2 -10.5Z" fill="none" stroke="#7aa629" stroke-width="2"></path></g><g transform="translate(1760 391)"><path d="M0 -6L5.2 -3L5.2 3L0 6L-5.2 3L-5.2 -3Z" fill="none" stroke="#7aa629" stroke-width="2"></path></g><g transform="translate(1308 827)"><path d="M0 -23L19.9 -11.5L19.9 11.5L0 23L-19.9 11.5L-19.9 -11.5Z" fill="none" stroke="#7aa629" stroke-width="2"></path></g><g transform="translate(1384 427)"><path d="M0 -20L17.3 -10L17.3 10L0 20L-17.3 10L-17.3 -10Z" fill="none" stroke="#7aa629" stroke-width="2"></path></g><g transform="translate(1374 365)"><path d="M0 -12L10.4 -6L10.4 6L0 12L-10.4 6L-10.4 -6Z" fill="none" stroke="#7aa629" stroke-width="2"></path></g><g transform="translate(1903 366)"><path d="M0 -17L14.7 -8.5L14.7 8.5L0 17L-14.7 8.5L-14.7 -8.5Z" fill="none" stroke="#7aa629" stroke-width="2"></path></g><g transform="translate(1194 397)"><path d="M0 -12L10.4 -6L10.4 6L0 12L-10.4 6L-10.4 -6Z" fill="none" stroke="#7aa629" stroke-width="2"></path></g><g transform="translate(679 388)"><path d="M0 -9L7.8 -4.5L7.8 4.5L0 9L-7.8 4.5L-7.8 -4.5Z" fill="none" stroke="#7aa629" stroke-width="2"></path></g><g transform="translate(1156 299)"><path d="M0 -20L17.3 -10L17.3 10L0 20L-17.3 10L-17.3 -10Z" fill="none" stroke="#7aa629" stroke-width="2"></path></g><g transform="translate(1533 323)"><path d="M0 -23L19.9 -11.5L19.9 11.5L0 23L-19.9 11.5L-19.9 -11.5Z" fill="none" stroke="#7aa629" stroke-width="2"></path></g><g transform="translate(619 493)"><path d="M0 -21L18.2 -10.5L18.2 10.5L0 21L-18.2 10.5L-18.2 -10.5Z" fill="none" stroke="#7aa629" stroke-width="2"></path></g><g transform="translate(269 27)"><path d="M0 -6L5.2 -3L5.2 3L0 6L-5.2 3L-5.2 -3Z" fill="none" stroke="#7aa629" stroke-width="2"></path></g><g transform="translate(204 161)"><path d="M0 -19L16.5 -9.5L16.5 9.5L0 19L-16.5 9.5L-16.5 -9.5Z" fill="none" stroke="#7aa629" stroke-width="2"></path></g><g transform="translate(112 870)"><path d="M0 -8L6.9 -4L6.9 4L0 8L-6.9 4L-6.9 -4Z" fill="none" stroke="#7aa629" stroke-width="2"></path></g><g transform="translate(58 469)"><path d="M0 -16L13.9 -8L13.9 8L0 16L-13.9 8L-13.9 -8Z" fill="none" stroke="#7aa629" stroke-width="2"></path></g><g transform="translate(817 467)"><path d="M0 -23L19.9 -11.5L19.9 11.5L0 23L-19.9 11.5L-19.9 -11.5Z" fill="none" stroke="#7aa629" stroke-width="2"></path></g><g transform="translate(866 233)"><path d="M0 -19L16.5 -9.5L16.5 9.5L0 19L-16.5 9.5L-16.5 -9.5Z" fill="none" stroke="#7aa629" stroke-width="2"></path></g><g transform="translate(1769 560)"><path d="M0 -12L10.4 -6L10.4 6L0 12L-10.4 6L-10.4 -6Z" fill="none" stroke="#7aa629" stroke-width="2"></path></g><g transform="translate(1414 218)"><path d="M0 -21L18.2 -10.5L18.2 10.5L0 21L-18.2 10.5L-18.2 -10.5Z" fill="none" stroke="#7aa629" stroke-width="2"></path></g><g transform="translate(191 676)"><path d="M0 -14L12.1 -7L12.1 7L0 14L-12.1 7L-12.1 -7Z" fill="none" stroke="#7aa629" stroke-width="2"></path></g><g transform="translate(1639 136)"><path d="M0 -21L18.2 -10.5L18.2 10.5L0 21L-18.2 10.5L-18.2 -10.5Z" fill="none" stroke="#7aa629" stroke-width="2"></path></g><g transform="translate(158 1005)"><path d="M0 -8L6.9 -4L6.9 4L0 8L-6.9 4L-6.9 -4Z" fill="none" stroke="#7aa629" stroke-width="2"></path></g><g transform="translate(1854 419)"><path d="M0 -12L10.4 -6L10.4 6L0 12L-10.4 6L-10.4 -6Z" fill="none" stroke="#7aa629" stroke-width="2"></path></g><g transform="translate(1093 159)"><path d="M0 -18L15.6 -9L15.6 9L0 18L-15.6 9L-15.6 -9Z" fill="none" stroke="#7aa629" stroke-width="2"></path></g><g transform="translate(568 462)"><path d="M0 -9L7.8 -4.5L7.8 4.5L0 9L-7.8 4.5L-7.8 -4.5Z" fill="none" stroke="#7aa629" stroke-width="2"></path></g><g transform="translate(529 43)"><path d="M0 -18L15.6 -9L15.6 9L0 18L-15.6 9L-15.6 -9Z" fill="none" stroke="#7aa629" stroke-width="2"></path></g><g transform="translate(233 852)"><path d="M0 -18L15.6 -9L15.6 9L0 18L-15.6 9L-15.6 -9Z" fill="none" stroke="#7aa629" stroke-width="2"></path></g><g transform="translate(151 8)"><path d="M0 -8L6.9 -4L6.9 4L0 8L-6.9 4L-6.9 -4Z" fill="none" stroke="#7aa629" stroke-width="2"></path></g><g transform="translate(699 775)"><path d="M0 -19L16.5 -9.5L16.5 9.5L0 19L-16.5 9.5L-16.5 -9.5Z" fill="none" stroke="#7aa629" stroke-width="2"></path></g><g transform="translate(1256 228)"><path d="M0 -24L20.8 -12L20.8 12L0 24L-20.8 12L-20.8 -12Z" fill="none" stroke="#7aa629" stroke-width="2"></path></g><g transform="translate(1016 157)"><path d="M0 -17L14.7 -8.5L14.7 8.5L0 17L-14.7 8.5L-14.7 -8.5Z" fill="none" stroke="#7aa629" stroke-width="2"></path></g><g transform="translate(1319 285)"><path d="M0 -8L6.9 -4L6.9 4L0 8L-6.9 4L-6.9 -4Z" stroke="#7aa629" fill="none" stroke-width="2"></path></g><g transform="translate(1869 964)"><path d="M0 -17L14.7 -8.5L14.7 8.5L0 17L-14.7 8.5L-14.7 -8.5Z" stroke="#7aa629" fill="none" stroke-width="2"></path></g><g transform="translate(640 1039)"><path d="M0 -7L6.1 -3.5L6.1 3.5L0 7L-6.1 3.5L-6.1 -3.5Z" stroke="#7aa629" fill="none" stroke-width="2"></path></g><g transform="translate(1595 171)"><path d="M0 -11L9.5 -5.5L9.5 5.5L0 11L-9.5 5.5L-9.5 -5.5Z" stroke="#7aa629" fill="none" stroke-width="2"></path></g><g transform="translate(358 1062)"><path d="M0 -6L5.2 -3L5.2 3L0 6L-5.2 3L-5.2 -3Z" stroke="#7aa629" fill="none" stroke-width="2"></path></g><g transform="translate(837 752)"><path d="M0 -10L8.7 -5L8.7 5L0 10L-8.7 5L-8.7 -5Z" stroke="#7aa629" fill="none" stroke-width="2"></path></g><g transform="translate(64 136)"><path d="M0 -16L13.9 -8L13.9 8L0 16L-13.9 8L-13.9 -8Z" stroke="#7aa629" fill="none" stroke-width="2"></path></g><g transform="translate(14 441)"><path d="M0 -14L12.1 -7L12.1 7L0 14L-12.1 7L-12.1 -7Z" stroke="#7aa629" fill="none" stroke-width="2"></path></g><g transform="translate(1116 73)"><path d="M0 -21L18.2 -10.5L18.2 10.5L0 21L-18.2 10.5L-18.2 -10.5Z" stroke="#7aa629" fill="none" stroke-width="2"></path></g><g transform="translate(1059 322)"><path d="M0 -23L19.9 -11.5L19.9 11.5L0 23L-19.9 11.5L-19.9 -11.5Z" stroke="#7aa629" fill="none" stroke-width="2"></path></g><g transform="translate(1349 725)"><path d="M0 -6L5.2 -3L5.2 3L0 6L-5.2 3L-5.2 -3Z" stroke="#7aa629" fill="none" stroke-width="2"></path></g><g transform="translate(518 173)"><path d="M0 -18L15.6 -9L15.6 9L0 18L-15.6 9L-15.6 -9Z" stroke="#7aa629" fill="none" stroke-width="2"></path></g><g transform="translate(1556 118)"><path d="M0 -22L19.1 -11L19.1 11L0 22L-19.1 11L-19.1 -11Z" stroke="#7aa629" fill="none" stroke-width="2"></path></g><g transform="translate(1149 546)"><path d="M0 -7L6.1 -3.5L6.1 3.5L0 7L-6.1 3.5L-6.1 -3.5Z" stroke="#7aa629" fill="none" stroke-width="2"></path></g><g transform="translate(53 709)"><path d="M0 -10L8.7 -5L8.7 5L0 10L-8.7 5L-8.7 -5Z" stroke="#7aa629" fill="none" stroke-width="2"></path></g><g transform="translate(167 361)"><path d="M0 -21L18.2 -10.5L18.2 10.5L0 21L-18.2 10.5L-18.2 -10.5Z" stroke="#7aa629" fill="none" stroke-width="2"></path></g><g transform="translate(18 917)"><path d="M0 -8L6.9 -4L6.9 4L0 8L-6.9 4L-6.9 -4Z" stroke="#7aa629" fill="none" stroke-width="2"></path></g><g transform="translate(1505 416)"><path d="M0 -8L6.9 -4L6.9 4L0 8L-6.9 4L-6.9 -4Z" stroke="#7aa629" fill="none" stroke-width="2"></path></g><g transform="translate(354 939)"><path d="M0 -16L13.9 -8L13.9 8L0 16L-13.9 8L-13.9 -8Z" stroke="#7aa629" fill="none" stroke-width="2"></path></g><g transform="translate(338 500)"><path d="M0 -9L7.8 -4.5L7.8 4.5L0 9L-7.8 4.5L-7.8 -4.5Z" stroke="#7aa629" fill="none" stroke-width="2"></path></g><g transform="translate(442 337)"><path d="M0 -11L9.5 -5.5L9.5 5.5L0 11L-9.5 5.5L-9.5 -5.5Z" stroke="#7aa629" fill="none" stroke-width="2"></path></g><g transform="translate(983 221)"><path d="M0 -24L20.8 -12L20.8 12L0 24L-20.8 12L-20.8 -12Z" stroke="#7aa629" fill="none" stroke-width="2"></path></g><g transform="translate(1007 540)"><path d="M0 -15L13 -7.5L13 7.5L0 15L-13 7.5L-13 -7.5Z" stroke="#7aa629" fill="none" stroke-width="2"></path></g><g transform="translate(401 448)"><path d="M0 -19L16.5 -9.5L16.5 9.5L0 19L-16.5 9.5L-16.5 -9.5Z" stroke="#7aa629" fill="none" stroke-width="2"></path></g><g transform="translate(1881 478)"><path d="M0 -24L20.8 -12L20.8 12L0 24L-20.8 12L-20.8 -12Z" stroke="#7aa629" fill="none" stroke-width="2"></path></g><g transform="translate(1811 873)"><path d="M0 -13L11.3 -6.5L11.3 6.5L0 13L-11.3 6.5L-11.3 -6.5Z" stroke="#7aa629" fill="none" stroke-width="2"></path></g><g transform="translate(1307 645)"><path d="M0 -9L7.8 -4.5L7.8 4.5L0 9L-7.8 4.5L-7.8 -4.5Z" stroke="#7aa629" fill="none" stroke-width="2"></path></g><g transform="translate(337 22)"><path d="M0 -20L17.3 -10L17.3 10L0 20L-17.3 10L-17.3 -10Z" stroke="#7aa629" fill="none" stroke-width="2"></path></g><g transform="translate(206 316)"><path d="M0 -13L11.3 -6.5L11.3 6.5L0 13L-11.3 6.5L-11.3 -6.5Z" stroke="#7aa629" fill="none" stroke-width="2"></path></g><g transform="translate(791 301)"><path d="M0 -20L17.3 -10L17.3 10L0 20L-17.3 10L-17.3 -10Z" stroke="#7aa629" fill="none" stroke-width="2"></path></g><g transform="translate(732 926)"><path d="M0 -17L14.7 -8.5L14.7 8.5L0 17L-14.7 8.5L-14.7 -8.5Z" stroke="#7aa629" fill="none" stroke-width="2"></path></g><g transform="translate(922 59)"><path d="M0 -21L18.2 -10.5L18.2 10.5L0 21L-18.2 10.5L-18.2 -10.5Z" stroke="#7aa629" fill="none" stroke-width="2"></path></g><g transform="translate(1880 759)"><path d="M0 -24L20.8 -12L20.8 12L0 24L-20.8 12L-20.8 -12Z" stroke="#7aa629" fill="none" stroke-width="2"></path></g><g transform="translate(1321 211)"><path d="M0 -15L13 -7.5L13 7.5L0 15L-13 7.5L-13 -7.5Z" stroke="#7aa629" fill="none" stroke-width="2"></path></g><g transform="translate(422 541)"><path d="M0 -22L19.1 -11L19.1 11L0 22L-19.1 11L-19.1 -11Z" stroke="#7aa629" fill="none" stroke-width="2"></path></g><g transform="translate(1434 601)"><path d="M0 -9L7.8 -4.5L7.8 4.5L0 9L-7.8 4.5L-7.8 -4.5Z" stroke="#7aa629" fill="none" stroke-width="2"></path></g><g transform="translate(1702 314)"><path d="M0 -9L7.8 -4.5L7.8 4.5L0 9L-7.8 4.5L-7.8 -4.5Z" stroke="#7aa629" fill="none" stroke-width="2"></path></g><g transform="translate(1621 594)"><path d="M0 -12L10.4 -6L10.4 6L0 12L-10.4 6L-10.4 -6Z" stroke="#7aa629" fill="none" stroke-width="2"></path></g><g transform="translate(1304 930)"><path d="M0 -12L10.4 -6L10.4 6L0 12L-10.4 6L-10.4 -6Z" stroke="#7aa629" fill="none" stroke-width="2"></path></g><g transform="translate(635 765)"><path d="M0 -20L17.3 -10L17.3 10L0 20L-17.3 10L-17.3 -10Z" stroke="#7aa629" fill="none" stroke-width="2"></path></g><g transform="translate(1002 414)"><path d="M0 -22L19.1 -11L19.1 11L0 22L-19.1 11L-19.1 -11Z" stroke="#7aa629" fill="none" stroke-width="2"></path></g><g transform="translate(531 278)"><path d="M0 -21L18.2 -10.5L18.2 10.5L0 21L-18.2 10.5L-18.2 -10.5Z" stroke="#7aa629" fill="none" stroke-width="2"></path></g><g transform="translate(842 104)"><path d="M0 -23L19.9 -11.5L19.9 11.5L0 23L-19.9 11.5L-19.9 -11.5Z" stroke="#7aa629" fill="none" stroke-width="2"></path></g><g transform="translate(1055 484)"><path d="M0 -20L17.3 -10L17.3 10L0 20L-17.3 10L-17.3 -10Z" stroke="#7aa629" fill="none" stroke-width="2"></path></g><g transform="translate(642 51)"><path d="M0 -19L16.5 -9.5L16.5 9.5L0 19L-16.5 9.5L-16.5 -9.5Z" stroke="#7aa629" fill="none" stroke-width="2"></path></g><g transform="translate(484 734)"><path d="M0 -13L11.3 -6.5L11.3 6.5L0 13L-11.3 6.5L-11.3 -6.5Z" stroke="#7aa629" fill="none" stroke-width="2"></path></g><g transform="translate(1105 692)"><path d="M0 -11L9.5 -5.5L9.5 5.5L0 11L-9.5 5.5L-9.5 -5.5Z" stroke="#7aa629" fill="none" stroke-width="2"></path></g><g transform="translate(506 854)"><path d="M0 -18L15.6 -9L15.6 9L0 18L-15.6 9L-15.6 -9Z" stroke="#7aa629" fill="none" stroke-width="2"></path></g><g transform="translate(1488 920)"><path d="M0 -11L9.5 -5.5L9.5 5.5L0 11L-9.5 5.5L-9.5 -5.5Z" stroke="#7aa629" fill="none" stroke-width="2"></path></g><g transform="translate(686 983)"><path d="M0 -11L9.5 -5.5L9.5 5.5L0 11L-9.5 5.5L-9.5 -5.5Z" stroke="#7aa629" fill="none" stroke-width="2"></path></g><g transform="translate(1396 898)"><path d="M0 -10L8.7 -5L8.7 5L0 10L-8.7 5L-8.7 -5Z" stroke="#7aa629" fill="none" stroke-width="2"></path></g><g transform="translate(1225 537)"><path d="M0 -11L9.5 -5.5L9.5 5.5L0 11L-9.5 5.5L-9.5 -5.5Z" stroke="#7aa629" fill="none" stroke-width="2"></path></g><g transform="translate(905 298)"><path d="M0 -13L11.3 -6.5L11.3 6.5L0 13L-11.3 6.5L-11.3 -6.5Z" stroke="#7aa629" fill="none" stroke-width="2"></path></g><g transform="translate(1301 393)"><path d="M0 -22L19.1 -11L19.1 11L0 22L-19.1 11L-19.1 -11Z" stroke="#7aa629" fill="none" stroke-width="2"></path></g><g transform="translate(586 196)"><path d="M0 -7L6.1 -3.5L6.1 3.5L0 7L-6.1 3.5L-6.1 -3.5Z" stroke="#7aa629" fill="none" stroke-width="2"></path></g><g transform="translate(803 897)"><path d="M0 -18L15.6 -9L15.6 9L0 18L-15.6 9L-15.6 -9Z" stroke="#7aa629" fill="none" stroke-width="2"></path></g><g transform="translate(1572 1014)"><path d="M0 -19L16.5 -9.5L16.5 9.5L0 19L-16.5 9.5L-16.5 -9.5Z" stroke="#7aa629" fill="none" stroke-width="2"></path></g><g transform="translate(810 810)"><path d="M0 -18L15.6 -9L15.6 9L0 18L-15.6 9L-15.6 -9Z" stroke="#7aa629" fill="none" stroke-width="2"></path></g><g transform="translate(586 1051)"><path d="M0 -9L7.8 -4.5L7.8 4.5L0 9L-7.8 4.5L-7.8 -4.5Z" stroke="#7aa629" fill="none" stroke-width="2"></path></g><g transform="translate(791 392)"><path d="M0 -23L19.9 -11.5L19.9 11.5L0 23L-19.9 11.5L-19.9 -11.5Z" stroke="#7aa629" fill="none" stroke-width="2"></path></g><g transform="translate(1036 851)"><path d="M0 -14L12.1 -7L12.1 7L0 14L-12.1 7L-12.1 -7Z" stroke="#7aa629" fill="none" stroke-width="2"></path></g><g transform="translate(1463 53)"><path d="M0 -8L6.9 -4L6.9 4L0 8L-6.9 4L-6.9 -4Z" stroke="#7aa629" fill="none" stroke-width="2"></path></g><g transform="translate(1740 89)"><path d="M0 -10L8.7 -5L8.7 5L0 10L-8.7 5L-8.7 -5Z" stroke="#7aa629" fill="none" stroke-width="2"></path></g><g transform="translate(742 257)"><path d="M0 -12L10.4 -6L10.4 6L0 12L-10.4 6L-10.4 -6Z" stroke="#7aa629" fill="none" stroke-width="2"></path></g><g transform="translate(1610 441)"><path d="M0 -8L6.9 -4L6.9 4L0 8L-6.9 4L-6.9 -4Z" stroke="#7aa629" fill="none" stroke-width="2"></path></g><g transform="translate(90 954)"><path d="M0 -15L13 -7.5L13 7.5L0 15L-13 7.5L-13 -7.5Z" stroke="#7aa629" fill="none" stroke-width="2"></path></g><g transform="translate(261 93)"><path d="M0 -10L8.7 -5L8.7 5L0 10L-8.7 5L-8.7 -5Z" stroke="#7aa629" fill="none" stroke-width="2"></path></g><g transform="translate(738 95)"><path d="M0 -23L19.9 -11.5L19.9 11.5L0 23L-19.9 11.5L-19.9 -11.5Z" stroke="#7aa629" fill="none" stroke-width="2"></path></g><g transform="translate(662 707)"><path d="M0 -21L18.2 -10.5L18.2 10.5L0 21L-18.2 10.5L-18.2 -10.5Z" stroke="#7aa629" fill="none" stroke-width="2"></path></g><g transform="translate(935 397)"><path d="M0 -19L16.5 -9.5L16.5 9.5L0 19L-16.5 9.5L-16.5 -9.5Z" stroke="#7aa629" fill="none" stroke-width="2"></path></g><g transform="translate(34 575)"><path d="M0 -6L5.2 -3L5.2 3L0 6L-5.2 3L-5.2 -3Z" stroke="#7aa629" fill="none" stroke-width="2"></path></g><g transform="translate(298 897)"><path d="M0 -10L8.7 -5L8.7 5L0 10L-8.7 5L-8.7 -5Z" stroke="#7aa629" fill="none" stroke-width="2"></path></g><g transform="translate(160 241)"><path d="M0 -22L19.1 -11L19.1 11L0 22L-19.1 11L-19.1 -11Z" stroke="#7aa629" fill="none" stroke-width="2"></path></g><g transform="translate(894 432)"><path d="M0 -13L11.3 -6.5L11.3 6.5L0 13L-11.3 6.5L-11.3 -6.5Z" stroke="#7aa629" fill="none" stroke-width="2"></path></g><g transform="translate(1107 228)"><path d="M0 -19L16.5 -9.5L16.5 9.5L0 19L-16.5 9.5L-16.5 -9.5Z" stroke="#7aa629" fill="none" stroke-width="2"></path></g><g transform="translate(1140 613)"><path d="M0 -16L13.9 -8L13.9 8L0 16L-13.9 8L-13.9 -8Z" stroke="#7aa629" fill="none" stroke-width="2"></path></g><g transform="translate(1384 668)"><path d="M0 -21L18.2 -10.5L18.2 10.5L0 21L-18.2 10.5L-18.2 -10.5Z" stroke="#7aa629" fill="none" stroke-width="2"></path></g><g transform="translate(1639 840)"><path d="M0 -23L19.9 -11.5L19.9 11.5L0 23L-19.9 11.5L-19.9 -11.5Z" stroke="#7aa629" fill="none" stroke-width="2"></path></g><g transform="translate(1895 873)"><path d="M0 -12L10.4 -6L10.4 6L0 12L-10.4 6L-10.4 -6Z" stroke="#7aa629" fill="none" stroke-width="2"></path></g><g transform="translate(5 264)"><path d="M0 -11L9.5 -5.5L9.5 5.5L0 11L-9.5 5.5L-9.5 -5.5Z" stroke="#7aa629" fill="none" stroke-width="2"></path></g><g transform="translate(79 320)"><path d="M0 -7L6.1 -3.5L6.1 3.5L0 7L-6.1 3.5L-6.1 -3.5Z" stroke="#7aa629" fill="none" stroke-width="2"></path></g><g transform="translate(1152 430)"><path d="M0 -13L11.3 -6.5L11.3 6.5L0 13L-11.3 6.5L-11.3 -6.5Z" stroke="#7aa629" fill="none" stroke-width="2"></path></g><g transform="translate(1852 1073)"><path d="M0 -19L16.5 -9.5L16.5 9.5L0 19L-16.5 9.5L-16.5 -9.5Z" stroke="#7aa629" fill="none" stroke-width="2"></path></g><g transform="translate(411 716)"><path d="M0 -12L10.4 -6L10.4 6L0 12L-10.4 6L-10.4 -6Z" stroke="#7aa629" fill="none" stroke-width="2"></path></g><g transform="translate(1253 833)"><path d="M0 -21L18.2 -10.5L18.2 10.5L0 21L-18.2 10.5L-18.2 -10.5Z" stroke="#7aa629" fill="none" stroke-width="2"></path></g><g transform="translate(246 379)"><path d="M0 -24L20.8 -12L20.8 12L0 24L-20.8 12L-20.8 -12Z" stroke="#7aa629" fill="none" stroke-width="2"></path></g><g transform="translate(794 656)"><path d="M0 -9L7.8 -4.5L7.8 4.5L0 9L-7.8 4.5L-7.8 -4.5Z" stroke="#7aa629" fill="none" stroke-width="2"></path></g><g transform="translate(127 144)"><path d="M0 -16L13.9 -8L13.9 8L0 16L-13.9 8L-13.9 -8Z" stroke="#7aa629" fill="none" stroke-width="2"></path></g><g transform="translate(239 991)"><path d="M0 -20L17.3 -10L17.3 10L0 20L-17.3 10L-17.3 -10Z" stroke="#7aa629" fill="none" stroke-width="2"></path></g><g transform="translate(328 125)"><path d="M0 -12L10.4 -6L10.4 6L0 12L-10.4 6L-10.4 -6Z" stroke="#7aa629" fill="none" stroke-width="2"></path></g><g transform="translate(221 435)"><path d="M0 -8L6.9 -4L6.9 4L0 8L-6.9 4L-6.9 -4Z" stroke="#7aa629" fill="none" stroke-width="2"></path></g><g transform="translate(1057 554)"><path d="M0 -10L8.7 -5L8.7 5L0 10L-8.7 5L-8.7 -5Z" stroke="#7aa629" fill="none" stroke-width="2"></path></g><g transform="translate(1213 122)"><path d="M0 -19L16.5 -9.5L16.5 9.5L0 19L-16.5 9.5L-16.5 -9.5Z" stroke="#7aa629" fill="none" stroke-width="2"></path></g><g transform="translate(516 473)"><path d="M0 -16L13.9 -8L13.9 8L0 16L-13.9 8L-13.9 -8Z" stroke="#7aa629" fill="none" stroke-width="2"></path></g><g transform="translate(1438 369)"><path d="M0 -12L10.4 -6L10.4 6L0 12L-10.4 6L-10.4 -6Z" stroke="#7aa629" fill="none" stroke-width="2"></path></g><g transform="translate(508 544)"><path d="M0 -16L13.9 -8L13.9 8L0 16L-13.9 8L-13.9 -8Z" stroke="#7aa629" fill="none" stroke-width="2"></path></g><g transform="translate(1771 233)"><path d="M0 -7L6.1 -3.5L6.1 3.5L0 7L-6.1 3.5L-6.1 -3.5Z" stroke="#7aa629" fill="none" stroke-width="2"></path></g><g transform="translate(1823 477)"><path d="M0 -14L12.1 -7L12.1 7L0 14L-12.1 7L-12.1 -7Z" stroke="#7aa629" fill="none" stroke-width="2"></path></g><g transform="translate(639 163)"><path d="M0 -21L18.2 -10.5L18.2 10.5L0 21L-18.2 10.5L-18.2 -10.5Z" stroke="#7aa629" fill="none" stroke-width="2"></path></g><g transform="translate(1567 668)"><path d="M0 -9L7.8 -4.5L7.8 4.5L0 9L-7.8 4.5L-7.8 -4.5Z" stroke="#7aa629" fill="none" stroke-width="2"></path></g><g transform="translate(157 631)"><path d="M0 -10L8.7 -5L8.7 5L0 10L-8.7 5L-8.7 -5Z" stroke="#7aa629" fill="none" stroke-width="2"></path></g><g transform="translate(1187 669)"><path d="M0 -17L14.7 -8.5L14.7 8.5L0 17L-14.7 8.5L-14.7 -8.5Z" stroke="#7aa629" fill="none" stroke-width="2"></path></g><g transform="translate(971 731)"><path d="M0 -12L10.4 -6L10.4 6L0 12L-10.4 6L-10.4 -6Z" stroke="#7aa629" fill="none" stroke-width="2"></path></g><g transform="translate(6 1023)"><path d="M0 -16L13.9 -8L13.9 8L0 16L-13.9 8L-13.9 -8Z" stroke="#7aa629" fill="none" stroke-width="2"></path></g><g transform="translate(1425 1004)"><path d="M0 -8L6.9 -4L6.9 4L0 8L-6.9 4L-6.9 -4Z" stroke="#7aa629" fill="none" stroke-width="2"></path></g><g transform="translate(474 794)"><path d="M0 -14L12.1 -7L12.1 7L0 14L-12.1 7L-12.1 -7Z" stroke="#7aa629" fill="none" stroke-width="2"></path></g><g transform="translate(1359 100)"><path d="M0 -15L13 -7.5L13 7.5L0 15L-13 7.5L-13 -7.5Z" stroke="#7aa629" fill="none" stroke-width="2"></path></g><g transform="translate(1051 1005)"><path d="M0 -21L18.2 -10.5L18.2 10.5L0 21L-18.2 10.5L-18.2 -10.5Z" stroke="#7aa629" fill="none" stroke-width="2"></path></g><g transform="translate(1479 710)"><path d="M0 -22L19.1 -11L19.1 11L0 22L-19.1 11L-19.1 -11Z" stroke="#7aa629" fill="none" stroke-width="2"></path></g><g transform="translate(1490 586)"><path d="M0 -17L14.7 -8.5L14.7 8.5L0 17L-14.7 8.5L-14.7 -8.5Z" stroke="#7aa629" fill="none" stroke-width="2"></path></g><g transform="translate(263 162)"><path d="M0 -15L13 -7.5L13 7.5L0 15L-13 7.5L-13 -7.5Z" stroke="#7aa629" fill="none" stroke-width="2"></path></g><g transform="translate(1796 964)"><path d="M0 -16L13.9 -8L13.9 8L0 16L-13.9 8L-13.9 -8Z" stroke="#7aa629" fill="none" stroke-width="2"></path></g><g transform="translate(1663 741)"><path d="M0 -9L7.8 -4.5L7.8 4.5L0 9L-7.8 4.5L-7.8 -4.5Z" stroke="#7aa629" fill="none" stroke-width="2"></path></g><g transform="translate(1105 1056)"><path d="M0 -23L19.9 -11.5L19.9 11.5L0 23L-19.9 11.5L-19.9 -11.5Z" stroke="#7aa629" fill="none" stroke-width="2"></path></g><g transform="translate(1379 803)"><path d="M0 -18L15.6 -9L15.6 9L0 18L-15.6 9L-15.6 -9Z" stroke="#7aa629" fill="none" stroke-width="2"></path></g><g transform="translate(1050 706)"><path d="M0 -20L17.3 -10L17.3 10L0 20L-17.3 10L-17.3 -10Z" stroke="#7aa629" fill="none" stroke-width="2"></path></g><g transform="translate(1767 834)"><path d="M0 -9L7.8 -4.5L7.8 4.5L0 9L-7.8 4.5L-7.8 -4.5Z" stroke="#7aa629" fill="none" stroke-width="2"></path></g><g transform="translate(596 666)"><path d="M0 -14L12.1 -7L12.1 7L0 14L-12.1 7L-12.1 -7Z" stroke="#7aa629" fill="none" stroke-width="2"></path></g><g transform="translate(802 1008)"><path d="M0 -12L10.4 -6L10.4 6L0 12L-10.4 6L-10.4 -6Z" stroke="#7aa629" fill="none" stroke-width="2"></path></g><g transform="translate(458 19)"><path d="M0 -6L5.2 -3L5.2 3L0 6L-5.2 3L-5.2 -3Z" stroke="#7aa629" fill="none" stroke-width="2"></path></g><g transform="translate(1670 999)"><path d="M0 -13L11.3 -6.5L11.3 6.5L0 13L-11.3 6.5L-11.3 -6.5Z" stroke="#7aa629" fill="none" stroke-width="2"></path></g><g transform="translate(447 642)"><path d="M0 -8L6.9 -4L6.9 4L0 8L-6.9 4L-6.9 -4Z" stroke="#7aa629" fill="none" stroke-width="2"></path></g><g transform="translate(1552 927)"><path d="M0 -11L9.5 -5.5L9.5 5.5L0 11L-9.5 5.5L-9.5 -5.5Z" stroke="#7aa629" fill="none" stroke-width="2"></path></g><g transform="translate(873 801)"><path d="M0 -21L18.2 -10.5L18.2 10.5L0 21L-18.2 10.5L-18.2 -10.5Z" stroke="#7aa629" fill="none" stroke-width="2"></path></g><g transform="translate(110 200)"><path d="M0 -8L6.9 -4L6.9 4L0 8L-6.9 4L-6.9 -4Z" stroke="#7aa629" fill="none" stroke-width="2"></path></g><g transform="translate(422 58)"><path d="M0 -24L20.8 -12L20.8 12L0 24L-20.8 12L-20.8 -12Z" stroke="#7aa629" fill="none" stroke-width="2"></path></g><g transform="translate(1618 1057)"><path d="M0 -22L19.1 -11L19.1 11L0 22L-19.1 11L-19.1 -11Z" stroke="#7aa629" fill="none" stroke-width="2"></path></g><g transform="translate(1158 925)"><path d="M0 -12L10.4 -6L10.4 6L0 12L-10.4 6L-10.4 -6Z" stroke="#7aa629" fill="none" stroke-width="2"></path></g><g transform="translate(710 451)"><path d="M0 -19L16.5 -9.5L16.5 9.5L0 19L-16.5 9.5L-16.5 -9.5Z" stroke="#7aa629" fill="none" stroke-width="2"></path></g><g transform="translate(1610 495)"><path d="M0 -21L18.2 -10.5L18.2 10.5L0 21L-18.2 10.5L-18.2 -10.5Z" stroke="#7aa629" fill="none" stroke-width="2"></path></g><g transform="translate(551 781)"><path d="M0 -21L18.2 -10.5L18.2 10.5L0 21L-18.2 10.5L-18.2 -10.5Z" stroke="#7aa629" fill="none" stroke-width="2"></path></g><g transform="translate(352 273)"><path d="M0 -19L16.5 -9.5L16.5 9.5L0 19L-16.5 9.5L-16.5 -9.5Z" stroke="#7aa629" fill="none" stroke-width="2"></path></g><g transform="translate(451 919)"><path d="M0 -14L12.1 -7L12.1 7L0 14L-12.1 7L-12.1 -7Z" stroke="#7aa629" fill="none" stroke-width="2"></path></g><g transform="translate(422 831)"><path d="M0 -21L18.2 -10.5L18.2 10.5L0 21L-18.2 10.5L-18.2 -10.5Z" stroke="#7aa629" fill="none" stroke-width="2"></path></g><g transform="translate(736 571)"><path d="M0 -20L17.3 -10L17.3 10L0 20L-17.3 10L-17.3 -10Z" stroke="#7aa629" fill="none" stroke-width="2"></path></g><g transform="translate(269 1072)"><path d="M0 -9L7.8 -4.5L7.8 4.5L0 9L-7.8 4.5L-7.8 -4.5Z" stroke="#7aa629" fill="none" stroke-width="2"></path></g><g transform="translate(1523 480)"><path d="M0 -6L5.2 -3L5.2 3L0 6L-5.2 3L-5.2 -3Z" stroke="#7aa629" fill="none" stroke-width="2"></path></g><g transform="translate(160 80)"><path d="M0 -9L7.8 -4.5L7.8 4.5L0 9L-7.8 4.5L-7.8 -4.5Z" stroke="#7aa629" fill="none" stroke-width="2"></path></g><g transform="translate(15 797)"><path d="M0 -20L17.3 -10L17.3 10L0 20L-17.3 10L-17.3 -10Z" stroke="#7aa629" fill="none" stroke-width="2"></path></g><g transform="translate(1883 115)"><path d="M0 -6L5.2 -3L5.2 3L0 6L-5.2 3L-5.2 -3Z" stroke="#7aa629" fill="none" stroke-width="2"></path></g><g transform="translate(1592 330)"><path d="M0 -14L12.1 -7L12.1 7L0 14L-12.1 7L-12.1 -7Z" stroke="#7aa629" fill="none" stroke-width="2"></path></g><g transform="translate(1777 49)"><path d="M0 -24L20.8 -12L20.8 12L0 24L-20.8 12L-20.8 -12Z" stroke="#7aa629" fill="none" stroke-width="2"></path></g><g transform="translate(155 1076)"><path d="M0 -16L13.9 -8L13.9 8L0 16L-13.9 8L-13.9 -8Z" stroke="#7aa629" fill="none" stroke-width="2"></path></g><g transform="translate(1605 727)"><path d="M0 -21L18.2 -10.5L18.2 10.5L0 21L-18.2 10.5L-18.2 -10.5Z" stroke="#7aa629" fill="none" stroke-width="2"></path></g><g transform="translate(867 11)"><path d="M0 -9L7.8 -4.5L7.8 4.5L0 9L-7.8 4.5L-7.8 -4.5Z" stroke="#7aa629" fill="none" stroke-width="2"></path></g><g transform="translate(971 1041)"><path d="M0 -7L6.1 -3.5L6.1 3.5L0 7L-6.1 3.5L-6.1 -3.5Z" stroke="#7aa629" fill="none" stroke-width="2"></path></g><g transform="translate(411 771)"><path d="M0 -12L10.4 -6L10.4 6L0 12L-10.4 6L-10.4 -6Z" stroke="#7aa629" fill="none" stroke-width="2"></path></g><g transform="translate(615 581)"><path d="M0 -19L16.5 -9.5L16.5 9.5L0 19L-16.5 9.5L-16.5 -9.5Z" stroke="#7aa629" fill="none" stroke-width="2"></path></g><g transform="translate(38 204)"><path d="M0 -17L14.7 -8.5L14.7 8.5L0 17L-14.7 8.5L-14.7 -8.5Z" stroke="#7aa629" fill="none" stroke-width="2"></path></g><g transform="translate(1694 930)"><path d="M0 -12L10.4 -6L10.4 6L0 12L-10.4 6L-10.4 -6Z" stroke="#7aa629" fill="none" stroke-width="2"></path></g><g transform="translate(1604 96)"><path d="M0 -19L16.5 -9.5L16.5 9.5L0 19L-16.5 9.5L-16.5 -9.5Z" stroke="#7aa629" fill="none" stroke-width="2"></path></g><g transform="translate(1377 570)"><path d="M0 -15L13 -7.5L13 7.5L0 15L-13 7.5L-13 -7.5Z" stroke="#7aa629" fill="none" stroke-width="2"></path></g><g transform="translate(1779 1075)"><path d="M0 -7L6.1 -3.5L6.1 3.5L0 7L-6.1 3.5L-6.1 -3.5Z" stroke="#7aa629" fill="none" stroke-width="2"></path></g><g transform="translate(847 298)"><path d="M0 -18L15.6 -9L15.6 9L0 18L-15.6 9L-15.6 -9Z" stroke="#7aa629" fill="none" stroke-width="2"></path></g><g transform="translate(1011 44)"><path d="M0 -24L20.8 -12L20.8 12L0 24L-20.8 12L-20.8 -12Z" stroke="#7aa629" fill="none" stroke-width="2"></path></g><g transform="translate(1800 319)"><path d="M0 -20L17.3 -10L17.3 10L0 20L-17.3 10L-17.3 -10Z" stroke="#7aa629" fill="none" stroke-width="2"></path></g><g transform="translate(1117 885)"><path d="M0 -9L7.8 -4.5L7.8 4.5L0 9L-7.8 4.5L-7.8 -4.5Z" stroke="#7aa629" fill="none" stroke-width="2"></path></g><g transform="translate(1257 307)"><path d="M0 -6L5.2 -3L5.2 3L0 6L-5.2 3L-5.2 -3Z" stroke="#7aa629" fill="none" stroke-width="2"></path></g><g transform="translate(863 853)"><path d="M0 -12L10.4 -6L10.4 6L0 12L-10.4 6L-10.4 -6Z" stroke="#7aa629" fill="none" stroke-width="2"></path></g><g transform="translate(1871 210)"><path d="M0 -6L5.2 -3L5.2 3L0 6L-5.2 3L-5.2 -3Z" stroke="#7aa629" fill="none" stroke-width="2"></path></g><g transform="translate(558 95)"><path d="M0 -19L16.5 -9.5L16.5 9.5L0 19L-16.5 9.5L-16.5 -9.5Z" stroke="#7aa629" fill="none" stroke-width="2"></path></g><g transform="translate(1648 68)"><path d="M0 -22L19.1 -11L19.1 11L0 22L-19.1 11L-19.1 -11Z" stroke="#7aa629" fill="none" stroke-width="2"></path></g><g transform="translate(1512 13)"><path d="M0 -20L17.3 -10L17.3 10L0 20L-17.3 10L-17.3 -10Z" stroke="#7aa629" fill="none" stroke-width="2"></path></g><g transform="translate(699 876)"><path d="M0 -20L17.3 -10L17.3 10L0 20L-17.3 10L-17.3 -10Z" stroke="#7aa629" fill="none" stroke-width="2"></path></g><g transform="translate(934 960)"><path d="M0 -12L10.4 -6L10.4 6L0 12L-10.4 6L-10.4 -6Z" stroke="#7aa629" fill="none" stroke-width="2"></path></g><g transform="translate(1104 762)"><path d="M0 -6L5.2 -3L5.2 3L0 6L-5.2 3L-5.2 -3Z" stroke="#7aa629" fill="none" stroke-width="2"></path></g><g transform="translate(1724 990)"><path d="M0 -22L19.1 -11L19.1 11L0 22L-19.1 11L-19.1 -11Z" stroke="#7aa629" fill="none" stroke-width="2"></path></g><g transform="translate(995 890)"><path d="M0 -19L16.5 -9.5L16.5 9.5L0 19L-16.5 9.5L-16.5 -9.5Z" stroke="#7aa629" fill="none" stroke-width="2"></path></g><g transform="translate(309 643)"><path d="M0 -14L12.1 -7L12.1 7L0 14L-12.1 7L-12.1 -7Z" stroke="#7aa629" fill="none" stroke-width="2"></path></g><g transform="translate(139 790)"><path d="M0 -23L19.9 -11.5L19.9 11.5L0 23L-19.9 11.5L-19.9 -11.5Z" stroke="#7aa629" fill="none" stroke-width="2"></path></g><g transform="translate(965 292)"><path d="M0 -17L14.7 -8.5L14.7 8.5L0 17L-14.7 8.5L-14.7 -8.5Z" stroke="#7aa629" fill="none" stroke-width="2"></path></g><g transform="translate(1713 1047)"><path d="M0 -21L18.2 -10.5L18.2 10.5L0 21L-18.2 10.5L-18.2 -10.5Z" stroke="#7aa629" fill="none" stroke-width="2"></path></g><g transform="translate(1325 1032)"><path d="M0 -23L19.9 -11.5L19.9 11.5L0 23L-19.9 11.5L-19.9 -11.5Z" stroke="#7aa629" fill="none" stroke-width="2"></path></g><g transform="translate(90 1056)"><path d="M0 -7L6.1 -3.5L6.1 3.5L0 7L-6.1 3.5L-6.1 -3.5Z" stroke="#7aa629" fill="none" stroke-width="2"></path></g><g transform="translate(218 257)"><path d="M0 -12L10.4 -6L10.4 6L0 12L-10.4 6L-10.4 -6Z" stroke="#7aa629" fill="none" stroke-width="2"></path></g><g transform="translate(385 178)"><path d="M0 -17L14.7 -8.5L14.7 8.5L0 17L-14.7 8.5L-14.7 -8.5Z" stroke="#7aa629" fill="none" stroke-width="2"></path></g><g transform="translate(777 139)"><path d="M0 -15L13 -7.5L13 7.5L0 15L-13 7.5L-13 -7.5Z" stroke="#7aa629" fill="none" stroke-width="2"></path></g><g transform="translate(530 921)"><path d="M0 -9L7.8 -4.5L7.8 4.5L0 9L-7.8 4.5L-7.8 -4.5Z" stroke="#7aa629" fill="none" stroke-width="2"></path></g><g transform="translate(1428 741)"><path d="M0 -24L20.8 -12L20.8 12L0 24L-20.8 12L-20.8 -12Z" stroke="#7aa629" fill="none" stroke-width="2"></path></g><g transform="translate(67 787)"><path d="M0 -15L13 -7.5L13 7.5L0 15L-13 7.5L-13 -7.5Z" stroke="#7aa629" fill="none" stroke-width="2"></path></g><g transform="translate(537 973)"><path d="M0 -18L15.6 -9L15.6 9L0 18L-15.6 9L-15.6 -9Z" stroke="#7aa629" fill="none" stroke-width="2"></path></g><g transform="translate(473 285)"><path d="M0 -16L13.9 -8L13.9 8L0 16L-13.9 8L-13.9 -8Z" stroke="#7aa629" fill="none" stroke-width="2"></path></g><g transform="translate(1139 24)"><path d="M0 -13L11.3 -6.5L11.3 6.5L0 13L-11.3 6.5L-11.3 -6.5Z" stroke="#7aa629" fill="none" stroke-width="2"></path></g><g transform="translate(1690 813)"><path d="M0 -6L5.2 -3L5.2 3L0 6L-5.2 3L-5.2 -3Z" stroke="#7aa629" fill="none" stroke-width="2"></path></g><g transform="translate(1050 101)"><path d="M0 -8L6.9 -4L6.9 4L0 8L-6.9 4L-6.9 -4Z" stroke="#7aa629" fill="none" stroke-width="2"></path></g><g transform="translate(1387 486)"><path d="M0 -22L19.1 -11L19.1 11L0 22L-19.1 11L-19.1 -11Z" stroke="#7aa629" fill="none" stroke-width="2"></path></g><g transform="translate(1578 22)"><path d="M0 -10L8.7 -5L8.7 5L0 10L-8.7 5L-8.7 -5Z" stroke="#7aa629" fill="none" stroke-width="2"></path></g><g transform="translate(1917 543)"><path d="M0 -10L8.7 -5L8.7 5L0 10L-8.7 5L-8.7 -5Z" stroke="#7aa629" fill="none" stroke-width="2"></path></g><g transform="translate(1346 884)"><path d="M0 -16L13.9 -8L13.9 8L0 16L-13.9 8L-13.9 -8Z" stroke="#7aa629" fill="none" stroke-width="2"></path></g><g transform="translate(223 572)"><path d="M0 -20L17.3 -10L17.3 10L0 20L-17.3 10L-17.3 -10Z" stroke="#7aa629" fill="none" stroke-width="2"></path></g><g transform="translate(1785 672)"><path d="M0 -18L15.6 -9L15.6 9L0 18L-15.6 9L-15.6 -9Z" stroke="#7aa629" fill="none" stroke-width="2"></path></g><g transform="translate(1260 591)"><path d="M0 -7L6.1 -3.5L6.1 3.5L0 7L-6.1 3.5L-6.1 -3.5Z" stroke="#7aa629" fill="none" stroke-width="2"></path></g><g transform="translate(1260 2)"><path d="M0 -11L9.5 -5.5L9.5 5.5L0 11L-9.5 5.5L-9.5 -5.5Z" stroke="#7aa629" fill="none" stroke-width="2"></path></g><g transform="translate(1516 847)"><path d="M0 -22L19.1 -11L19.1 11L0 22L-19.1 11L-19.1 -11Z" stroke="#7aa629" fill="none" stroke-width="2"></path></g><g transform="translate(345 73)"><path d="M0 -22L19.1 -11L19.1 11L0 22L-19.1 11L-19.1 -11Z" stroke="#7aa629" fill="none" stroke-width="2"></path></g><g transform="translate(1167 861)"><path d="M0 -11L9.5 -5.5L9.5 5.5L0 11L-9.5 5.5L-9.5 -5.5Z" stroke="#7aa629" fill="none" stroke-width="2"></path></g><g transform="translate(362 749)"><path d="M0 -23L19.9 -11.5L19.9 11.5L0 23L-19.9 11.5L-19.9 -11.5Z" stroke="#7aa629" fill="none" stroke-width="2"></path></g><g transform="translate(573 730)"><path d="M0 -16L13.9 -8L13.9 8L0 16L-13.9 8L-13.9 -8Z" stroke="#7aa629" fill="none" stroke-width="2"></path></g><g transform="translate(992 783)"><path d="M0 -7L6.1 -3.5L6.1 3.5L0 7L-6.1 3.5L-6.1 -3.5Z" stroke="#7aa629" fill="none" stroke-width="2"></path></g><g transform="translate(1661 402)"><path d="M0 -9L7.8 -4.5L7.8 4.5L0 9L-7.8 4.5L-7.8 -4.5Z" stroke="#7aa629" fill="none" stroke-width="2"></path></g><g transform="translate(632 426)"><path d="M0 -22L19.1 -11L19.1 11L0 22L-19.1 11L-19.1 -11Z" stroke="#7aa629" fill="none" stroke-width="2"></path></g><g transform="translate(1672 615)"><path d="M0 -19L16.5 -9.5L16.5 9.5L0 19L-16.5 9.5L-16.5 -9.5Z" stroke="#7aa629" fill="none" stroke-width="2"></path></g><g transform="translate(1892 1020)"><path d="M0 -9L7.8 -4.5L7.8 4.5L0 9L-7.8 4.5L-7.8 -4.5Z" stroke="#7aa629" fill="none" stroke-width="2"></path></g><g transform="translate(1325 5)"><path d="M0 -13L11.3 -6.5L11.3 6.5L0 13L-11.3 6.5L-11.3 -6.5Z" stroke="#7aa629" fill="none" stroke-width="2"></path></g><g transform="translate(1274 1073)"><path d="M0 -21L18.2 -10.5L18.2 10.5L0 21L-18.2 10.5L-18.2 -10.5Z" stroke="#7aa629" fill="none" stroke-width="2"></path></g><g transform="translate(903 628)"><path d="M0 -9L7.8 -4.5L7.8 4.5L0 9L-7.8 4.5L-7.8 -4.5Z" stroke="#7aa629" fill="none" stroke-width="2"></path></g><g transform="translate(1063 38)"><path d="M0 -13L11.3 -6.5L11.3 6.5L0 13L-11.3 6.5L-11.3 -6.5Z" stroke="#7aa629" fill="none" stroke-width="2"></path></g><g transform="translate(848 955)"><path d="M0 -14L12.1 -7L12.1 7L0 14L-12.1 7L-12.1 -7Z" stroke="#7aa629" fill="none" stroke-width="2"></path></g><g transform="translate(1552 576)"><path d="M0 -6L5.2 -3L5.2 3L0 6L-5.2 3L-5.2 -3Z" stroke="#7aa629" fill="none" stroke-width="2"></path></g><g transform="translate(1626 937)"><path d="M0 -13L11.3 -6.5L11.3 6.5L0 13L-11.3 6.5L-11.3 -6.5Z" stroke="#7aa629" fill="none" stroke-width="2"></path></g><g transform="translate(260 687)"><path d="M0 -13L11.3 -6.5L11.3 6.5L0 13L-11.3 6.5L-11.3 -6.5Z" stroke="#7aa629" fill="none" stroke-width="2"></path></g><g transform="translate(940 836)"><path d="M0 -9L7.8 -4.5L7.8 4.5L0 9L-7.8 4.5L-7.8 -4.5Z" stroke="#7aa629" fill="none" stroke-width="2"></path></g><g transform="translate(462 111)"><path d="M0 -19L16.5 -9.5L16.5 9.5L0 19L-16.5 9.5L-16.5 -9.5Z" stroke="#7aa629" fill="none" stroke-width="2"></path></g><g transform="translate(618 351)"><path d="M0 -21L18.2 -10.5L18.2 10.5L0 21L-18.2 10.5L-18.2 -10.5Z" stroke="#7aa629" fill="none" stroke-width="2"></path></g><g transform="translate(1665 563)"><path d="M0 -9L7.8 -4.5L7.8 4.5L0 9L-7.8 4.5L-7.8 -4.5Z" stroke="#7aa629" fill="none" stroke-width="2"></path></g><g transform="translate(703 676)"><path d="M0 -7L6.1 -3.5L6.1 3.5L0 7L-6.1 3.5L-6.1 -3.5Z" stroke="#7aa629" fill="none" stroke-width="2"></path></g><g transform="translate(93 572)"><path d="M0 -8L6.9 -4L6.9 4L0 8L-6.9 4L-6.9 -4Z" stroke="#7aa629" fill="none" stroke-width="2"></path></g><g transform="translate(1205 189)"><path d="M0 -14L12.1 -7L12.1 7L0 14L-12.1 7L-12.1 -7Z" stroke="#7aa629" fill="none" stroke-width="2"></path></g><g transform="translate(982 118)"><path d="M0 -19L16.5 -9.5L16.5 9.5L0 19L-16.5 9.5L-16.5 -9.5Z" stroke="#7aa629" fill="none" stroke-width="2"></path></g><g transform="translate(416 1056)"><path d="M0 -21L18.2 -10.5L18.2 10.5L0 21L-18.2 10.5L-18.2 -10.5Z" stroke="#7aa629" fill="none" stroke-width="2"></path></g><g transform="translate(1845 526)"><path d="M0 -13L11.3 -6.5L11.3 6.5L0 13L-11.3 6.5L-11.3 -6.5Z" stroke="#7aa629" fill="none" stroke-width="2"></path></g><g transform="translate(485 431)"><path d="M0 -9L7.8 -4.5L7.8 4.5L0 9L-7.8 4.5L-7.8 -4.5Z" stroke="#7aa629" fill="none" stroke-width="2"></path></g><g transform="translate(632 980)"><path d="M0 -15L13 -7.5L13 7.5L0 15L-13 7.5L-13 -7.5Z" stroke="#7aa629" fill="none" stroke-width="2"></path></g><g transform="translate(927 111)"><path d="M0 -11L9.5 -5.5L9.5 5.5L0 11L-9.5 5.5L-9.5 -5.5Z" stroke="#7aa629" fill="none" stroke-width="2"></path></g><g transform="translate(1053 913)"><path d="M0 -18L15.6 -9L15.6 9L0 18L-15.6 9L-15.6 -9Z" stroke="#7aa629" fill="none" stroke-width="2"></path></g><g transform="translate(1665 252)"><path d="M0 -6L5.2 -3L5.2 3L0 6L-5.2 3L-5.2 -3Z" stroke="#7aa629" fill="none" stroke-width="2"></path></g><g transform="translate(1469 499)"><path d="M0 -22L19.1 -11L19.1 11L0 22L-19.1 11L-19.1 -11Z" stroke="#7aa629" fill="none" stroke-width="2"></path></g><g transform="translate(1836 690)"><path d="M0 -8L6.9 -4L6.9 4L0 8L-6.9 4L-6.9 -4Z" stroke="#7aa629" fill="none" stroke-width="2"></path></g><g transform="translate(583 939)"><path d="M0 -13L11.3 -6.5L11.3 6.5L0 13L-11.3 6.5L-11.3 -6.5Z" stroke="#7aa629" fill="none" stroke-width="2"></path></g><g transform="translate(1460 842)"><path d="M0 -20L17.3 -10L17.3 10L0 20L-17.3 10L-17.3 -10Z" stroke="#7aa629" fill="none" stroke-width="2"></path></g><g transform="translate(1453 150)"><path d="M0 -17L14.7 -8.5L14.7 8.5L0 17L-14.7 8.5L-14.7 -8.5Z" stroke="#7aa629" fill="none" stroke-width="2"></path></g><g transform="translate(399 991)"><path d="M0 -15L13 -7.5L13 7.5L0 15L-13 7.5L-13 -7.5Z" stroke="#7aa629" fill="none" stroke-width="2"></path></g><g transform="translate(298 450)"><path d="M0 -18L15.6 -9L15.6 9L0 18L-15.6 9L-15.6 -9Z" stroke="#7aa629" fill="none" stroke-width="2"></path></g><g transform="translate(13 650)"><path d="M0 -20L17.3 -10L17.3 10L0 20L-17.3 10L-17.3 -10Z" stroke="#7aa629" fill="none" stroke-width="2"></path></g><g transform="translate(1278 441)"><path d="M0 -17L14.7 -8.5L14.7 8.5L0 17L-14.7 8.5L-14.7 -8.5Z" stroke="#7aa629" fill="none" stroke-width="2"></path></g><g transform="translate(1195 784)"><path d="M0 -10L8.7 -5L8.7 5L0 10L-8.7 5L-8.7 -5Z" stroke="#7aa629" fill="none" stroke-width="2"></path></g><g transform="translate(80 400)"><path d="M0 -22L19.1 -11L19.1 11L0 22L-19.1 11L-19.1 -11Z" stroke="#7aa629" fill="none" stroke-width="2"></path></g><g transform="translate(799 233)"><path d="M0 -10L8.7 -5L8.7 5L0 10L-8.7 5L-8.7 -5Z" stroke="#7aa629" fill="none" stroke-width="2"></path></g><g transform="translate(1898 682)"><path d="M0 -7L6.1 -3.5L6.1 3.5L0 7L-6.1 3.5L-6.1 -3.5Z" stroke="#7aa629" fill="none" stroke-width="2"></path></g><g transform="translate(640 906)"><path d="M0 -6L5.2 -3L5.2 3L0 6L-5.2 3L-5.2 -3Z" stroke="#7aa629" fill="none" stroke-width="2"></path></g><g transform="translate(762 491)"><path d="M0 -9L7.8 -4.5L7.8 4.5L0 9L-7.8 4.5L-7.8 -4.5Z" stroke="#7aa629" fill="none" stroke-width="2"></path></g><g transform="translate(1284 156)"><path d="M0 -14L12.1 -7L12.1 7L0 14L-12.1 7L-12.1 -7Z" stroke="#7aa629" fill="none" stroke-width="2"></path></g><g transform="translate(1545 725)"><path d="M0 -13L11.3 -6.5L11.3 6.5L0 13L-11.3 6.5L-11.3 -6.5Z" stroke="#7aa629" fill="none" stroke-width="2"></path></g><g transform="translate(90 658)"><path d="M0 -16L13.9 -8L13.9 8L0 16L-13.9 8L-13.9 -8Z" stroke="#7aa629" fill="none" stroke-width="2"></path></g><g transform="translate(688 297)"><path d="M0 -18L15.6 -9L15.6 9L0 18L-15.6 9L-15.6 -9Z" stroke="#7aa629" fill="none" stroke-width="2"></path></g><g transform="translate(751 788)"><path d="M0 -21L18.2 -10.5L18.2 10.5L0 21L-18.2 10.5L-18.2 -10.5Z" stroke="#7aa629" fill="none" stroke-width="2"></path></g><g transform="translate(885 906)"><path d="M0 -17L14.7 -8.5L14.7 8.5L0 17L-14.7 8.5L-14.7 -8.5Z" stroke="#7aa629" fill="none" stroke-width="2"></path></g><g transform="translate(258 306)"><path d="M0 -16L13.9 -8L13.9 8L0 16L-13.9 8L-13.9 -8Z" stroke="#7aa629" fill="none" stroke-width="2"></path></g><g transform="translate(1204 614)"><path d="M0 -23L19.9 -11.5L19.9 11.5L0 23L-19.9 11.5L-19.9 -11.5Z" stroke="#7aa629" fill="none" stroke-width="2"></path></g><g transform="translate(1653 340)"><path d="M0 -13L11.3 -6.5L11.3 6.5L0 13L-11.3 6.5L-11.3 -6.5Z" stroke="#7aa629" fill="none" stroke-width="2"></path></g><g transform="translate(403 884)"><path d="M0 -7L6.1 -3.5L6.1 3.5L0 7L-6.1 3.5L-6.1 -3.5Z" stroke="#7aa629" fill="none" stroke-width="2"></path></g><g transform="translate(1849 161)"><path d="M0 -18L15.6 -9L15.6 9L0 18L-15.6 9L-15.6 -9Z" stroke="#7aa629" fill="none" stroke-width="2"></path></g><g transform="translate(12 493)"><path d="M0 -16L13.9 -8L13.9 8L0 16L-13.9 8L-13.9 -8Z" stroke="#7aa629" fill="none" stroke-width="2"></path></g><g transform="translate(1818 814)"><path d="M0 -17L14.7 -8.5L14.7 8.5L0 17L-14.7 8.5L-14.7 -8.5Z" stroke="#7aa629" fill="none" stroke-width="2"></path></g><g transform="translate(1464 649)"><path d="M0 -14L12.1 -7L12.1 7L0 14L-12.1 7L-12.1 -7Z" stroke="#7aa629" fill="none" stroke-width="2"></path></g><g transform="translate(1462 300)"><path d="M0 -11L9.5 -5.5L9.5 5.5L0 11L-9.5 5.5L-9.5 -5.5Z" stroke="#7aa629" fill="none" stroke-width="2"></path></g><g transform="translate(1392 290)"><path d="M0 -6L5.2 -3L5.2 3L0 6L-5.2 3L-5.2 -3Z" stroke="#7aa629" fill="none" stroke-width="2"></path></g><g transform="translate(1721 700)"><path d="M0 -13L11.3 -6.5L11.3 6.5L0 13L-11.3 6.5L-11.3 -6.5Z" stroke="#7aa629" fill="none" stroke-width="2"></path></g><g transform="translate(1230 930)"><path d="M0 -9L7.8 -4.5L7.8 4.5L0 9L-7.8 4.5L-7.8 -4.5Z" stroke="#7aa629" fill="none" stroke-width="2"></path></g><g transform="translate(517 351)"><path d="M0 -20L17.3 -10L17.3 10L0 20L-17.3 10L-17.3 -10Z" stroke="#7aa629" fill="none" stroke-width="2"></path></g><g transform="translate(351 686)"><path d="M0 -9L7.8 -4.5L7.8 4.5L0 9L-7.8 4.5L-7.8 -4.5Z" stroke="#7aa629" fill="none" stroke-width="2"></path></g><g transform="translate(582 261)"><path d="M0 -6L5.2 -3L5.2 3L0 6L-5.2 3L-5.2 -3Z" stroke="#7aa629" fill="none" stroke-width="2"></path></g><g transform="translate(1478 1054)"><path d="M0 -8L6.9 -4L6.9 4L0 8L-6.9 4L-6.9 -4Z" stroke="#7aa629" fill="none" stroke-width="2"></path></g><g transform="translate(1557 413)"><path d="M0 -18L15.6 -9L15.6 9L0 18L-15.6 9L-15.6 -9Z" stroke="#7aa629" fill="none" stroke-width="2"></path></g><g transform="translate(1192 74)"><path d="M0 -10L8.7 -5L8.7 5L0 10L-8.7 5L-8.7 -5Z" stroke="#7aa629" fill="none" stroke-width="2"></path></g><g transform="translate(936 247)"><path d="M0 -11L9.5 -5.5L9.5 5.5L0 11L-9.5 5.5L-9.5 -5.5Z" stroke="#7aa629" fill="none" stroke-width="2"></path></g><g transform="translate(1182 729)"><path d="M0 -11L9.5 -5.5L9.5 5.5L0 11L-9.5 5.5L-9.5 -5.5Z" stroke="#7aa629" fill="none" stroke-width="2"></path></g><g transform="translate(1037 757)"><path d="M0 -6L5.2 -3L5.2 3L0 6L-5.2 3L-5.2 -3Z" stroke="#7aa629" fill="none" stroke-width="2"></path></g><g transform="translate(692 40)"><path d="M0 -22L19.1 -11L19.1 11L0 22L-19.1 11L-19.1 -11Z" stroke="#7aa629" fill="none" stroke-width="2"></path></g><g transform="translate(595 21)"><path d="M0 -18L15.6 -9L15.6 9L0 18L-15.6 9L-15.6 -9Z" stroke="#7aa629" fill="none" stroke-width="2"></path></g><g transform="translate(1865 280)"><path d="M0 -9L7.8 -4.5L7.8 4.5L0 9L-7.8 4.5L-7.8 -4.5Z" stroke="#7aa629" fill="none" stroke-width="2"></path></g><g transform="translate(1197 250)"><path d="M0 -13L11.3 -6.5L11.3 6.5L0 13L-11.3 6.5L-11.3 -6.5Z" stroke="#7aa629" fill="none" stroke-width="2"></path></g><g transform="translate(1902 604)"><path d="M0 -16L13.9 -8L13.9 8L0 16L-13.9 8L-13.9 -8Z" stroke="#7aa629" fill="none" stroke-width="2"></path></g><g transform="translate(1900 816)"><path d="M0 -22L19.1 -11L19.1 11L0 22L-19.1 11L-19.1 -11Z" stroke="#7aa629" fill="none" stroke-width="2"></path></g><g transform="translate(245 926)"><path d="M0 -14L12.1 -7L12.1 7L0 14L-12.1 7L-12.1 -7Z" stroke="#7aa629" fill="none" stroke-width="2"></path></g><g transform="translate(219 41)"><path d="M0 -21L18.2 -10.5L18.2 10.5L0 21L-18.2 10.5L-18.2 -10.5Z" stroke="#7aa629" fill="none" stroke-width="2"></path></g><g transform="translate(308 590)"><path d="M0 -12L10.4 -6L10.4 6L0 12L-10.4 6L-10.4 -6Z" stroke="#7aa629" fill="none" stroke-width="2"></path></g><g transform="translate(1693 163)"><path d="M0 -23L19.9 -11.5L19.9 11.5L0 23L-19.9 11.5L-19.9 -11.5Z" stroke="#7aa629" fill="none" stroke-width="2"></path></g><g transform="translate(512 620)"><path d="M0 -11L9.5 -5.5L9.5 5.5L0 11L-9.5 5.5L-9.5 -5.5Z" stroke="#7aa629" fill="none" stroke-width="2"></path></g><g transform="translate(463 188)"><path d="M0 -15L13 -7.5L13 7.5L0 15L-13 7.5L-13 -7.5Z" stroke="#7aa629" fill="none" stroke-width="2"></path></g><g transform="translate(1364 981)"><path d="M0 -18L15.6 -9L15.6 9L0 18L-15.6 9L-15.6 -9Z" stroke="#7aa629" fill="none" stroke-width="2"></path></g><g transform="translate(1705 367)"><path d="M0 -13L11.3 -6.5L11.3 6.5L0 13L-11.3 6.5L-11.3 -6.5Z" stroke="#7aa629" fill="none" stroke-width="2"></path></g><g transform="translate(23 322)"><path d="M0 -22L19.1 -11L19.1 11L0 22L-19.1 11L-19.1 -11Z" stroke="#7aa629" fill="none" stroke-width="2"></path></g><g transform="translate(369 579)"><path d="M0 -15L13 -7.5L13 7.5L0 15L-13 7.5L-13 -7.5Z" stroke="#7aa629" fill="none" stroke-width="2"></path></g><g transform="translate(1574 224)"><path d="M0 -9L7.8 -4.5L7.8 4.5L0 9L-7.8 4.5L-7.8 -4.5Z" stroke="#7aa629" fill="none" stroke-width="2"></path></g><g transform="translate(676 225)"><path d="M0 -9L7.8 -4.5L7.8 4.5L0 9L-7.8 4.5L-7.8 -4.5Z" stroke="#7aa629" fill="none" stroke-width="2"></path></g><g transform="translate(1266 79)"><path d="M0 -8L6.9 -4L6.9 4L0 8L-6.9 4L-6.9 -4Z" stroke="#7aa629" fill="none" stroke-width="2"></path></g><g transform="translate(1079 626)"><path d="M0 -22L19.1 -11L19.1 11L0 22L-19.1 11L-19.1 -11Z" stroke="#7aa629" fill="none" stroke-width="2"></path></g><g transform="translate(873 523)"><path d="M0 -7L6.1 -3.5L6.1 3.5L0 7L-6.1 3.5L-6.1 -3.5Z" stroke="#7aa629" fill="none" stroke-width="2"></path></g><g transform="translate(156 730)"><path d="M0 -16L13.9 -8L13.9 8L0 16L-13.9 8L-13.9 -8Z" stroke="#7aa629" fill="none" stroke-width="2"></path></g><g transform="translate(928 703)"><path d="M0 -14L12.1 -7L12.1 7L0 14L-12.1 7L-12.1 -7Z" stroke="#7aa629" fill="none" stroke-width="2"></path></g><g transform="translate(1771 447)"><path d="M0 -19L16.5 -9.5L16.5 9.5L0 19L-16.5 9.5L-16.5 -9.5Z" stroke="#7aa629" fill="none" stroke-width="2"></path></g><g transform="translate(1050 195)"><path d="M0 -10L8.7 -5L8.7 5L0 10L-8.7 5L-8.7 -5Z" stroke="#7aa629" fill="none" stroke-width="2"></path></g><g transform="translate(215 1066)"><path d="M0 -6L5.2 -3L5.2 3L0 6L-5.2 3L-5.2 -3Z" stroke="#7aa629" fill="none" stroke-width="2"></path></g><g transform="translate(1290 537)"><path d="M0 -10L8.7 -5L8.7 5L0 10L-8.7 5L-8.7 -5Z" stroke="#7aa629" fill="none" stroke-width="2"></path></g><g transform="translate(1491 100)"><path d="M0 -24L20.8 -12L20.8 12L0 24L-20.8 12L-20.8 -12Z" stroke="#7aa629" fill="none" stroke-width="2"></path></g><g transform="translate(1491 364)"><path d="M0 -9L7.8 -4.5L7.8 4.5L0 9L-7.8 4.5L-7.8 -4.5Z" stroke="#7aa629" fill="none" stroke-width="2"></path></g><g transform="translate(304 335)"><path d="M0 -7L6.1 -3.5L6.1 3.5L0 7L-6.1 3.5L-6.1 -3.5Z" stroke="#7aa629" fill="none" stroke-width="2"></path></g><g transform="translate(1831 35)"><path d="M0 -11L9.5 -5.5L9.5 5.5L0 11L-9.5 5.5L-9.5 -5.5Z" stroke="#7aa629" fill="none" stroke-width="2"></path></g><g transform="translate(861 359)"><path d="M0 -8L6.9 -4L6.9 4L0 8L-6.9 4L-6.9 -4Z" stroke="#7aa629" fill="none" stroke-width="2"></path></g><g transform="translate(925 783)"><path d="M0 -6L5.2 -3L5.2 3L0 6L-5.2 3L-5.2 -3Z" stroke="#7aa629" fill="none" stroke-width="2"></path></g><g transform="translate(220 790)"><path d="M0 -9L7.8 -4.5L7.8 4.5L0 9L-7.8 4.5L-7.8 -4.5Z" stroke="#7aa629" fill="none" stroke-width="2"></path></g><g transform="translate(970 347)"><path d="M0 -6L5.2 -3L5.2 3L0 6L-5.2 3L-5.2 -3Z" stroke="#7aa629" fill="none" stroke-width="2"></path></g><g transform="translate(1494 990)"><path d="M0 -24L20.8 -12L20.8 12L0 24L-20.8 12L-20.8 -12Z" stroke="#7aa629" fill="none" stroke-width="2"></path></g><g transform="translate(951 470)"><path d="M0 -10L8.7 -5L8.7 5L0 10L-8.7 5L-8.7 -5Z" stroke="#7aa629" fill="none" stroke-width="2"></path></g><g transform="translate(1091 963)"><path d="M0 -14L12.1 -7L12.1 7L0 14L-12.1 7L-12.1 -7Z" stroke="#7aa629" fill="none" stroke-width="2"></path></g><g transform="translate(818 1075)"><path d="M0 -7L6.1 -3.5L6.1 3.5L0 7L-6.1 3.5L-6.1 -3.5Z" stroke="#7aa629" fill="none" stroke-width="2"></path></g><g transform="translate(1471 775)"><path d="M0 -22L19.1 -11L19.1 11L0 22L-19.1 11L-19.1 -11Z" stroke="#7aa629" fill="none" stroke-width="2"></path></g><g transform="translate(8 735)"><path d="M0 -12L10.4 -6L10.4 6L0 12L-10.4 6L-10.4 -6Z" stroke="#7aa629" fill="none" stroke-width="2"></path></g><g transform="translate(1838 1011)"><path d="M0 -24L20.8 -12L20.8 12L0 24L-20.8 12L-20.8 -12Z" stroke="#7aa629" fill="none" stroke-width="2"></path></g><g transform="translate(673 502)"><path d="M0 -8L6.9 -4L6.9 4L0 8L-6.9 4L-6.9 -4Z" stroke="#7aa629" fill="none" stroke-width="2"></path></g><g transform="translate(1740 607)"><path d="M0 -8L6.9 -4L6.9 4L0 8L-6.9 4L-6.9 -4Z" stroke="#7aa629" fill="none" stroke-width="2"></path></g><g transform="translate(917 1075)"><path d="M0 -9L7.8 -4.5L7.8 4.5L0 9L-7.8 4.5L-7.8 -4.5Z" stroke="#7aa629" fill="none" stroke-width="2"></path></g><g transform="translate(304 988)"><path d="M0 -23L19.9 -11.5L19.9 11.5L0 23L-19.9 11.5L-19.9 -11.5Z" stroke="#7aa629" fill="none" stroke-width="2"></path></g><g transform="translate(771 731)"><path d="M0 -23L19.9 -11.5L19.9 11.5L0 23L-19.9 11.5L-19.9 -11.5Z" stroke="#7aa629" fill="none" stroke-width="2"></path></g><g transform="translate(293 821)"><path d="M0 -12L10.4 -6L10.4 6L0 12L-10.4 6L-10.4 -6Z" stroke="#7aa629" fill="none" stroke-width="2"></path></g><g transform="translate(747 851)"><path d="M0 -17L14.7 -8.5L14.7 8.5L0 17L-14.7 8.5L-14.7 -8.5Z" stroke="#7aa629" fill="none" stroke-width="2"></path></g><g transform="translate(1399 1051)"><path d="M0 -6L5.2 -3L5.2 3L0 6L-5.2 3L-5.2 -3Z" stroke="#7aa629" fill="none" stroke-width="2"></path></g><g transform="translate(1800 744)"><path d="M0 -23L19.9 -11.5L19.9 11.5L0 23L-19.9 11.5L-19.9 -11.5Z" stroke="#7aa629" fill="none" stroke-width="2"></path></g><g transform="translate(333 409)"><path d="M0 -18L15.6 -9L15.6 9L0 18L-15.6 9L-15.6 -9Z" stroke="#7aa629" fill="none" stroke-width="2"></path></g><g transform="translate(3 380)"><path d="M0 -9L7.8 -4.5L7.8 4.5L0 9L-7.8 4.5L-7.8 -4.5Z" stroke="#7aa629" fill="none" stroke-width="2"></path></g><g transform="translate(854 602)"><path d="M0 -18L15.6 -9L15.6 9L0 18L-15.6 9L-15.6 -9Z" stroke="#7aa629" fill="none" stroke-width="2"></path></g><g transform="translate(963 23)"><path d="M0 -11L9.5 -5.5L9.5 5.5L0 11L-9.5 5.5L-9.5 -5.5Z" stroke="#7aa629" fill="none" stroke-width="2"></path></g><g transform="translate(885 1018)"><path d="M0 -24L20.8 -12L20.8 12L0 24L-20.8 12L-20.8 -12Z" stroke="#7aa629" fill="none" stroke-width="2"></path></g><g transform="translate(1168 1071)"><path d="M0 -16L13.9 -8L13.9 8L0 16L-13.9 8L-13.9 -8Z" stroke="#7aa629" fill="none" stroke-width="2"></path></g><g transform="translate(1907 425)"><path d="M0 -6L5.2 -3L5.2 3L0 6L-5.2 3L-5.2 -3Z" stroke="#7aa629" fill="none" stroke-width="2"></path></g><g transform="translate(1017 1066)"><path d="M0 -7L6.1 -3.5L6.1 3.5L0 7L-6.1 3.5L-6.1 -3.5Z" stroke="#7aa629" fill="none" stroke-width="2"></path></g><g transform="translate(768 440)"><path d="M0 -19L16.5 -9.5L16.5 9.5L0 19L-16.5 9.5L-16.5 -9.5Z" stroke="#7aa629" fill="none" stroke-width="2"></path></g><g transform="translate(63 1002)"><path d="M0 -13L11.3 -6.5L11.3 6.5L0 13L-11.3 6.5L-11.3 -6.5Z" stroke="#7aa629" fill="none" stroke-width="2"></path></g><g transform="translate(938 578)"><path d="M0 -8L6.9 -4L6.9 4L0 8L-6.9 4L-6.9 -4Z" stroke="#7aa629" fill="none" stroke-width="2"></path></g><g transform="translate(456 992)"><path d="M0 -14L12.1 -7L12.1 7L0 14L-12.1 7L-12.1 -7Z" stroke="#7aa629" fill="none" stroke-width="2"></path></g><g transform="translate(1670 682)"><path d="M0 -8L6.9 -4L6.9 4L0 8L-6.9 4L-6.9 -4Z" stroke="#7aa629" fill="none" stroke-width="2"></path></g><g transform="translate(879 676)"><path d="M0 -23L19.9 -11.5L19.9 11.5L0 23L-19.9 11.5L-19.9 -11.5Z" stroke="#7aa629" fill="none" stroke-width="2"></path></g><g transform="translate(738 366)"><path d="M0 -7L6.1 -3.5L6.1 3.5L0 7L-6.1 3.5L-6.1 -3.5Z" stroke="#7aa629" fill="none" stroke-width="2"></path></g><g transform="translate(1034 264)"><path d="M0 -23L19.9 -11.5L19.9 11.5L0 23L-19.9 11.5L-19.9 -11.5Z" stroke="#7aa629" fill="none" stroke-width="2"></path></g><g transform="translate(998 965)"><path d="M0 -7L6.1 -3.5L6.1 3.5L0 7L-6.1 3.5L-6.1 -3.5Z" stroke="#7aa629" fill="none" stroke-width="2"></path></g><g transform="translate(758 617)"><path d="M0 -13L11.3 -6.5L11.3 6.5L0 13L-11.3 6.5L-11.3 -6.5Z" stroke="#7aa629" fill="none" stroke-width="2"></path></g><g transform="translate(554 586)"><path d="M0 -18L15.6 -9L15.6 9L0 18L-15.6 9L-15.6 -9Z" stroke="#7aa629" fill="none" stroke-width="2"></path></g><g transform="translate(419 396)"><path d="M0 -20L17.3 -10L17.3 10L0 20L-17.3 10L-17.3 -10Z" stroke="#7aa629" fill="none" stroke-width="2"></path></g><g transform="translate(1340 455)"><path d="M0 -8L6.9 -4L6.9 4L0 8L-6.9 4L-6.9 -4Z" stroke="#7aa629" fill="none" stroke-width="2"></path></g><g transform="translate(560 323)"><path d="M0 -20L17.3 -10L17.3 10L0 20L-17.3 10L-17.3 -10Z" stroke="#7aa629" fill="none" stroke-width="2"></path></g><g transform="translate(1290 875)"><path d="M0 -24L20.8 -12L20.8 12L0 24L-20.8 12L-20.8 -12Z" stroke="#7aa629" fill="none" stroke-width="2"></path></g><g transform="translate(162 560)"><path d="M0 -22L19.1 -11L19.1 11L0 22L-19.1 11L-19.1 -11Z" stroke="#7aa629" fill="none" stroke-width="2"></path></g><g transform="translate(1249 378)"><path d="M0 -6L5.2 -3L5.2 3L0 6L-5.2 3L-5.2 -3Z" stroke="#7aa629" fill="none" stroke-width="2"></path></g><g transform="translate(1150 194)"><path d="M0 -17L14.7 -8.5L14.7 8.5L0 17L-14.7 8.5L-14.7 -8.5Z" stroke="#7aa629" fill="none" stroke-width="2"></path></g><g transform="translate(444 483)"><path d="M0 -11L9.5 -5.5L9.5 5.5L0 11L-9.5 5.5L-9.5 -5.5Z" stroke="#7aa629" fill="none" stroke-width="2"></path></g><g transform="translate(1204 333)"><path d="M0 -9L7.8 -4.5L7.8 4.5L0 9L-7.8 4.5L-7.8 -4.5Z" stroke="#7aa629" fill="none" stroke-width="2"></path></g><g transform="translate(1540 59)"><path d="M0 -21L18.2 -10.5L18.2 10.5L0 21L-18.2 10.5L-18.2 -10.5Z" stroke="#7aa629" fill="none" stroke-width="2"></path></g><g transform="translate(312 196)"><path d="M0 -16L13.9 -8L13.9 8L0 16L-13.9 8L-13.9 -8Z" stroke="#7aa629" fill="none" stroke-width="2"></path></g><g transform="translate(1223 876)"><path d="M0 -10L8.7 -5L8.7 5L0 10L-8.7 5L-8.7 -5Z" stroke="#7aa629" fill="none" stroke-width="2"></path></g><g transform="translate(1604 888)"><path d="M0 -14L12.1 -7L12.1 7L0 14L-12.1 7L-12.1 -7Z" stroke="#7aa629" fill="none" stroke-width="2"></path></g><g transform="translate(1706 12)"><path d="M0 -9L7.8 -4.5L7.8 4.5L0 9L-7.8 4.5L-7.8 -4.5Z" stroke="#7aa629" fill="none" stroke-width="2"></path></g><g transform="translate(1241 673)"><path d="M0 -8L6.9 -4L6.9 4L0 8L-6.9 4L-6.9 -4Z" stroke="#7aa629" fill="none" stroke-width="2"></path></g><g transform="translate(1207 18)"><path d="M0 -22L19.1 -11L19.1 11L0 22L-19.1 11L-19.1 -11Z" stroke="#7aa629" fill="none" stroke-width="2"></path></g><g transform="translate(501 231)"><path d="M0 -8L6.9 -4L6.9 4L0 8L-6.9 4L-6.9 -4Z" stroke="#7aa629" fill="none" stroke-width="2"></path></g><g transform="translate(1813 267)"><path d="M0 -23L19.9 -11.5L19.9 11.5L0 23L-19.9 11.5L-19.9 -11.5Z" stroke="#7aa629" fill="none" stroke-width="2"></path></g><g transform="translate(1106 478)"><path d="M0 -21L18.2 -10.5L18.2 10.5L0 21L-18.2 10.5L-18.2 -10.5Z" stroke="#7aa629" fill="none" stroke-width="2"></path></g><g transform="translate(5 130)"><path d="M0 -22L19.1 -11L19.1 11L0 22L-19.1 11L-19.1 -11Z" stroke="#7aa629" fill="none" stroke-width="2"></path></g><g transform="translate(163 446)"><path d="M0 -6L5.2 -3L5.2 3L0 6L-5.2 3L-5.2 -3Z" stroke="#7aa629" fill="none" stroke-width="2"></path></g><g transform="translate(1918 263)"><path d="M0 -9L7.8 -4.5L7.8 4.5L0 9L-7.8 4.5L-7.8 -4.5Z" stroke="#7aa629" fill="none" stroke-width="2"></path></g><g transform="translate(721 182)"><path d="M0 -16L13.9 -8L13.9 8L0 16L-13.9 8L-13.9 -8Z" stroke="#7aa629" fill="none" stroke-width="2"></path></g><g transform="translate(182 826)"><path d="M0 -11L9.5 -5.5L9.5 5.5L0 11L-9.5 5.5L-9.5 -5.5Z" stroke="#7aa629" fill="none" stroke-width="2"></path></g><g transform="translate(31 1075)"><path d="M0 -24L20.8 -12L20.8 12L0 24L-20.8 12L-20.8 -12Z" stroke="#7aa629" fill="none" stroke-width="2"></path></g><g transform="translate(83 253)"><path d="M0 -14L12.1 -7L12.1 7L0 14L-12.1 7L-12.1 -7Z" stroke="#7aa629" fill="none" stroke-width="2"></path></g><g transform="translate(937 889)"><path d="M0 -21L18.2 -10.5L18.2 10.5L0 21L-18.2 10.5L-18.2 -10.5Z" stroke="#7aa629" fill="none" stroke-width="2"></path></g><g transform="translate(1041 373)"><path d="M0 -16L13.9 -8L13.9 8L0 16L-13.9 8L-13.9 -8Z" stroke="#7aa629" fill="none" stroke-width="2"></path></g><g transform="translate(869 163)"><path d="M0 -23L19.9 -11.5L19.9 11.5L0 23L-19.9 11.5L-19.9 -11.5Z" stroke="#7aa629" fill="none" stroke-width="2"></path></g><g transform="translate(26 70)"><path d="M0 -8L6.9 -4L6.9 4L0 8L-6.9 4L-6.9 -4Z" stroke="#7aa629" fill="none" stroke-width="2"></path></g><g transform="translate(1774 1019)"><path d="M0 -24L20.8 -12L20.8 12L0 24L-20.8 12L-20.8 -12Z" stroke="#7aa629" fill="none" stroke-width="2"></path></g><g transform="translate(397 236)"><path d="M0 -18L15.6 -9L15.6 9L0 18L-15.6 9L-15.6 -9Z" stroke="#7aa629" fill="none" stroke-width="2"></path></g><g transform="translate(1222 1075)"><path d="M0 -16L13.9 -8L13.9 8L0 16L-13.9 8L-13.9 -8Z" stroke="#7aa629" fill="none" stroke-width="2"></path></g><g transform="translate(1162 136)"><path d="M0 -12L10.4 -6L10.4 6L0 12L-10.4 6L-10.4 -6Z" stroke="#7aa629" fill="none" stroke-width="2"></path></g><g transform="translate(1540 1059)"><path d="M0 -15L13 -7.5L13 7.5L0 15L-13 7.5L-13 -7.5Z" stroke="#7aa629" fill="none" stroke-width="2"></path></g><g transform="translate(1193 491)"><path d="M0 -9L7.8 -4.5L7.8 4.5L0 9L-7.8 4.5L-7.8 -4.5Z" stroke="#7aa629" fill="none" stroke-width="2"></path></g><g transform="translate(213 493)"><path d="M0 -18L15.6 -9L15.6 9L0 18L-15.6 9L-15.6 -9Z" stroke="#7aa629" fill="none" stroke-width="2"></path></g><g transform="translate(581 535)"><path d="M0 -19L16.5 -9.5L16.5 9.5L0 19L-16.5 9.5L-16.5 -9.5Z" stroke="#7aa629" fill="none" stroke-width="2"></path></g><g transform="translate(247 626)"><path d="M0 -10L8.7 -5L8.7 5L0 10L-8.7 5L-8.7 -5Z" stroke="#7aa629" fill="none" stroke-width="2"></path></g><g transform="translate(1729 201)"><path d="M0 -15L13 -7.5L13 7.5L0 15L-13 7.5L-13 -7.5Z" stroke="#7aa629" fill="none" stroke-width="2"></path></g><g transform="translate(929 518)"><path d="M0 -6L5.2 -3L5.2 3L0 6L-5.2 3L-5.2 -3Z" stroke="#7aa629" fill="none" stroke-width="2"></path></g><g transform="translate(1533 191)"><path d="M0 -11L9.5 -5.5L9.5 5.5L0 11L-9.5 5.5L-9.5 -5.5Z" stroke="#7aa629" fill="none" stroke-width="2"></path></g><g transform="translate(1841 637)"><path d="M0 -7L6.1 -3.5L6.1 3.5L0 7L-6.1 3.5L-6.1 -3.5Z" stroke="#7aa629" fill="none" stroke-width="2"></path></g><g transform="translate(796 956)"><path d="M0 -22L19.1 -11L19.1 11L0 22L-19.1 11L-19.1 -11Z" stroke="#7aa629" fill="none" stroke-width="2"></path></g><g transform="translate(147 937)"><path d="M0 -19L16.5 -9.5L16.5 9.5L0 19L-16.5 9.5L-16.5 -9.5Z" stroke="#7aa629" fill="none" stroke-width="2"></path></g><g transform="translate(1389 169)"><path d="M0 -20L17.3 -10L17.3 10L0 20L-17.3 10L-17.3 -10Z" stroke="#7aa629" fill="none" stroke-width="2"></path></g><g transform="translate(1814 202)"><path d="M0 -24L20.8 -12L20.8 12L0 24L-20.8 12L-20.8 -12Z" stroke="#7aa629" fill="none" stroke-width="2"></path></g><g transform="translate(1759 926)"><path d="M0 -8L6.9 -4L6.9 4L0 8L-6.9 4L-6.9 -4Z" stroke="#7aa629" fill="none" stroke-width="2"></path></g><g transform="translate(844 412)"><path d="M0 -7L6.1 -3.5L6.1 3.5L0 7L-6.1 3.5L-6.1 -3.5Z" stroke="#7aa629" fill="none" stroke-width="2"></path></g><g transform="translate(373 814)"><path d="M0 -17L14.7 -8.5L14.7 8.5L0 17L-14.7 8.5L-14.7 -8.5Z" stroke="#7aa629" fill="none" stroke-width="2"></path></g><g transform="translate(1080 812)"><path d="M0 -6L5.2 -3L5.2 3L0 6L-5.2 3L-5.2 -3Z" stroke="#7aa629" fill="none" stroke-width="2"></path></g><g transform="translate(696 135)"><path d="M0 -22L19.1 -11L19.1 11L0 22L-19.1 11L-19.1 -11Z" stroke="#7aa629" fill="none" stroke-width="2"></path></g><g transform="translate(1531 783)"><path d="M0 -6L5.2 -3L5.2 3L0 6L-5.2 3L-5.2 -3Z" stroke="#7aa629" fill="none" stroke-width="2"></path></g><g transform="translate(425 594)"><path d="M0 -15L13 -7.5L13 7.5L0 15L-13 7.5L-13 -7.5Z" stroke="#7aa629" fill="none" stroke-width="2"></path></g><g transform="translate(1900 164)"><path d="M0 -17L14.7 -8.5L14.7 8.5L0 17L-14.7 8.5L-14.7 -8.5Z" stroke="#7aa629" fill="none" stroke-width="2"></path></g><g transform="translate(1415 74)"><path d="M0 -15L13 -7.5L13 7.5L0 15L-13 7.5L-13 -7.5Z" stroke="#7aa629" fill="none" stroke-width="2"></path></g><g transform="translate(1436 945)"><path d="M0 -10L8.7 -5L8.7 5L0 10L-8.7 5L-8.7 -5Z" stroke="#7aa629" fill="none" stroke-width="2"></path></g><g transform="translate(1619 784)"><path d="M0 -12L10.4 -6L10.4 6L0 12L-10.4 6L-10.4 -6Z" stroke="#7aa629" fill="none" stroke-width="2"></path></g><g transform="translate(399 2)"><path d="M0 -7L6.1 -3.5L6.1 3.5L0 7L-6.1 3.5L-6.1 -3.5Z" stroke="#7aa629" fill="none" stroke-width="2"></path></g><g transform="translate(50 837)"><path d="M0 -17L14.7 -8.5L14.7 8.5L0 17L-14.7 8.5L-14.7 -8.5Z" stroke="#7aa629" fill="none" stroke-width="2"></path></g><g transform="translate(5 867)"><path d="M0 -16L13.9 -8L13.9 8L0 16L-13.9 8L-13.9 -8Z" stroke="#7aa629" fill="none" stroke-width="2"></path></g><g transform="translate(102 735)"><path d="M0 -13L11.3 -6.5L11.3 6.5L0 13L-11.3 6.5L-11.3 -6.5Z" stroke="#7aa629" fill="none" stroke-width="2"></path></g><g transform="translate(669 561)"><path d="M0 -23L19.9 -11.5L19.9 11.5L0 23L-19.9 11.5L-19.9 -11.5Z" stroke="#7aa629" fill="none" stroke-width="2"></path></g><g transform="translate(28 7)"><path d="M0 -13L11.3 -6.5L11.3 6.5L0 13L-11.3 6.5L-11.3 -6.5Z" stroke="#7aa629" fill="none" stroke-width="2"></path></g><g transform="translate(67 521)"><path d="M0 -21L18.2 -10.5L18.2 10.5L0 21L-18.2 10.5L-18.2 -10.5Z" stroke="#7aa629" fill="none" stroke-width="2"></path></g><g transform="translate(412 126)"><path d="M0 -17L14.7 -8.5L14.7 8.5L0 17L-14.7 8.5L-14.7 -8.5Z" stroke="#7aa629" fill="none" stroke-width="2"></path></g><g transform="translate(474 1077)"><path d="M0 -11L9.5 -5.5L9.5 5.5L0 11L-9.5 5.5L-9.5 -5.5Z" stroke="#7aa629" fill="none" stroke-width="2"></path></g><g transform="translate(1751 281)"><path d="M0 -22L19.1 -11L19.1 11L0 22L-19.1 11L-19.1 -11Z" stroke="#7aa629" fill="none" stroke-width="2"></path></g><g transform="translate(1329 777)"><path d="M0 -6L5.2 -3L5.2 3L0 6L-5.2 3L-5.2 -3Z" stroke="#7aa629" fill="none" stroke-width="2"></path></g><g transform="translate(1435 433)"><path d="M0 -14L12.1 -7L12.1 7L0 14L-12.1 7L-12.1 -7Z" stroke="#7aa629" fill="none" stroke-width="2"></path></g><g transform="translate(1597 546)"><path d="M0 -13L11.3 -6.5L11.3 6.5L0 13L-11.3 6.5L-11.3 -6.5Z" stroke="#7aa629" fill="none" stroke-width="2"></path></g><g transform="translate(1616 279)"><path d="M0 -16L13.9 -8L13.9 8L0 16L-13.9 8L-13.9 -8Z" stroke="#7aa629" fill="none" stroke-width="2"></path></g><g transform="translate(1145 366)"><path d="M0 -22L19.1 -11L19.1 11L0 22L-19.1 11L-19.1 -11Z" stroke="#7aa629" fill="none" stroke-width="2"></path></g><g transform="translate(1624 647)"><path d="M0 -10L8.7 -5L8.7 5L0 10L-8.7 5L-8.7 -5Z" stroke="#7aa629" fill="none" stroke-width="2"></path></g><g transform="translate(131 294)"><path d="M0 -16L13.9 -8L13.9 8L0 16L-13.9 8L-13.9 -8Z" stroke="#7aa629" fill="none" stroke-width="2"></path></g><g transform="translate(526 690)"><path d="M0 -13L11.3 -6.5L11.3 6.5L0 13L-11.3 6.5L-11.3 -6.5Z" stroke="#7aa629" fill="none" stroke-width="2"></path></g><g transform="translate(199 959)"><path d="M0 -21L18.2 -10.5L18.2 10.5L0 21L-18.2 10.5L-18.2 -10.5Z" stroke="#7aa629" fill="none" stroke-width="2"></path></g><g transform="translate(1729 761)"><path d="M0 -18L15.6 -9L15.6 9L0 18L-15.6 9L-15.6 -9Z" stroke="#7aa629" fill="none" stroke-width="2"></path></g><g transform="translate(1419 534)"><path d="M0 -10L8.7 -5L8.7 5L0 10L-8.7 5L-8.7 -5Z" stroke="#7aa629" fill="none" stroke-width="2"></path></g><g transform="translate(1903 1070)"><path d="M0 -14L12.1 -7L12.1 7L0 14L-12.1 7L-12.1 -7Z" stroke="#7aa629" fill="none" stroke-width="2"></path></g><g transform="translate(1326 346)"><path d="M0 -9L7.8 -4.5L7.8 4.5L0 9L-7.8 4.5L-7.8 -4.5Z" stroke="#7aa629" fill="none" stroke-width="2"></path></g><g transform="translate(1911 929)"><path d="M0 -20L17.3 -10L17.3 10L0 20L-17.3 10L-17.3 -10Z" stroke="#7aa629" fill="none" stroke-width="2"></path></g><g transform="translate(66 896)"><path d="M0 -20L17.3 -10L17.3 10L0 20L-17.3 10L-17.3 -10Z" stroke="#7aa629" fill="none" stroke-width="2"></path></g><g transform="translate(310 723)"><path d="M0 -10L8.7 -5L8.7 5L0 10L-8.7 5L-8.7 -5Z" stroke="#7aa629" fill="none" stroke-width="2"></path></g><g transform="translate(741 18)"><path d="M0 -19L16.5 -9.5L16.5 9.5L0 19L-16.5 9.5L-16.5 -9.5Z" stroke="#7aa629" fill="none" stroke-width="2"></path></g><g transform="translate(1098 286)"><path d="M0 -19L16.5 -9.5L16.5 9.5L0 19L-16.5 9.5L-16.5 -9.5Z" stroke="#7aa629" fill="none" stroke-width="2"></path></g><g transform="translate(621 299)"><path d="M0 -21L18.2 -10.5L18.2 10.5L0 21L-18.2 10.5L-18.2 -10.5Z" stroke="#7aa629" fill="none" stroke-width="2"></path></g><g transform="translate(1775 502)"><path d="M0 -7L6.1 -3.5L6.1 3.5L0 7L-6.1 3.5L-6.1 -3.5Z" stroke="#7aa629" fill="none" stroke-width="2"></path></g><g transform="translate(1515 532)"><path d="M0 -20L17.3 -10L17.3 10L0 20L-17.3 10L-17.3 -10Z" stroke="#7aa629" fill="none" stroke-width="2"></path></g><g transform="translate(1652 199)"><path d="M0 -9L7.8 -4.5L7.8 4.5L0 9L-7.8 4.5L-7.8 -4.5Z" stroke="#7aa629" fill="none" stroke-width="2"></path></g><g transform="translate(1686 103)"><path d="M0 -12L10.4 -6L10.4 6L0 12L-10.4 6L-10.4 -6Z" stroke="#7aa629" fill="none" stroke-width="2"></path></g><g transform="translate(1307 982)"><path d="M0 -16L13.9 -8L13.9 8L0 16L-13.9 8L-13.9 -8Z" stroke="#7aa629" fill="none" stroke-width="2"></path></g><g transform="translate(1665 487)"><path d="M0 -11L9.5 -5.5L9.5 5.5L0 11L-9.5 5.5L-9.5 -5.5Z" stroke="#7aa629" fill="none" stroke-width="2"></path></g><g transform="translate(414 290)"><path d="M0 -6L5.2 -3L5.2 3L0 6L-5.2 3L-5.2 -3Z" stroke="#7aa629" fill="none" stroke-width="2"></path></g><g transform="translate(589 141)"><path d="M0 -9L7.8 -4.5L7.8 4.5L0 9L-7.8 4.5L-7.8 -4.5Z" stroke="#7aa629" fill="none" stroke-width="2"></path></g><g transform="translate(1325 60)"><path d="M0 -9L7.8 -4.5L7.8 4.5L0 9L-7.8 4.5L-7.8 -4.5Z" stroke="#7aa629" fill="none" stroke-width="2"></path></g><g transform="translate(210 106)"><path d="M0 -8L6.9 -4L6.9 4L0 8L-6.9 4L-6.9 -4Z" stroke="#7aa629" fill="none" stroke-width="2"></path></g><g transform="translate(1344 529)"><path d="M0 -7L6.1 -3.5L6.1 3.5L0 7L-6.1 3.5L-6.1 -3.5Z" stroke="#7aa629" fill="none" stroke-width="2"></path></g><g transform="translate(1660 891)"><path d="M0 -24L20.8 -12L20.8 12L0 24L-20.8 12L-20.8 -12Z" stroke="#7aa629" fill="none" stroke-width="2"></path></g><g transform="translate(1359 249)"><path d="M0 -6L5.2 -3L5.2 3L0 6L-5.2 3L-5.2 -3Z" stroke="#7aa629" fill="none" stroke-width="2"></path></g><g transform="translate(266 220)"><path d="M0 -23L19.9 -11.5L19.9 11.5L0 23L-19.9 11.5L-19.9 -11.5Z" stroke="#7aa629" fill="none" stroke-width="2"></path></g><g transform="translate(1541 265)"><path d="M0 -21L18.2 -10.5L18.2 10.5L0 21L-18.2 10.5L-18.2 -10.5Z" stroke="#7aa629" fill="none" stroke-width="2"></path></g><g transform="translate(1522 637)"><path d="M0 -15L13 -7.5L13 7.5L0 15L-13 7.5L-13 -7.5Z" stroke="#7aa629" fill="none" stroke-width="2"></path></g><g transform="translate(1846 915)"><path d="M0 -16L13.9 -8L13.9 8L0 16L-13.9 8L-13.9 -8Z" stroke="#7aa629" fill="none" stroke-width="2"></path></g><g transform="translate(1298 696)"><path d="M0 -9L7.8 -4.5L7.8 4.5L0 9L-7.8 4.5L-7.8 -4.5Z" stroke="#7aa629" fill="none" stroke-width="2"></path></g><g transform="translate(21 972)"><path d="M0 -10L8.7 -5L8.7 5L0 10L-8.7 5L-8.7 -5Z" stroke="#7aa629" fill="none" stroke-width="2"></path></g><g transform="translate(820 177)"><path d="M0 -15L13 -7.5L13 7.5L0 15L-13 7.5L-13 -7.5Z" stroke="#7aa629" fill="none" stroke-width="2"></path></g><g transform="translate(741 313)"><path d="M0 -13L11.3 -6.5L11.3 6.5L0 13L-11.3 6.5L-11.3 -6.5Z" stroke="#7aa629" fill="none" stroke-width="2"></path></g><g transform="translate(953 658)"><path d="M0 -8L6.9 -4L6.9 4L0 8L-6.9 4L-6.9 -4Z" stroke="#7aa629" fill="none" stroke-width="2"></path></g><g transform="translate(1358 621)"><path d="M0 -11L9.5 -5.5L9.5 5.5L0 11L-9.5 5.5L-9.5 -5.5Z" stroke="#7aa629" fill="none" stroke-width="2"></path></g></g></svg>