<?xml version="1.0" standalone="no"?>
<!DOCTYPE svg PUBLIC "-//W3C//DTD SVG 20010904//EN"
 "http://www.w3.org/TR/2001/REC-SVG-20010904/DTD/svg10.dtd">
<svg version="1.0" xmlns="http://www.w3.org/2000/svg"
 width="500.000000pt" height="500.000000pt" viewBox="0 0 500.000000 500.000000"
 preserveAspectRatio="xMidYMid meet">
<metadata>
Created by potrace 1.14, written by Peter Selinger 2001-2017
</metadata>
<g transform="translate(0.000000,500.000000) scale(0.100000,-0.100000)"
fill="#000000" stroke="none">
<path d="M1588 3914 c-2 -1 -35 -5 -75 -8 -39 -3 -82 -8 -94 -10 -13 -3 -36
-8 -50 -10 -14 -2 -63 -14 -110 -27 -46 -13 -87 -22 -91 -21 -5 1 -8 -2 -8 -8
0 -5 -7 -10 -15 -10 -8 0 -23 -4 -33 -9 -9 -5 -51 -26 -92 -47 -304 -150 -589
-466 -715 -792 -74 -192 -105 -379 -100 -612 2 -91 6 -178 10 -195 59 -279
132 -451 273 -645 72 -99 249 -272 347 -339 230 -157 463 -228 755 -228 339
-1 655 94 885 267 83 62 272 286 340 401 10 19 36 63 57 99 21 36 74 137 117
225 76 152 110 226 176 377 17 37 33 68 37 68 4 0 13 -6 20 -13 43 -43 371
-227 404 -227 6 0 26 -7 44 -16 40 -21 124 -43 230 -61 85 -14 275 -6 365 17
45 11 203 77 215 90 3 3 23 19 45 35 106 79 178 181 245 349 105 262 75 570
-78 811 -61 96 -120 163 -189 216 -32 24 -60 46 -63 49 -15 16 -135 71 -195
89 -98 30 -127 35 -235 35 -127 0 -215 -17 -340 -67 -30 -12 -57 -22 -60 -22
-18 -3 -219 -116 -247 -140 -6 -5 -26 -21 -44 -35 -61 -46 -149 -132 -201
-196 -28 -35 -54 -64 -57 -64 -3 0 -34 26 -67 58 -239 223 -468 377 -719 481
-69 29 -213 79 -250 86 -22 5 -42 9 -45 10 -8 3 -73 14 -110 20 -19 3 -75 8
-125 11 -49 3 -105 6 -122 8 -18 2 -34 2 -35 0z m227 -618 c17 -3 40 -8 52
-10 82 -17 333 -121 353 -147 3 -3 15 -9 28 -13 12 -4 22 -12 22 -17 0 -5 5
-9 10 -9 19 0 242 -160 361 -260 36 -30 78 -64 92 -75 15 -11 27 -26 27 -34 0
-14 -94 -197 -163 -316 -305 -528 -589 -740 -979 -730 -156 4 -277 44 -424
141 -424 281 -479 915 -110 1268 41 38 161 124 161 116 1 -3 13 3 27 12 33 22
135 58 142 50 3 -3 6 -1 6 5 0 5 6 10 13 10 21 0 100 13 104 16 5 6 246 0 278
-7z m2305 -63 c55 -41 117 -111 142 -162 19 -39 23 -62 23 -146 0 -90 -3 -106
-28 -157 -72 -147 -213 -191 -451 -143 -16 3 -37 10 -48 16 -10 5 -18 7 -18 4
0 -7 -107 48 -153 79 -21 14 -41 26 -45 26 -4 0 -29 20 -56 45 -31 30 -46 51
-42 61 13 33 100 146 162 209 65 66 187 153 224 160 11 2 25 7 30 10 10 6 35
13 85 22 17 2 31 6 33 8 1 1 26 0 54 -2 36 -3 64 -12 88 -30z"/>
<path d="M1577 3214 c-1 -2 -22 -5 -47 -8 -203 -24 -419 -177 -504 -356 l-16
-35 22 29 c38 48 107 116 117 116 5 0 11 3 13 8 5 12 62 49 111 71 130 60 226
78 398 75 74 -1 148 -4 164 -8 17 -3 55 -11 85 -17 30 -6 64 -12 75 -14 11 -2
32 -8 48 -14 15 -6 27 -8 27 -5 0 2 9 0 20 -6 33 -18 22 4 -13 24 -109 64
-163 88 -277 121 -39 11 -216 26 -223 19z"/>
<path d="M2578 2692 c-109 -233 -298 -529 -405 -635 -101 -98 -159 -139 -273
-191 -57 -26 -14 -18 58 10 151 60 261 139 358 259 90 110 258 374 334 526
l32 62 -29 23 c-15 13 -30 23 -33 24 -3 0 -22 -35 -42 -78z"/>
<path d="M3625 3767 c-9 -5 -22 -10 -28 -12 -7 -1 -19 -5 -27 -8 -8 -3 -46
-18 -85 -32 -154 -57 -355 -180 -474 -290 -39 -36 -40 -39 -24 -55 38 -34 47
-31 141 60 131 127 364 274 505 319 20 7 37 16 37 20 0 11 -25 10 -45 -2z"/>
<path d="M4653 2235 c-75 -97 -182 -168 -323 -214 -85 -28 -149 -36 -295 -36
-125 0 -208 12 -360 51 -85 22 -89 22 -65 4 59 -46 203 -111 290 -130 19 -5
46 -11 60 -14 33 -8 165 -9 215 -1 178 27 352 131 449 269 39 55 81 126 74
126 -2 0 -22 -25 -45 -55z"/>
</g>
</svg>
