<?xml version="1.0" encoding="UTF-8"?>
<svg width="512" height="512" viewBox="0 0 512 512" fill="none" xmlns="http://www.w3.org/2000/svg">
  <defs>
    <linearGradient id="bg" x1="82" y1="42" x2="442" y2="482" gradientUnits="userSpaceOnUse">
      <stop stop-color="#20242a"/>
      <stop offset="0.42" stop-color="#101113"/>
      <stop offset="1" stop-color="#070809"/>
    </linearGradient>
    <linearGradient id="ember" x1="126" y1="120" x2="396" y2="406" gradientUnits="userSpaceOnUse">
      <stop stop-color="#ffe082"/>
      <stop offset="0.48" stop-color="#f0b429"/>
      <stop offset="1" stop-color="#c76d2b"/>
    </linearGradient>
    <linearGradient id="copper" x1="147" y1="116" x2="390" y2="394" gradientUnits="userSpaceOnUse">
      <stop stop-color="#f8c35b"/>
      <stop offset="1" stop-color="#a65325"/>
    </linearGradient>
    <linearGradient id="teal" x1="302" y1="194" x2="388" y2="319" gradientUnits="userSpaceOnUse">
      <stop stop-color="#43d8c9"/>
      <stop offset="1" stop-color="#1f7a8c"/>
    </linearGradient>
    <filter id="softShadow" x="35" y="37" width="442" height="449" filterUnits="userSpaceOnUse" color-interpolation-filters="sRGB">
      <feDropShadow dx="0" dy="16" stdDeviation="18" flood-color="#000000" flood-opacity="0.35"/>
    </filter>
    <filter id="innerGlow" x="52" y="52" width="408" height="408" filterUnits="userSpaceOnUse" color-interpolation-filters="sRGB">
      <feDropShadow dx="0" dy="0" stdDeviation="9" flood-color="#f0b429" flood-opacity="0.23"/>
    </filter>
  </defs>

  <rect width="512" height="512" rx="118" fill="url(#bg)"/>
  <rect x="18" y="18" width="476" height="476" rx="104" stroke="#f0b429" stroke-opacity="0.22" stroke-width="12"/>
  <path d="M84 384C115 438 174 470 256 470C356 470 429 418 451 332" stroke="#ffffff" stroke-opacity="0.07" stroke-width="18" stroke-linecap="round"/>

  <g filter="url(#softShadow)">
    <rect x="91" y="104" width="330" height="304" rx="48" fill="#15171b" stroke="url(#ember)" stroke-width="18"/>
    <rect x="133" y="151" width="246" height="211" rx="26" fill="#0b0c0e"/>
    <g fill="#f0b429" opacity="0.88">
      <rect x="111" y="147" width="23" height="34" rx="8"/>
      <rect x="111" y="225" width="23" height="34" rx="8"/>
      <rect x="111" y="303" width="23" height="34" rx="8"/>
      <rect x="378" y="147" width="23" height="34" rx="8"/>
      <rect x="378" y="225" width="23" height="34" rx="8"/>
      <rect x="378" y="303" width="23" height="34" rx="8"/>
    </g>
  </g>

  <g filter="url(#innerGlow)">
    <path d="M158 348V176H209L256 264L303 176H354V348H303V267L273 326H239L209 267V348H158Z" fill="url(#ember)"/>
    <path d="M207 176H158V348H207V176Z" fill="url(#copper)" opacity="0.9"/>
    <path d="M314 221L377 256L314 291V221Z" fill="url(#teal)"/>
    <path d="M314 221L377 256L314 291V221Z" stroke="#f7f3ea" stroke-opacity="0.28" stroke-width="7" stroke-linejoin="round"/>
  </g>

  <circle cx="363" cy="145" r="17" fill="#f0b429"/>
  <circle cx="383" cy="129" r="7" fill="#f7f3ea" opacity="0.8"/>
</svg>
